<svg id="Capa_1" data-name="Capa 1" xmlns="http://www.w3.org/2000/svg" viewBox="0 0 200 148.7"><defs><style>.cls-1{fill:#c63663;}</style></defs><path class="cls-1" d="M32.91,98.7a16.67,16.67,0,0,1-4.83,12.22,16,16,0,0,1-11.7,4.85A15.87,15.87,0,0,1,4.72,111,16.74,16.74,0,0,1,0,98.77,16.09,16.09,0,0,1,5.46,86.22,16.51,16.51,0,0,1,16.79,82a15.58,15.58,0,0,1,11.33,4.78A16.15,16.15,0,0,1,32.91,98.7ZM28,99.34c0-5.79-1.22-10.2-3.62-13.11a10,10,0,0,0-8.09-3.49A9.73,9.73,0,0,0,8.5,86.23c-2.39,2.82-3.6,7-3.6,12.41,0,5.56,1.25,9.89,3.73,12.89a9.52,9.52,0,0,0,7.7,3.52,10.68,10.68,0,0,0,8.4-3.83C26.91,108.7,28,104.7,28,99.34Z"/><path class="cls-1" d="M45.66,115.37H35.15V115h.05a2.69,2.69,0,0,0,2-.63c.69-.67,1-1.83,1-3.64V87c0-1.81-.32-3-1-3.64a2.54,2.54,0,0,0-1.85-.63h-.16v-.33H45.66v.33h-.18a2.56,2.56,0,0,0-1.83.63c-.69.68-1,1.84-1,3.65v27.61H50c4.34,0,6.66-1.35,8-4.68l.25-.57h.33v6Z"/><path class="cls-1" d="M71.12,82.74a2.52,2.52,0,0,0-1.82.63c-.69.68-1,1.84-1,3.65v23.75c0,1.81.33,3,1,3.64a2.51,2.51,0,0,0,1.85.63h.16v.33H60.79V115h.06a2.68,2.68,0,0,0,1.95-.63c.69-.67,1-1.83,1-3.64V87c0-1.81-.32-3-1-3.64A2.54,2.54,0,0,0,61,82.74h-.16v-.33H71.3v.33Z"/><path class="cls-1" d="M101.4,86.72l-10,28.65H89.23L77.5,86.62c-1.26-2.77-2.4-3.88-3.92-3.88h0v-.33H84.42v.33h-.24a2.26,2.26,0,0,0-2,.82c-.57.82-.53,2.1.14,3.83L92,111l8.19-23.41v0c.51-1.91.47-3.16-.13-3.94a2.75,2.75,0,0,0-2.33-.84h-.37v-.33h8.37v.33h-.34C103.27,82.74,102.26,84.31,101.4,86.72Z"/><path class="cls-1" d="M108,115h.15a2.55,2.55,0,0,0,1.87-.64c.69-.68,1-1.83,1-3.64V87c0-1.81-.32-3-1-3.64a2.53,2.53,0,0,0-1.84-.63H108v-.33h22.25v5.38h-.33c-1.34-3.26-3.8-4.66-8.25-4.66h-6.16v14h4.76c3.68,0,5.5-.78,6.47-2.8l.1-.22h.33v7.17h-.32l-.11-.25c-1-2.28-2.78-3.17-6.47-3.17h-4.76v16.82h7.18c4,0,6.33-1.2,7.71-4l.56-1.26h.33v6H108Z"/><path class="cls-1" d="M141,99.81v11c0,1.81.32,3,1,3.65a2.51,2.51,0,0,0,1.85.63H144v.33H133.49V115a2.63,2.63,0,0,0,2-.63c.69-.67,1-1.83,1-3.64V87c0-1.81-.32-3-1-3.64a2.5,2.5,0,0,0-1.83-.64h-.17v-.33H148c7.31,0,11.51,3.08,11.51,8.44,0,4.89-3.67,8.1-10.08,8.8l-1.2.13,1,.64.28.19.16.1.34.22a13,13,0,0,1,3.34,2.93c.27.31.5.61.73.92l.66.92.89,1.25c1,1.42,2.12,3,3.35,4.47l.1.11c1,1.17,2.64,3.14,4.74,3.51v.33H160c-4.74,0-6.27-3.1-8.4-7.38l0-.09c-.57-1.15-1-2.06-1.56-3a12.37,12.37,0,0,0-2.85-3.57,9.62,9.62,0,0,0-1.55-1.1l-.21-.13-.32-.19-.1-.07Zm0-.72h5.75c5,0,8.05-3.08,8.05-8.23A8.51,8.51,0,0,0,153,85.15a6.36,6.36,0,0,0-5-2h-7Z"/><path class="cls-1" d="M186.89,102.68H174.67l-2.77,7.6c-.61,1.88-.62,3.11,0,3.89a2.74,2.74,0,0,0,2.37.87h.17v.33h-8.3V115h.11c1.91,0,3.25-1.21,4.36-4l10.62-28.64h1.73l12.46,28.69c1.05,2.25,2.17,3.43,3.63,3.82l.31.06.68.06v.33H188.17V115c.29,0,.73,0,.87,0a2.07,2.07,0,0,0,1.52-.76c.46-.64.44-1.63-.07-3Zm-.3-.73-6.25-14.83L175,102Z"/><path class="cls-1" d="M36.72,148.33l-5.3-15h-.05l-5.3,15H24.73l-5.42-16.47h1.2l4.89,15h0l5.29-15h1.33l5.29,15h0l4.89-15h1.2l-5.42,16.47Z"/><path class="cls-1" d="M49.13,148.33V131.86h13v.92H50.2v6.55H61.66v.92H50.2v7.15H62.28v.93Z"/><path class="cls-1" d="M68.7,148.33V131.86h7.7a7,7,0,0,1,5.49,2.08q1.89,2.1,1.89,6.15a8.69,8.69,0,0,1-2,6.06,7,7,0,0,1-5.47,2.18Zm7.82-.93a5.63,5.63,0,0,0,4.58-1.94,8.16,8.16,0,0,0,1.62-5.37A7.8,7.8,0,0,0,81,134.64a6.09,6.09,0,0,0-4.74-1.86H69.76V147.4Z"/><path class="cls-1" d="M90.82,148.33V131.86h7.7a7,7,0,0,1,5.49,2.08q1.9,2.1,1.9,6.15a8.69,8.69,0,0,1-2,6.06,7,7,0,0,1-5.47,2.18Zm7.82-.93a5.63,5.63,0,0,0,4.58-1.94,8.16,8.16,0,0,0,1.62-5.37,7.8,7.8,0,0,0-1.69-5.45,6.09,6.09,0,0,0-4.74-1.86H91.88V147.4Z"/><path class="cls-1" d="M112.94,148.33V131.86H114v16.47Z"/><path class="cls-1" d="M134.79,148.33l-12.3-15h0v15h-1.06V131.86h1.34l12.3,15h0v-15h1.06v16.47Z"/><path class="cls-1" d="M159,148.33v-4.06H159a6.83,6.83,0,0,1-2.82,3.3,8.44,8.44,0,0,1-4.37,1.13,9.44,9.44,0,0,1-4.59-1.09,7.53,7.53,0,0,1-3.09-3,8.9,8.9,0,0,1-1.09-4.48,9,9,0,0,1,1-4.26,7.89,7.89,0,0,1,3.07-3.18,8.92,8.92,0,0,1,4.65-1.19,8.73,8.73,0,0,1,5.14,1.46,6.62,6.62,0,0,1,2.68,4.07h-1.06a5.43,5.43,0,0,0-2.32-3.36,7.71,7.71,0,0,0-4.44-1.25,7.8,7.8,0,0,0-4.1,1.08,7.21,7.21,0,0,0-2.7,2.84,8.12,8.12,0,0,0-.91,3.76,8.3,8.3,0,0,0,1,4,6.67,6.67,0,0,0,2.72,2.7,8.34,8.34,0,0,0,4,.94,7,7,0,0,0,5-1.75,7.15,7.15,0,0,0,2.13-5h-6.62v-.92H160v8.21Z"/><path class="cls-1" d="M179.17,136.52c-.25-2.74-2.09-4.11-5.54-4.11a7.41,7.41,0,0,0-4,.87,2.79,2.79,0,0,0-1.35,2.52,2.54,2.54,0,0,0,.88,2.12,7.26,7.26,0,0,0,3,1.11l3.39.67a8.71,8.71,0,0,1,3.95,1.56,3.48,3.48,0,0,1,1.15,2.78,4,4,0,0,1-1.69,3.42,8.27,8.27,0,0,1-4.93,1.24,9.17,9.17,0,0,1-5.59-1.43,5.16,5.16,0,0,1-1.88-4.39h1.06q.06,4.89,6.32,4.89a7.09,7.09,0,0,0,4.13-1,3.11,3.11,0,0,0,1.38-2.68,2.82,2.82,0,0,0-.39-1.58,2.91,2.91,0,0,0-1.26-1,15.18,15.18,0,0,0-2.68-.82l-3.07-.64a12.34,12.34,0,0,1-3.07-.95,3.72,3.72,0,0,1-1.41-1.28,3.77,3.77,0,0,1-.5-2.06,3.63,3.63,0,0,1,1.66-3.1,7.65,7.65,0,0,1,4.56-1.19,8.48,8.48,0,0,1,5.09,1.29,4.53,4.53,0,0,1,1.81,3.74Z"/><path class="cls-1" d="M92.65,42.06c.28-.36.54-.73.84-1.06a9.8,9.8,0,0,1,1-.94l0,0a8,8,0,0,1-.74,1.14c-.27.36-.59.69-.89,1-.6.67-1.21,1.34-1.83,2l0,0C91.56,43.49,92.1,42.77,92.65,42.06Zm-3.82,4.41a1.48,1.48,0,0,1,.25-.31.8.8,0,0,1,.38-.19l0,0a.85.85,0,0,1-.16.4,1.24,1.24,0,0,1-.29.27c-.21.18-.42.35-.64.51l0,0C88.52,46.91,88.67,46.69,88.83,46.47ZM81.91,49.3A37.81,37.81,0,0,1,85.6,45a25.53,25.53,0,0,1,2.09-1.94A19.84,19.84,0,0,1,90,41.42l0,0-2.13,1.87c-.7.62-1.43,1.22-2.12,1.87a41.93,41.93,0,0,0-3.85,4.14ZM85.29,51a12.65,12.65,0,0,1-.86,1,8.71,8.71,0,0,1-1,.93l0,0a8.92,8.92,0,0,1,.76-1.13c.28-.36.6-.68.91-1,.6-.66,1.22-1.32,1.84-2l0,0C86.4,49.55,85.85,50.26,85.29,51Zm6.54.09c.56-.83,1.15-1.65,1.69-2.5a42.75,42.75,0,0,0,2.84-5.35h0a37.27,37.27,0,0,1-2.63,5.48,26.69,26.69,0,0,1-1.65,2.57,22.88,22.88,0,0,1-2,2.31l0,0C90.67,52.71,91.27,51.89,91.83,51.05Zm2.47-.11a21.34,21.34,0,0,1-1.7,3.46A13.63,13.63,0,0,1,91.53,56a10.5,10.5,0,0,1-1.35,1.4l0,0c.36-.54.73-1.05,1.1-1.58s.76-1,1.12-1.54a28,28,0,0,0,1.9-3.33ZM92.21,61.31a14.64,14.64,0,0,1-2,1.31,8,8,0,0,1-2.25.82v0A19.64,19.64,0,0,0,90,62.32c.67-.4,1.36-.79,2-1.23a21.73,21.73,0,0,0,1.87-1.45A12.56,12.56,0,0,0,95.57,58l0,0A15.75,15.75,0,0,1,92.21,61.31ZM96.91,48a10.22,10.22,0,0,1-.44,1.62,15.46,15.46,0,0,1-1.39,3l0,0a17.53,17.53,0,0,0,1.15-3.1c.14-.54.24-1.08.37-1.61s.24-1.07.39-1.62h0A7.89,7.89,0,0,1,96.91,48Zm-.42-7.08a26.26,26.26,0,0,1-1.38,2.49,45.74,45.74,0,0,1-3.23,4.68l0,0c1.08-1.55,2.09-3.15,3-4.8.45-.82.87-1.67,1.31-2.5l.67-1.25c.11-.21.22-.42.34-.63a6.53,6.53,0,0,1,.43-.57h0c-.1.22-.23.42-.32.63s-.18.44-.26.66C96.89,40,96.69,40.45,96.49,40.88Zm8.91,5.21-1.54-2.22a12.29,12.29,0,0,1-.75-1.13,8.58,8.58,0,0,1-.59-1.22l0,0a8.58,8.58,0,0,1,.85,1.06c.26.37.47.77.69,1.16.46.78.91,1.56,1.34,2.35Zm2,3.41c-.17-.2-.34-.42-.5-.63a1.52,1.52,0,0,1-.22-.34.81.81,0,0,1-.06-.42l0,0a.91.91,0,0,1,.33.27,1.76,1.76,0,0,1,.17.37c.1.25.2.5.28.76Zm.06,6.82a37.35,37.35,0,0,1-3-4.84,27.42,27.42,0,0,1-1.2-2.58,21.49,21.49,0,0,1-.83-2.73h0l1.12,2.61c.37.86.72,1.73,1.12,2.59a41.92,41.92,0,0,0,2.75,4.94ZM119.91,46A15.86,15.86,0,0,1,122,50.24a14.08,14.08,0,0,1,.63,2.31,8.34,8.34,0,0,1,.08,2.39h0a20.2,20.2,0,0,0-.38-2.33c-.17-.76-.34-1.53-.56-2.29A19.53,19.53,0,0,0,121,48.1a13.47,13.47,0,0,0-1.09-2.1Zm-10.7-4.93a6.79,6.79,0,0,1,1.57.6,9.33,9.33,0,0,1,1.4.91,14.74,14.74,0,0,1,2.47,2.26l0,0a18.9,18.9,0,0,0-2.6-2.05c-.47-.3-1-.56-1.42-.84s-1-.57-1.42-.87Zm.08,5.42a55.75,55.75,0,0,0-3.63-4.35c-.65-.69-1.33-1.34-2-2l-1-1-.5-.52c-.15-.19-.27-.4-.41-.59l0,0c.18.16.32.35.5.5l.54.45c.36.31.71.63,1.06,1a27.42,27.42,0,0,1,1.94,2.09,45.69,45.69,0,0,1,3.46,4.51Zm2,9.54a7.75,7.75,0,0,1-.84-1.07c-.26-.37-.46-.78-.68-1.17-.44-.78-.88-1.57-1.3-2.37l0,0c.51.75,1,1.49,1.51,2.25a12.1,12.1,0,0,1,.73,1.13,8.06,8.06,0,0,1,.57,1.23ZM114,49.85c-.62-.81-1.21-1.63-1.83-2.42s-1.22-1.61-1.87-2.38a41.26,41.26,0,0,0-4.21-4.36l0,0a38,38,0,0,1,4.39,4.21,23.08,23.08,0,0,1,1.93,2.36,20.31,20.31,0,0,1,1.59,2.6ZM117.66,51c-.41-.51-.78-1-1.17-1.53s-.73-1-1.12-1.54a26.66,26.66,0,0,0-2.58-2.84l0,0a21.93,21.93,0,0,1,2.77,2.68,13.35,13.35,0,0,1,1.2,1.52,10.39,10.39,0,0,1,.91,1.71ZM109,33.77a11.94,11.94,0,0,1-1.3.36,7.56,7.56,0,0,1-1.35.18v0a8.48,8.48,0,0,1,1.27-.48c.43-.13.88-.21,1.32-.3l2.65-.55v0C110.77,33.26,109.91,33.52,109,33.77Zm5.68-1.32a1.27,1.27,0,0,1-.38.11.9.9,0,0,1-.42-.08v0a.88.88,0,0,1,.36-.23,1.37,1.37,0,0,1,.4,0q.4,0,.81,0v0Zm-6.78-.93c-.86.4-1.69.84-2.54,1.25l-1.27.63-.65.3c-.23.09-.46.14-.69.21v0c.21-.12.44-.2.63-.32l.6-.38c.4-.25.82-.48,1.23-.71a25.12,25.12,0,0,1,2.58-1.2,44.93,44.93,0,0,1,5.36-1.9v0A54.25,54.25,0,0,0,107.94,31.52ZM115,27c-.95.34-1.9.66-2.84,1a44.13,44.13,0,0,0-5.44,2.66l0,0A37.22,37.22,0,0,1,112,27.76a26.51,26.51,0,0,1,2.84-1.11,21.71,21.71,0,0,1,3-.7v0C116.9,26.32,115.94,26.63,115,27Zm-2.06-1.36a22.21,22.21,0,0,1,3.41-1.81,13.06,13.06,0,0,1,1.81-.66,9.57,9.57,0,0,1,1.91-.34v0c-.61.23-1.21.43-1.82.64s-1.21.38-1.81.59a26.79,26.79,0,0,0-3.5,1.58Zm3.53,9.93a26.47,26.47,0,0,1-2.82.34,19.37,19.37,0,0,1-2.85,0v0l2.82-.26c.94-.09,1.88-.15,2.81-.27A44,44,0,0,0,122,34.19v0A37,37,0,0,1,116.46,35.55Zm5.16-4.66c-.43.12-.88.19-1.32.28-.89.18-1.77.35-2.66.51v0l2.6-.74a12.05,12.05,0,0,1,1.31-.35,8.58,8.58,0,0,1,1.35-.16v0A9,9,0,0,1,121.62,30.89Zm-.91-12.43a13.63,13.63,0,0,1,2.39.11,8.23,8.23,0,0,1,2.3.67v0a18.45,18.45,0,0,0-2.33-.35c-.78-.08-1.56-.16-2.35-.19a20.67,20.67,0,0,0-2.36.07,14,14,0,0,0-2.33.39v0A15.88,15.88,0,0,1,120.71,18.46Zm-7.42,5.37a18.83,18.83,0,0,0-2.75,1.84c-.43.35-.82.73-1.24,1.09s-.83.72-1.27,1.07l0,0a7.36,7.36,0,0,1,1-1.31,9.42,9.42,0,0,1,1.31-1.05,15.23,15.23,0,0,1,2.91-1.65Zm-8.54-4.67a42.12,42.12,0,0,0,.68-5.61h0a38.34,38.34,0,0,1-.45,5.66,23.72,23.72,0,0,1-.55,2.79,19.42,19.42,0,0,1-.93,2.69h0l.63-2.76C104.34,21,104.57,20.09,104.75,19.16Zm-3-5c0-.45,0-.9.08-1.35a8.68,8.68,0,0,1,.26-1.33h0a8.84,8.84,0,0,1,.05,1.36c0,.45-.09.89-.14,1.34-.1.9-.21,1.79-.34,2.68h0Q101.7,15.54,101.76,14.19Zm-.5,5.68q.09-.39.21-.78h0c0,.27,0,.54,0,.81a1.34,1.34,0,0,1,0,.4.93.93,0,0,1-.2.38h0a.91.91,0,0,1-.1-.41A1.35,1.35,0,0,1,101.26,19.87Zm-.63,7.18c0-.45.08-.9.13-1.35.09-.89.19-1.79.3-2.69h0q0,1.35-.06,2.7c0,.45,0,.9,0,1.35a8.75,8.75,0,0,1-.24,1.34h0A10.42,10.42,0,0,1,100.63,27.05Zm-2.49-6.63h0a53.63,53.63,0,0,0,.39,5.66c.11.93.27,1.86.4,2.8l.2,1.4c0,.24.07.46.09.71s0,.48,0,.72h0c0-.24,0-.48-.1-.7s-.12-.46-.18-.68c-.11-.47-.2-.93-.3-1.4-.17-.93-.26-1.88-.34-2.82A45.1,45.1,0,0,1,98.14,20.42ZM96.07,18a22,22,0,0,1,.25-3h0c0,1,0,2,.07,3s0,2,.1,3a41.87,41.87,0,0,0,.85,6h0a37.87,37.87,0,0,1-1.08-6A25.87,25.87,0,0,1,96.07,18Zm-2.32-4.19A9.65,9.65,0,0,1,94,11.85h0c0,.64,0,1.28,0,1.92s0,1.27,0,1.91a27.24,27.24,0,0,0,.42,3.81h0a22.39,22.39,0,0,1-.66-3.8A12.59,12.59,0,0,1,93.75,13.77Zm-.85,4.84a18.29,18.29,0,0,0,.89,3.18c.2.52.45,1,.66,1.52s.43,1,.63,1.53l0,0a7.27,7.27,0,0,1-.92-1.41,9.59,9.59,0,0,1-.6-1.57,15.82,15.82,0,0,1-.67-3.27Zm-3.57-4h0a15.63,15.63,0,0,1,.78-4.69,14.12,14.12,0,0,1,.85-2.24,8.12,8.12,0,0,1,1.34-2l0,0A18.09,18.09,0,0,0,91.24,7.8c-.31.72-.63,1.43-.9,2.18a19.51,19.51,0,0,0-.66,2.26A13.22,13.22,0,0,0,89.33,14.58ZM88.35,30c.86.28,1.71.58,2.56.89.42.15.86.28,1.27.47a9.09,9.09,0,0,1,1.19.64v0a9.36,9.36,0,0,1-1.31-.36c-.43-.15-.83-.35-1.25-.54q-1.23-.54-2.46-1.11Zm-3.6-1.61c.27.07.53.14.78.23a1.22,1.22,0,0,1,.38.13,1,1,0,0,1,.3.31l0,0a1,1,0,0,1-.43,0,1.45,1.45,0,0,1-.34-.2c-.23-.14-.46-.29-.68-.45Zm1.87,8.36a10.52,10.52,0,0,1-1.68.09,15.36,15.36,0,0,1-3.32-.38v0a18.23,18.23,0,0,0,3.3.13c.55,0,1.1-.11,1.65-.15s1.09-.1,1.65-.13v0A7.07,7.07,0,0,1,86.62,36.71ZM85,31.93a55.33,55.33,0,0,0,5.5,1.39c.93.17,1.86.31,2.79.47l1.39.25.71.13c.24.06.45.16.68.23v0c-.24,0-.47-.1-.7-.12l-.71,0-1.41-.15c-1-.12-1.87-.33-2.8-.54A46.73,46.73,0,0,1,85,32Zm-2.88.91c1,.28,1.93.59,2.91.83a41.45,41.45,0,0,0,6,1.06v0a37.08,37.08,0,0,1-6-.82,24.57,24.57,0,0,1-3-.77A22.34,22.34,0,0,1,79.18,32l0,0C80.17,32.25,81.13,32.57,82.1,32.84Zm-1.4-10A38.16,38.16,0,0,1,86,25a26.19,26.19,0,0,1,2.48,1.39,21.18,21.18,0,0,1,2.28,1.71l0,0-2.43-1.45c-.81-.47-1.61-1-2.43-1.43a43.47,43.47,0,0,0-5.13-2.39Zm-3,2.54a9.79,9.79,0,0,1,1.31.37c.42.16.82.36,1.23.55l2.45,1.15v0c-.85-.3-1.7-.61-2.54-.93a11.48,11.48,0,0,1-1.27-.49,8.61,8.61,0,0,1-1.18-.66ZM75.57,33.2c.62.17,1.23.37,1.83.56s1.21.41,1.82.58a26.4,26.4,0,0,0,3.76.78v0a22.55,22.55,0,0,1-3.82-.55,13.52,13.52,0,0,1-1.86-.52,11.2,11.2,0,0,1-1.74-.85ZM69.16,33a16.46,16.46,0,0,0,1.68,1.66c.58.52,1.17,1.05,1.79,1.53a18.61,18.61,0,0,0,2,1.33,12.72,12.72,0,0,0,2.12,1.06l0,0a16,16,0,0,1-4.22-2.2,13.28,13.28,0,0,1-1.86-1.5A7.94,7.94,0,0,1,69.13,33Z"/><path class="cls-1" d="M65.82,30.73A14.05,14.05,0,0,0,67.67,35a13.35,13.35,0,0,0,3.15,3.47,17.91,17.91,0,0,0,4,2.33,19.69,19.69,0,0,0,2.61.92,18.46,18.46,0,0,0-1.51,2.5,20.42,20.42,0,0,0-.9,2.06,21,21,0,0,0-.69,2.15A16.14,16.14,0,0,0,73.79,53,17.21,17.21,0,0,0,74,55.24a20.41,20.41,0,0,0,.49,2.21,12.25,12.25,0,0,0,2.06,4.19,10.76,10.76,0,0,0,3.64,3h0a11.81,11.81,0,0,0,4.56,1.22l.62,0a14.49,14.49,0,0,0,4-.47,13.67,13.67,0,0,0,4.27-1.93,19.45,19.45,0,0,0,5.12-5.27,19.64,19.64,0,0,0,1.92,2.21A18.41,18.41,0,0,0,102.42,62a21,21,0,0,0,1.83,1.32,15.66,15.66,0,0,0,6.38,2.38,18.62,18.62,0,0,0,2.26.22H113a12.2,12.2,0,0,0,4.47-.68,10.67,10.67,0,0,0,4-2.52h0a12.06,12.06,0,0,0,2.57-4,14.56,14.56,0,0,0,1-4.54,13.5,13.5,0,0,0-.52-4.66,18.1,18.1,0,0,0-1.86-4.23A18.46,18.46,0,0,0,121.16,43a19,19,0,0,0,2.7-1.13,21.18,21.18,0,0,0,1.93-1.15,20.09,20.09,0,0,0,1.82-1.33A15.85,15.85,0,0,0,130.7,36a15.28,15.28,0,0,0,1.15-2c.3-.61.63-1.33.91-2.08a12.29,12.29,0,0,0,.79-4.6,11,11,0,0,0-1.16-4.59h0a12.07,12.07,0,0,0-3-3.67,14.49,14.49,0,0,0-4-2.37,13.84,13.84,0,0,0-4.59-.95h-.14a17.8,17.8,0,0,0-4.45.47,18,18,0,0,0-2.66.79,20,20,0,0,0-.24-2.92,20.12,20.12,0,0,0-.49-2.19,21.46,21.46,0,0,0-.71-2.14,15.88,15.88,0,0,0-2.23-4,18.44,18.44,0,0,0-1.53-1.71,22.3,22.3,0,0,0-1.7-1.5A12.31,12.31,0,0,0,102.53.43,10.24,10.24,0,0,0,99.83,0a12.61,12.61,0,0,0-2,.13h0a12.1,12.1,0,0,0-4.4,1.69A14.39,14.39,0,0,0,89.9,4.9,13.74,13.74,0,0,0,87.57,9a18,18,0,0,0-1,4.51,18.31,18.31,0,0,0-.07,2.77,19.55,19.55,0,0,0-2.85-.66,20,20,0,0,0-2.24-.22h-.51c-.63,0-1.2,0-1.74,0a16,16,0,0,0-6.57,1.82,20.28,20.28,0,0,0-2,1.16,12.1,12.1,0,0,0-3.35,3.25A10.9,10.9,0,0,0,65.57,26h0A11.85,11.85,0,0,0,65.82,30.73Zm1.1-4.51a9.42,9.42,0,0,1,1.47-3.88,11,11,0,0,1,3-3,19.79,19.79,0,0,1,1.82-1.13,14.54,14.54,0,0,1,6.08-1.85,19.29,19.29,0,0,1,2.15-.05,17.26,17.26,0,0,1,2.15.15,18.31,18.31,0,0,1,3.77.9c0,.21,0,.41.07.62.11.68.26,1.35.43,2l-.38-.21c-.41-.25-.83-.48-1.25-.71l0,0,1.11.91a4.83,4.83,0,0,0,.58.43l.09.05q.26.9.57,1.77c0,.15.12.31.18.46l-.1-.08a8.54,8.54,0,0,0-1.18-.73,12.74,12.74,0,0,0-2.56-1v0a16.23,16.23,0,0,1,2.43,1.22c.38.25.74.52,1.11.77l.52.33c.37.89.79,1.76,1.24,2.61q-.51-.39-1.05-.75a8,8,0,0,0-1.17-.7A5.78,5.78,0,0,0,86.64,24l0,0c.38.27.77.49,1.15.72s.8.41,1.19.63.92.55,1.37.84A35.41,35.41,0,0,0,92.72,30l.25.35a14.85,14.85,0,0,1-2.49-1c-1-.5-2-1.08-2.91-1.67a25.79,25.79,0,0,0-3-1.61,22.84,22.84,0,0,0-3.18-1.16v0c1,.48,2,.94,3,1.44s2,1,3,1.54,1.95,1.12,3,1.59a14.26,14.26,0,0,0,2.62.91c.33.44.66.88,1,1.31s1,1.11,1.39,1.66l0,0-6.66-2.18c-1.2-.39-2.4-.8-3.62-1.16s-2.43-.69-3.67-1v0c1.18.47,2.38.87,3.58,1.28s2.42.73,3.64,1.09q3.39,1,6.8,2c.2.25.37.5.59.77a3.75,3.75,0,0,0,.67.65,11.73,11.73,0,0,0-1.33.08,13.69,13.69,0,0,0-1.67.33,29,29,0,0,0-3.26,1v0c1.1-.29,2.2-.54,3.31-.74.55-.09,1.11-.15,1.67-.26s.93-.19,1.4-.31h0a3.05,3.05,0,0,0,1,.49l.1,0c-1.19.24-2.35.62-3.52.88-.82.22-1.59.51-2.38.77s-1.57.52-2.36.73a31.56,31.56,0,0,1-9.81,1.2v0a29.45,29.45,0,0,0,5-.07,33.89,33.89,0,0,0,4.91-.88c.81-.2,1.6-.44,2.4-.68s1.58-.54,2.35-.77c1.31-.34,2.56-.81,3.85-1.16a2.41,2.41,0,0,0,.6,0v-.1h-.09l.42-.09v0a7.35,7.35,0,0,0-.82.11,3,3,0,0,1-1.44-.65A3.63,3.63,0,0,1,96.4,34c-.19-.27-.38-.61-.6-.9-.42-.6-.88-1.16-1.29-1.74s-.81-1.18-1.2-1.79a36.4,36.4,0,0,1-3.82-7.61,19.9,19.9,0,0,1-1.18-8.28,17.35,17.35,0,0,1,.79-4.13,12.32,12.32,0,0,1,2-3.65A11.81,11.81,0,0,1,98,1.48a9.7,9.7,0,0,1,4.15.19,11.26,11.26,0,0,1,3.75,1.9A19.19,19.19,0,0,1,107.55,5,15.23,15.23,0,0,1,109,6.5a15,15,0,0,1,2.18,3.67,20.18,20.18,0,0,1,.72,2c.2.69.38,1.38.52,2.09a18.55,18.55,0,0,1,.3,3.87c-.18.08-.37.16-.56.26-.61.31-1.21.66-1.78,1,0-.14,0-.28.08-.42.11-.47.2-.94.29-1.41h0c-.19.44-.36.89-.52,1.34a3.44,3.44,0,0,0-.24.68s0,.07,0,.11c-.51.34-1,.7-1.5,1.08l-.39.32c0-.05,0-.09,0-.13a6.88,6.88,0,0,0,.32-1.34,12.08,12.08,0,0,0,.18-2.75h0a14.33,14.33,0,0,1-.41,2.69c-.11.44-.26.86-.38,1.29,0,.2-.11.4-.16.6a28.07,28.07,0,0,0-2.09,2c.14-.41.27-.82.38-1.23a10.25,10.25,0,0,0,.31-1.33,6.27,6.27,0,0,0,0-1.37h0c-.14.44-.24.87-.34,1.31s-.14.88-.23,1.33-.23,1-.37,1.56a36.94,36.94,0,0,0-2.83,3.42l-.25.36a15,15,0,0,1,.17-2.68c.17-1.11.42-2.19.69-3.29a26.59,26.59,0,0,0,.62-3.32,22.43,22.43,0,0,0,.12-3.38h0c-.14,1.12-.25,2.23-.43,3.34s-.32,2.21-.54,3.3-.46,2.21-.59,3.33a14.34,14.34,0,0,0,0,2.78c-.32.44-.63.9-.94,1.35-.41.62-.76,1.25-1.15,1.84l0,0c0-2.33,0-4.67,0-7,0-1.26,0-2.53,0-3.8s-.09-2.53-.21-3.79h0c-.08,1.27-.09,2.53-.1,3.8s0,2.53.08,3.8c.06,2.36.14,4.72.21,7.08-.17.27-.35.51-.54.79a4.31,4.31,0,0,0-.42.83,10.65,10.65,0,0,0-.48-1.22,12.81,12.81,0,0,0-.83-1.49A29.71,29.71,0,0,0,95.77,27l0,0c.62.95,1.2,1.93,1.73,2.92.26.5.49,1,.76,1.51s.47.83.73,1.23v0a3,3,0,0,0-.14,1.11.31.31,0,0,0,0,.1c-.6-1.06-1.33-2-1.93-3.08-.47-.71-1-1.35-1.47-2s-1-1.33-1.43-2a31.54,31.54,0,0,1-4.16-9h0a30,30,0,0,0,1.6,4.71,33.09,33.09,0,0,0,2.36,4.39c.44.71.91,1.39,1.38,2.07s1,1.34,1.46,2c.72,1.14,1.57,2.18,2.29,3.3a3.49,3.49,0,0,0,.2.57l.1,0,0-.09.22.38,0,0a7.12,7.12,0,0,0-.35-.74,2.81,2.81,0,0,1,.18-1.57,3.46,3.46,0,0,1,.52-.89c.2-.27.46-.55.68-.85.44-.58.83-1.19,1.25-1.76s.87-1.14,1.33-1.69a35.4,35.4,0,0,1,6.06-6,19.81,19.81,0,0,1,7.51-3.68,16.43,16.43,0,0,1,4.17-.52,11.94,11.94,0,0,1,4.09.75,11.79,11.79,0,0,1,6.31,5.24,9.54,9.54,0,0,1,1.1,4,11.13,11.13,0,0,1-.64,4.15c-.23.67-.51,1.32-.81,2a17,17,0,0,1-1,1.87,14.75,14.75,0,0,1-2.81,3.2,19.69,19.69,0,0,1-1.7,1.31c-.6.41-1.2.79-1.83,1.14a18.63,18.63,0,0,1-3.58,1.48l-.42-.45a19.85,19.85,0,0,0-1.53-1.38l.43,0c.48,0,1-.1,1.43-.16v0l-1.44-.08a4.33,4.33,0,0,0-.72,0h-.11c-.48-.38-1-.75-1.49-1.09l-.42-.27h.13a7.87,7.87,0,0,0,1.38-.11,12.76,12.76,0,0,0,2.67-.68v0a14.51,14.51,0,0,1-2.69.44c-.45,0-.9,0-1.35,0l-.61,0c-.82-.5-1.67-1-2.54-1.38.43,0,.86,0,1.29,0a8.92,8.92,0,0,0,1.36-.12,6.18,6.18,0,0,0,1.31-.4v0a11.92,11.92,0,0,0-1.35.09c-.45,0-.89.13-1.33.18s-1.07.1-1.61.13a38.49,38.49,0,0,0-4.13-1.63l-.41-.13a15.24,15.24,0,0,1,2.6-.66,33.43,33.43,0,0,1,3.34-.36A27.19,27.19,0,0,0,117,34a23.14,23.14,0,0,0,3.25-.93v0c-1.11.22-2.2.45-3.31.63s-2.2.38-3.31.5-2.24.25-3.34.47a14.34,14.34,0,0,0-2.66.81q-.8-.26-1.59-.48c-.7-.19-1.41-.34-2.1-.52h0l6.67-2.15c1.2-.39,2.41-.76,3.61-1.19s2.38-.87,3.54-1.37v0c-1.23.32-2.44.7-3.65,1.08s-2.39.83-3.58,1.26q-3.34,1.17-6.67,2.39l-.93-.28A3.93,3.93,0,0,0,102,34a10.13,10.13,0,0,0,1-.83,13.73,13.73,0,0,0,1.16-1.25,28.43,28.43,0,0,0,2.06-2.71l0,0c-.71.88-1.45,1.73-2.24,2.54-.39.4-.81.78-1.19,1.19s-.65.71-1,1.07h0a3.12,3.12,0,0,0-1.1.21l-.09,0c.82-.9,1.53-1.89,2.32-2.79.54-.66,1-1.34,1.48-2s1-1.34,1.48-2a31.68,31.68,0,0,1,7.23-6.73l0,0a28.08,28.08,0,0,0-4,3,32.52,32.52,0,0,0-3.45,3.59c-.54.64-1,1.3-1.54,2s-1,1.37-1.46,2c-.85,1-1.58,2.17-2.43,3.2a2.84,2.84,0,0,0-.47.37l.07.08.07,0c-.1.11-.19.22-.29.32l0,0c.21-.18.4-.37.6-.57a2.84,2.84,0,0,1,1.54-.32,4.45,4.45,0,0,1,1,.22c.32.12.67.28,1,.39.7.24,1.4.42,2.07.65s1.35.47,2,.74a35.28,35.28,0,0,1,7.57,3.92,19.7,19.7,0,0,1,5.82,6A16.65,16.65,0,0,1,123,50a12,12,0,0,1,.55,4.12,11.81,11.81,0,0,1-3,7.63A9.53,9.53,0,0,1,117.07,64a11.14,11.14,0,0,1-4.14.67,19.08,19.08,0,0,1-2.13-.16,16.52,16.52,0,0,1-2.1-.39,15.23,15.23,0,0,1-3.91-1.69A17.93,17.93,0,0,1,103,61.2a18.26,18.26,0,0,1-1.65-1.38,18.7,18.7,0,0,1-2.52-3l.3-.54c.31-.61.59-1.24.84-1.88l.18.39q.28.66.6,1.32l0,0c-.12-.46-.24-.93-.37-1.39a4.22,4.22,0,0,0-.21-.69.41.41,0,0,0,0-.09c.22-.58.42-1.17.59-1.76l.12-.49a.5.5,0,0,0,0,.13,7.15,7.15,0,0,0,.52,1.28,12.18,12.18,0,0,0,1.48,2.32l0,0A14.44,14.44,0,0,1,101.7,53c-.17-.42-.29-.85-.45-1.27-.08-.19-.15-.39-.22-.58.22-.94.39-1.89.52-2.84.12.41.26.82.41,1.22a8.24,8.24,0,0,0,.54,1.26,6.08,6.08,0,0,0,.78,1.12l0,0c-.15-.44-.32-.85-.5-1.26s-.4-.8-.59-1.21-.43-1-.62-1.48a36.58,36.58,0,0,0,.27-4.43v-.44a14.92,14.92,0,0,1,1.43,2.27c.52,1,1,2,1.38,3.06a26.72,26.72,0,0,0,1.45,3.06,22.89,22.89,0,0,0,1.89,2.8l0,0c-.54-1-1.1-1.95-1.61-2.95s-1-2-1.51-3a32.59,32.59,0,0,0-1.48-3A14.47,14.47,0,0,0,101.87,43c0-.55,0-1.1,0-1.65,0-.74-.12-1.45-.15-2.16v0q2,2.85,4.1,5.68c.75,1,1.47,2.06,2.25,3.06s1.56,2,2.4,3l0,0c-.68-1.07-1.42-2.1-2.15-3.13s-1.53-2-2.3-3q-2.16-2.81-4.34-5.6c0-.32,0-.62,0-1a4.8,4.8,0,0,0-.15-.91,11.46,11.46,0,0,0,1.1.71,15.42,15.42,0,0,0,1.55.71,28.43,28.43,0,0,0,3.21,1.13v0c-1.05-.4-2.09-.85-3.1-1.34-.51-.25-1-.53-1.51-.77s-.87-.4-1.31-.58h0a3.05,3.05,0,0,0-.53-1l-.07-.07c1.11.5,2.27.87,3.37,1.35.79.31,1.58.53,2.37.78s1.58.5,2.35.8a31.62,31.62,0,0,1,8.63,4.79l0,0a29.46,29.46,0,0,0-4.06-2.87A33.75,33.75,0,0,0,109,38.6c-.77-.31-1.55-.59-2.34-.86s-1.59-.49-2.35-.76c-1.26-.5-2.55-.84-3.79-1.33a3.08,3.08,0,0,0-.5-.33l-.06.09.08.05-.4-.17,0,0q.36.21.72.39a2.83,2.83,0,0,1,.78,1.37,3.62,3.62,0,0,1,.11,1c0,.34-.05.72-.06,1.08,0,.74,0,1.46,0,2.17s0,1.43-.08,2.15a36.06,36.06,0,0,1-1.39,8.41,19.86,19.86,0,0,1-3.91,7.39,16.93,16.93,0,0,1-3.06,2.87A12.25,12.25,0,0,1,89,64a11.87,11.87,0,0,1-8.2-.53,9.63,9.63,0,0,1-3.24-2.6,11.16,11.16,0,0,1-1.92-3.74A20.17,20.17,0,0,1,75.17,55a16.83,16.83,0,0,1-.27-2.12,14.79,14.79,0,0,1,.4-4.24,18.69,18.69,0,0,1,.61-2.06,18.12,18.12,0,0,1,.8-2,19.08,19.08,0,0,1,2-3.31l.6.12a20.37,20.37,0,0,0,2,.22l-.32.29c-.36.32-.71.65-1.06,1l0,0c.41-.25.82-.51,1.21-.78a3.45,3.45,0,0,0,.59-.41l.08-.07c.62,0,1.24,0,1.85,0l.5,0-.11.07a6.93,6.93,0,0,0-1.05.9,11.87,11.87,0,0,0-1.76,2.12l0,0a14.6,14.6,0,0,1,1.91-1.94c.35-.28.72-.54,1.07-.82l.48-.38a27.86,27.86,0,0,0,2.87-.39c-.36.25-.7.5-1,.77a9.76,9.76,0,0,0-1,.9A6.76,6.76,0,0,0,84.81,44l0,0c.37-.28.71-.58,1-.87s.63-.63,1-.94.81-.7,1.22-1a36.64,36.64,0,0,0,4.3-1.11l.41-.14A14.06,14.06,0,0,1,91.06,42c-.78.8-1.63,1.53-2.49,2.26a26.91,26.91,0,0,0-2.45,2.33A21.38,21.38,0,0,0,84,49.24l0,0c.77-.82,1.51-1.65,2.3-2.45s1.56-1.6,2.39-2.35,1.66-1.52,2.43-2.35a14.4,14.4,0,0,0,1.67-2.21l1.56-.55c.69-.26,1.35-.56,2-.81h0q-2.08,2.82-4.14,5.66c-.74,1-1.5,2-2.22,3.09s-1.41,2.1-2.06,3.19l0,0c.81-1,1.56-2,2.32-3s1.45-2.08,2.16-3.13q2-2.91,4-5.85l.91-.32a5,5,0,0,0,.83-.43A11.33,11.33,0,0,0,97.94,39a16.09,16.09,0,0,0-.2,1.7,27.53,27.53,0,0,0-.07,3.4h0c.06-1.13.17-2.26.32-3.37.08-.56.2-1.11.26-1.67s.11-.95.15-1.43h0a3,3,0,0,0,.77-.81l.05-.09c-.14,1.21-.13,2.43-.24,3.62,0,.85,0,1.67,0,2.5s0,1.65,0,2.48A31.52,31.52,0,0,1,97.08,55h0a28.08,28.08,0,0,0,1.47-4.75,32.79,32.79,0,0,0,.68-4.94c.06-.83.08-1.66.09-2.49s0-1.66,0-2.47c.08-1.35,0-2.69.08-4a3,3,0,0,0,.17-.58l-.1,0,0,.09c0-.15,0-.29,0-.44h0a7.73,7.73,0,0,0-.16.81,2.76,2.76,0,0,1-1.06,1.16,3.53,3.53,0,0,1-1,.42c-.32.09-.7.17-1,.28-.7.22-1.38.48-2,.69s-1.38.41-2.07.59a35.7,35.7,0,0,1-8.43,1.28,19.76,19.76,0,0,1-8.24-1.44,16.57,16.57,0,0,1-3.67-2,12.26,12.26,0,0,1-4.9-11Z"/><path class="cls-1" d="M117.85,26a21.71,21.71,0,0,0-3,.7A26.51,26.51,0,0,0,112,27.76a37.22,37.22,0,0,0-5.35,2.88l0,0A44.13,44.13,0,0,1,112.15,28c.94-.37,1.89-.69,2.84-1s1.91-.66,2.87-1Z"/><path class="cls-1" d="M118.25,23.48c.61-.21,1.21-.41,1.82-.64v0a9.57,9.57,0,0,0-1.91.34,13.06,13.06,0,0,0-1.81.66,22.21,22.21,0,0,0-3.41,1.81v0a26.79,26.79,0,0,1,3.5-1.58C117,23.86,117.65,23.68,118.25,23.48Z"/><path class="cls-1" d="M121.54,30.55a12.05,12.05,0,0,0-1.31.35l-2.6.74v0c.89-.16,1.77-.33,2.66-.51.44-.09.89-.16,1.32-.28a9,9,0,0,0,1.28-.47v0A8.58,8.58,0,0,0,121.54,30.55Z"/><path class="cls-1" d="M114.67,32.17a1.37,1.37,0,0,0-.4,0,.88.88,0,0,0-.36.23v0a.9.9,0,0,0,.42.08,1.27,1.27,0,0,0,.38-.11l.76-.28v0Q115.07,32.14,114.67,32.17Z"/><path class="cls-1" d="M116.42,35.27c-.93.12-1.87.18-2.81.27l-2.82.26v0a19.37,19.37,0,0,0,2.85,0,26.47,26.47,0,0,0,2.82-.34A37,37,0,0,0,122,34.22v0A44,44,0,0,1,116.42,35.27Z"/><path class="cls-1" d="M107.82,31.27a25.12,25.12,0,0,0-2.58,1.2c-.41.23-.83.46-1.23.71l-.6.38c-.19.12-.42.2-.63.32v0c.23-.07.46-.12.69-.21l.65-.3,1.27-.63c.85-.41,1.68-.85,2.54-1.25a54.25,54.25,0,0,1,5.25-2.11v0A44.93,44.93,0,0,0,107.82,31.27Z"/><path class="cls-1" d="M118.35,18.8a20.67,20.67,0,0,1,2.36-.07c.79,0,1.57.11,2.35.19a18.45,18.45,0,0,1,2.33.35v0a8.23,8.23,0,0,0-2.3-.67,13.63,13.63,0,0,0-2.39-.11,15.88,15.88,0,0,0-4.7.7v0A14,14,0,0,1,118.35,18.8Z"/><path class="cls-1" d="M109,33.5c-.44.09-.89.17-1.32.3a8.48,8.48,0,0,0-1.27.48v0a7.56,7.56,0,0,0,1.35-.18,11.94,11.94,0,0,0,1.3-.36c.87-.25,1.73-.51,2.59-.78v0Z"/><path class="cls-1" d="M109.06,26.5a7.36,7.36,0,0,0-1,1.31l0,0c.44-.35.85-.72,1.27-1.07s.81-.74,1.24-1.09a18.83,18.83,0,0,1,2.75-1.84v0a15.23,15.23,0,0,0-2.91,1.65A9.42,9.42,0,0,0,109.06,26.5Z"/><path class="cls-1" d="M110.5,44.87a38,38,0,0,0-4.39-4.21l0,0a41.26,41.26,0,0,1,4.21,4.36c.65.77,1.25,1.59,1.87,2.38S113.37,49,114,49.85l0,0a20.31,20.31,0,0,0-1.59-2.6A23.08,23.08,0,0,0,110.5,44.87Z"/><path class="cls-1" d="M115.58,47.73a21.93,21.93,0,0,0-2.77-2.68l0,0a26.66,26.66,0,0,1,2.58,2.84c.39.5.74,1,1.12,1.54s.76,1,1.17,1.53l0,0a10.39,10.39,0,0,0-.91-1.71A13.35,13.35,0,0,0,115.58,47.73Z"/><path class="cls-1" d="M110.05,53.63c-.5-.76-1-1.5-1.51-2.25l0,0c.42.8.86,1.59,1.3,2.37.22.39.42.8.68,1.17a7.75,7.75,0,0,0,.84,1.07l0,0a8.06,8.06,0,0,0-.57-1.23A12.1,12.1,0,0,0,110.05,53.63Z"/><path class="cls-1" d="M107,48.36a.91.91,0,0,0-.33-.27l0,0a.81.81,0,0,0,.06.42,1.52,1.52,0,0,0,.22.34c.16.21.33.43.5.63h0c-.08-.26-.18-.51-.28-.76A1.76,1.76,0,0,0,107,48.36Z"/><path class="cls-1" d="M103.59,48.77l-1.12-2.61h0a21.49,21.49,0,0,0,.83,2.73,27.42,27.42,0,0,0,1.2,2.58,37.35,37.35,0,0,0,3,4.84l0,0a41.92,41.92,0,0,1-2.75-4.94C104.31,50.5,104,49.63,103.59,48.77Z"/><path class="cls-1" d="M103.92,39.85c-.35-.32-.7-.64-1.06-1l-.54-.45c-.18-.15-.32-.34-.5-.5l0,0c.14.19.26.4.41.59l.5.52,1,1c.65.68,1.33,1.33,2,2a55.75,55.75,0,0,1,3.63,4.35l0,0a45.69,45.69,0,0,0-3.46-4.51A27.42,27.42,0,0,0,103.92,39.85Z"/><path class="cls-1" d="M121.76,50.32c.22.76.39,1.53.56,2.29a20.2,20.2,0,0,1,.38,2.33h0a8.34,8.34,0,0,0-.08-2.39,14.08,14.08,0,0,0-.63-2.31A15.86,15.86,0,0,0,119.91,46l0,0A13.47,13.47,0,0,1,121,48.1,19.53,19.53,0,0,1,121.76,50.32Z"/><path class="cls-1" d="M103.4,42.56a8.58,8.58,0,0,0-.85-1.06l0,0a8.58,8.58,0,0,0,.59,1.22,12.29,12.29,0,0,0,.75,1.13l1.54,2.22,0,0c-.43-.79-.88-1.57-1.34-2.35C103.87,43.33,103.66,42.93,103.4,42.56Z"/><path class="cls-1" d="M112,42.79a18.9,18.9,0,0,1,2.6,2.05l0,0a14.74,14.74,0,0,0-2.47-2.26,9.33,9.33,0,0,0-1.4-.91,6.79,6.79,0,0,0-1.57-.6l0,0c.47.3,1,.58,1.42.87S111.56,42.49,112,42.79Z"/><path class="cls-1" d="M92.11,51.26a26.69,26.69,0,0,0,1.65-2.57,37.27,37.27,0,0,0,2.63-5.48h0a42.75,42.75,0,0,1-2.84,5.35c-.54.85-1.13,1.67-1.69,2.5s-1.16,1.66-1.73,2.5l0,0A22.88,22.88,0,0,0,92.11,51.26Z"/><path class="cls-1" d="M91.25,55.8c-.37.53-.74,1-1.1,1.58l0,0A10.5,10.5,0,0,0,91.53,56,13.63,13.63,0,0,0,92.6,54.4a21.34,21.34,0,0,0,1.7-3.46h0a28,28,0,0,1-1.9,3.33C92,54.78,91.61,55.28,91.25,55.8Z"/><path class="cls-1" d="M85.08,50.78c-.31.33-.63.65-.91,1a8.92,8.92,0,0,0-.76,1.13l0,0a8.71,8.71,0,0,0,1-.93,12.65,12.65,0,0,0,.86-1c.56-.7,1.11-1.41,1.66-2.13l0,0C86.3,49.46,85.68,50.12,85.08,50.78Z"/><path class="cls-1" d="M89,46.66a1.24,1.24,0,0,0,.29-.27.85.85,0,0,0,.16-.4l0,0a.8.8,0,0,0-.38.19,1.48,1.48,0,0,0-.25.31c-.16.22-.31.44-.45.67l0,0C88.62,47,88.83,46.84,89,46.66Z"/><path class="cls-1" d="M85.79,45.19c.69-.65,1.42-1.25,2.12-1.87L90,41.45l0,0a19.84,19.84,0,0,0-2.33,1.63A25.53,25.53,0,0,0,85.6,45a37.81,37.81,0,0,0-3.69,4.31l0,0A41.93,41.93,0,0,1,85.79,45.19Z"/><path class="cls-1" d="M97.65,38.29h0a6.53,6.53,0,0,0-.43.57c-.12.21-.23.42-.34.63l-.67,1.25c-.44.83-.86,1.68-1.31,2.5-.92,1.65-1.93,3.25-3,4.8l0,0a45.74,45.74,0,0,0,3.23-4.68,26.26,26.26,0,0,0,1.38-2.49c.2-.43.4-.86.58-1.3.08-.22.17-.45.26-.66S97.55,38.51,97.65,38.29Z"/><path class="cls-1" d="M93.92,59.64a21.73,21.73,0,0,1-1.87,1.45c-.65.44-1.34.83-2,1.23A19.64,19.64,0,0,1,88,63.4v0a8,8,0,0,0,2.25-.82,14.64,14.64,0,0,0,2-1.31A15.75,15.75,0,0,0,95.6,58l0,0A12.56,12.56,0,0,1,93.92,59.64Z"/><path class="cls-1" d="M92.87,42.24c.3-.33.62-.66.89-1a8,8,0,0,0,.74-1.14l0,0a9.8,9.8,0,0,0-1,.94c-.3.33-.56.7-.84,1.06-.55.71-1.09,1.43-1.63,2.16l0,0C91.66,43.58,92.27,42.91,92.87,42.24Z"/><path class="cls-1" d="M97,46.27c-.15.55-.27,1.08-.39,1.62S96.34,49,96.2,49.5a17.53,17.53,0,0,1-1.15,3.1l0,0a15.46,15.46,0,0,0,1.39-3A10.22,10.22,0,0,0,96.91,48,7.89,7.89,0,0,0,97,46.28Z"/><path class="cls-1" d="M79.18,32A22.34,22.34,0,0,0,82,33.17a24.57,24.57,0,0,0,3,.77,37.08,37.08,0,0,0,6,.82v0a41.45,41.45,0,0,1-6-1.06c-1-.24-1.94-.55-2.91-.83s-1.93-.59-2.9-.88Z"/><path class="cls-1" d="M79.15,34.61a22.55,22.55,0,0,0,3.82.55v0a26.4,26.4,0,0,1-3.76-.78c-.61-.17-1.21-.4-1.82-.58s-1.21-.39-1.83-.56l0,0a11.2,11.2,0,0,0,1.74.85A13.52,13.52,0,0,0,79.15,34.61Z"/><path class="cls-1" d="M80.17,26.59c.84.32,1.69.63,2.54.93v0l-2.45-1.15c-.41-.19-.81-.39-1.23-.55a9.79,9.79,0,0,0-1.31-.37v0a8.61,8.61,0,0,0,1.18.66A11.48,11.48,0,0,0,80.17,26.59Z"/><path class="cls-1" d="M85.76,29a1,1,0,0,0,.43,0l0,0a1,1,0,0,0-.3-.31,1.22,1.22,0,0,0-.38-.13c-.25-.09-.51-.16-.78-.23v0c.22.16.45.31.68.45A1.45,1.45,0,0,0,85.76,29Z"/><path class="cls-1" d="M88.25,26.72l2.43,1.45,0,0a21.18,21.18,0,0,0-2.28-1.71A26.19,26.19,0,0,0,86,25a38.16,38.16,0,0,0-5.25-2.17v0a43.47,43.47,0,0,1,5.13,2.39C86.64,25.75,87.44,26.25,88.25,26.72Z"/><path class="cls-1" d="M93.22,34.13l1.41.15.71,0c.23,0,.46.09.7.12v0c-.23-.07-.44-.17-.68-.23L94.66,34l-1.39-.25c-.93-.16-1.86-.3-2.79-.47A55.33,55.33,0,0,1,85,31.93v0a46.73,46.73,0,0,0,5.45,1.62C91.35,33.8,92.27,34,93.22,34.13Z"/><path class="cls-1" d="M72.46,36.37a16,16,0,0,0,4.22,2.2l0,0a12.72,12.72,0,0,1-2.12-1.06,18.61,18.61,0,0,1-2-1.33c-.62-.48-1.21-1-1.79-1.53A16.46,16.46,0,0,1,69.16,33l0,0a7.94,7.94,0,0,0,1.47,1.89A13.28,13.28,0,0,0,72.46,36.37Z"/><path class="cls-1" d="M92.05,31.64a9.36,9.36,0,0,0,1.31.36v0a9.09,9.09,0,0,0-1.19-.64c-.41-.19-.85-.32-1.27-.47-.85-.31-1.7-.61-2.56-.89v0q1.23.57,2.46,1.11C91.22,31.29,91.62,31.49,92.05,31.64Z"/><path class="cls-1" d="M86.58,36.37c-.55,0-1.1.12-1.65.15a18.23,18.23,0,0,1-3.3-.13v0a15.36,15.36,0,0,0,3.32.38,10.52,10.52,0,0,0,1.68-.09,7.07,7.07,0,0,0,1.62-.44v0C87.67,36.27,87.12,36.33,86.58,36.37Z"/><path class="cls-1" d="M97.33,27h0a41.87,41.87,0,0,1-.85-6c-.06-1-.07-2-.1-3s0-2-.07-3h0a22,22,0,0,0-.25,3A25.87,25.87,0,0,0,96.25,21,37.87,37.87,0,0,0,97.33,27Z"/><path class="cls-1" d="M94.48,19.51h0a27.24,27.24,0,0,1-.42-3.81c0-.64,0-1.28,0-1.91s0-1.28,0-1.92h0a9.65,9.65,0,0,0-.27,1.92,12.59,12.59,0,0,0,.07,1.94A22.39,22.39,0,0,0,94.48,19.51Z"/><path class="cls-1" d="M102,14.21c0-.45.13-.89.14-1.34a8.84,8.84,0,0,0-.05-1.36h0a8.68,8.68,0,0,0-.26,1.33c-.06.45-.06.9-.08,1.35q-.06,1.35-.09,2.7h0C101.83,16,101.94,15.11,102,14.21Z"/><path class="cls-1" d="M101.28,20.68h0a.93.93,0,0,0,.2-.38,1.34,1.34,0,0,0,0-.4c0-.27,0-.54,0-.81h0q-.12.39-.21.78a1.35,1.35,0,0,0-.08.4A.91.91,0,0,0,101.28,20.68Z"/><path class="cls-1" d="M103.54,24.69a19.42,19.42,0,0,0,.93-2.69,23.72,23.72,0,0,0,.55-2.79,38.34,38.34,0,0,0,.45-5.66h0a42.12,42.12,0,0,1-.68,5.61c-.18.93-.41,1.84-.61,2.76l-.63,2.76Z"/><path class="cls-1" d="M98.62,28.93c.1.47.19.93.3,1.4.06.22.13.46.18.68s.06.46.1.7h0c0-.24,0-.47,0-.72s-.06-.47-.09-.71l-.2-1.4c-.13-.94-.29-1.87-.4-2.8a53.63,53.63,0,0,1-.39-5.66h0a45.1,45.1,0,0,0,.14,5.69C98.36,27.05,98.45,28,98.62,28.93Z"/><path class="cls-1" d="M91.24,7.8A18.09,18.09,0,0,1,92.3,5.69l0,0a8.12,8.12,0,0,0-1.34,2,14.12,14.12,0,0,0-.85,2.24,15.63,15.63,0,0,0-.78,4.69h0a13.22,13.22,0,0,1,.35-2.34A19.51,19.51,0,0,1,90.34,10C90.61,9.23,90.93,8.52,91.24,7.8Z"/><path class="cls-1" d="M100.74,28.41a8.75,8.75,0,0,0,.24-1.34c0-.45,0-.9,0-1.35q0-1.35.06-2.7h0c-.11.9-.21,1.8-.3,2.69-.05.45-.12.9-.13,1.35a10.42,10.42,0,0,0,.07,1.36Z"/><path class="cls-1" d="M94.13,23.45a7.27,7.27,0,0,0,.92,1.41l0,0c-.2-.52-.42-1-.63-1.53s-.46-1-.66-1.52a18.29,18.29,0,0,1-.89-3.18h0a15.82,15.82,0,0,0,.67,3.27A9.59,9.59,0,0,0,94.13,23.45Z"/></svg>