<svg id="Capa_1" data-name="Capa 1" xmlns="http://www.w3.org/2000/svg" viewBox="0 0 200 193.57"><defs><style>.cls-1{fill:#c63663;}</style></defs><path class="cls-1" d="M79.9,123.5c.8-1,1.56-2.14,2.46-3.11a26.07,26.07,0,0,1,2.89-2.76l.08.07A25,25,0,0,1,83.14,121c-.79,1.06-1.72,2-2.61,3-1.77,2-3.55,3.93-5.36,5.87l-.07-.07Q77.47,126.65,79.9,123.5Zm-11.22,13a3.68,3.68,0,0,1,.72-.93,2.71,2.71,0,0,1,1.14-.56l.07.07a2.71,2.71,0,0,1-.46,1.18,4.12,4.12,0,0,1-.87.79c-.6.51-1.22,1-1.86,1.48l-.07-.06C67.77,137.75,68.22,137.09,68.68,136.46Zm-20.31,8.31a108.79,108.79,0,0,1,10.82-12.68,73.33,73.33,0,0,1,6.13-5.69,59.1,59.1,0,0,1,6.85-4.78l.06.08L66,127.18c-2.06,1.83-4.19,3.6-6.21,5.49a127.58,127.58,0,0,0-11.31,12.16Zm9.9,4.87c-.82,1-1.59,2.12-2.5,3.08a27,27,0,0,1-2.93,2.72l-.08-.07A27,27,0,0,1,55,152.06c.81-1.05,1.76-2,2.66-2.95q2.68-2.93,5.43-5.79l.07.06C61.55,145.49,59.92,147.57,58.27,149.64Zm19.2.26c1.67-2.44,3.39-4.85,5-7.36a124.21,124.21,0,0,0,8.35-15.71l.1,0A110.73,110.73,0,0,1,83.14,143a78.47,78.47,0,0,1-4.84,7.54,61.67,61.67,0,0,1-5.83,6.78l-.08-.06C74.08,154.75,75.83,152.37,77.47,149.9Zm7.26-.33a63.83,63.83,0,0,1-5,10.17,39.33,39.33,0,0,1-3.16,4.73,29.87,29.87,0,0,1-4,4.08l-.08-.06c1-1.59,2.14-3.1,3.22-4.64s2.23-3,3.28-4.54a76.67,76.67,0,0,0,5.58-9.78ZM78.6,180a41.59,41.59,0,0,1-5.88,3.85,23.64,23.64,0,0,1-6.62,2.39l0-.1A53.34,53.34,0,0,0,72.23,183c2-1.17,4-2.32,5.89-3.62a57.74,57.74,0,0,0,5.49-4.24,38.61,38.61,0,0,0,4.87-5l.08.06A46.24,46.24,0,0,1,78.6,180Zm13.79-39.21a29.12,29.12,0,0,1-1.29,4.76A45.84,45.84,0,0,1,87,154.5l-.09-.05a53.73,53.73,0,0,0,3.37-9.12c.41-1.56.69-3.15,1.07-4.72s.71-3.15,1.14-4.74h.11A22.6,22.6,0,0,1,92.39,140.81ZM91.18,120c-1.2,2.52-2.63,4.92-4.07,7.31a133.93,133.93,0,0,1-9.47,13.74l-.08-.06a158.3,158.3,0,0,0,8.84-14.09c1.34-2.43,2.56-4.92,3.87-7.36l2-3.67c.33-.62.63-1.22,1-1.85s.85-1.12,1.28-1.67l.08,0c-.29.64-.7,1.22-1,1.84s-.51,1.29-.77,1.93C92.34,117.5,91.75,118.77,91.18,120Zm26.16,15.29q-2.31-3.24-4.54-6.52c-.75-1.09-1.55-2.15-2.2-3.31a26,26,0,0,1-1.73-3.6l.09-.05a25.41,25.41,0,0,1,2.5,3.11c.76,1.08,1.37,2.26,2,3.41q2,3.44,3.93,6.91Zm5.78,10c-.52-.61-1-1.23-1.46-1.87a4.06,4.06,0,0,1-.67-1,2.64,2.64,0,0,1-.17-1.25l.09,0a2.68,2.68,0,0,1,1,.8,4,4,0,0,1,.49,1.07c.3.73.58,1.47.83,2.22Zm.16,20a109.76,109.76,0,0,1-8.71-14.22,70.32,70.32,0,0,1-3.51-7.58,57.09,57.09,0,0,1-2.44-8l.1,0,3.28,7.64c1.1,2.53,2.13,5.1,3.3,7.6a125.57,125.57,0,0,0,8.07,14.52ZM159.92,135a46.28,46.28,0,0,1,6.23,12.5,41.7,41.7,0,0,1,1.85,6.78,24,24,0,0,1,.23,7h-.11a53.73,53.73,0,0,0-1.12-6.83c-.51-2.24-1-4.5-1.63-6.72a57.59,57.59,0,0,0-2.33-6.53,37.53,37.53,0,0,0-3.21-6.16Zm-31.41-14.49a22,22,0,0,1,4.61,1.76,28.67,28.67,0,0,1,4.13,2.69,45.57,45.57,0,0,1,7.24,6.63l-.08.07a53.22,53.22,0,0,0-7.63-6c-1.36-.88-2.78-1.63-4.16-2.47s-2.77-1.66-4.15-2.56Zm.24,15.93a158.9,158.9,0,0,0-10.67-12.77c-1.89-2-3.88-4-5.8-5.94l-2.89-3c-.48-.5-1-1-1.45-1.52s-.8-1.16-1.2-1.73l.08-.07c.52.48.94,1,1.45,1.48s1.07.88,1.6,1.33c1.07.89,2.09,1.84,3.12,2.78,2,1.92,3.87,4,5.7,6.13a131.21,131.21,0,0,1,10.14,13.25Zm6,28a26.34,26.34,0,0,1-2.46-3.14c-.74-1.09-1.34-2.28-2-3.44q-2-3.45-3.83-6.95l.08-.06q2.26,3.27,4.45,6.59c.73,1.1,1.52,2.16,2.15,3.33a25.37,25.37,0,0,1,1.68,3.62Zm7.83-18.1c-1.83-2.36-3.55-4.76-5.39-7.09s-3.57-4.72-5.46-7a126.48,126.48,0,0,0-12.36-12.79l.06-.08a110.65,110.65,0,0,1,12.91,12.34,75.43,75.43,0,0,1,5.67,6.93,62.58,62.58,0,0,1,4.66,7.64Zm10.77,3.33c-1.19-1.49-2.29-3-3.42-4.49s-2.16-3-3.31-4.53a77.42,77.42,0,0,0-7.57-8.33l.07-.07a63.69,63.69,0,0,1,8.13,7.88,38.76,38.76,0,0,1,3.52,4.46,30.59,30.59,0,0,1,2.66,5ZM128,99.15c-1.27.38-2.52.81-3.82,1.07a26,26,0,0,1-4,.54l0-.1a24.85,24.85,0,0,1,3.73-1.42c1.27-.39,2.58-.61,3.87-.88,2.59-.56,5.18-1.1,7.78-1.6l0,.1C133.09,97.65,130.56,98.41,128,99.15Zm16.69-3.88a4.07,4.07,0,0,1-1.13.33,2.81,2.81,0,0,1-1.24-.22l0-.1a2.7,2.7,0,0,1,1.06-.68,3.83,3.83,0,0,1,1.17-.13c.79-.07,1.58-.1,2.38-.11l0,.1C146.2,94.75,145.45,95,144.7,95.27Zm-19.93-2.72c-2.51,1.18-5,2.47-7.45,3.68l-3.74,1.83c-.63.3-1.23.61-1.89.9s-1.35.41-2,.61l0-.1c.61-.34,1.28-.57,1.85-.93s1.17-.74,1.76-1.1c1.18-.75,2.4-1.42,3.61-2.11,2.45-1.34,5-2.44,7.59-3.53a133.61,133.61,0,0,1,15.74-5.55l0,.1A157.36,157.36,0,0,0,124.77,92.55Zm20.72-13.33c-2.78,1-5.59,1.94-8.34,3a124.36,124.36,0,0,0-16,7.81l0-.09a110.08,110.08,0,0,1,15.72-8.47,80.4,80.4,0,0,1,8.34-3.25,63.35,63.35,0,0,1,8.71-2.06l0,.1C151.09,77.29,148.27,78.19,145.49,79.22Zm-6.06-4a64.24,64.24,0,0,1,10-5.3,40,40,0,0,1,5.33-2,29.45,29.45,0,0,1,5.6-1l0,.09c-1.78.68-3.56,1.25-5.32,1.86s-3.57,1.12-5.33,1.75a76.72,76.72,0,0,0-10.26,4.63Zm10.38,29.16a74.59,74.59,0,0,1-8.3,1,59.7,59.7,0,0,1-8.35-.16v-.1l8.28-.76c2.75-.27,5.51-.45,8.25-.79a124.17,124.17,0,0,0,16.3-3.19l0,.1A109.33,109.33,0,0,1,149.81,104.38ZM165,90.69c-1.27.37-2.58.57-3.88.82q-3.9.8-7.8,1.5l0-.1q3.81-1.14,7.64-2.19c1.27-.36,2.53-.78,3.83-1a25.94,25.94,0,0,1,4-.48l0,.1A26,26,0,0,1,165,90.69Zm-2.66-36.5a42.3,42.3,0,0,1,7,.35,23.67,23.67,0,0,1,6.75,2l0,.09a53.43,53.43,0,0,0-6.85-1c-2.29-.22-4.59-.47-6.9-.54a57.3,57.3,0,0,0-6.93.2,38.9,38.9,0,0,0-6.85,1.15l0-.1A46.8,46.8,0,0,1,162.29,54.19ZM140.5,70a54.51,54.51,0,0,0-8.09,5.4c-1.25,1-2.41,2.14-3.63,3.19s-2.44,2.13-3.72,3.16l-.08-.06a22.09,22.09,0,0,1,3.1-3.84,27.86,27.86,0,0,1,3.84-3.1,45.32,45.32,0,0,1,8.54-4.84Zm-25.09-13.7a126.7,126.7,0,0,0,2-16.49h.1a109.12,109.12,0,0,1-1.31,16.63,69.31,69.31,0,0,1-1.61,8.19,57.55,57.55,0,0,1-2.72,7.9l-.1,0,1.83-8.11C114.21,61.66,114.89,59,115.41,56.27Zm-8.76-14.61c0-1.32,0-2.65.21-4a26.88,26.88,0,0,1,.77-3.92h.1a25.45,25.45,0,0,1,.15,4c0,1.32-.26,2.63-.42,3.95-.3,2.63-.63,5.25-1,7.88h-.1C106.44,47,106.53,44.31,106.65,41.66Zm-1.49,16.69c.19-.76.39-1.53.63-2.29h.1c.06.8.08,1.59.08,2.38a3.89,3.89,0,0,1,0,1.18,2.76,2.76,0,0,1-.6,1.11h-.1a2.72,2.72,0,0,1-.31-1.22A3.92,3.92,0,0,1,105.16,58.35Zm-1.83,21.07c0-1.32.22-2.64.37-4q.39-4,.88-7.9h.1q0,4-.17,7.94c0,1.33,0,2.65-.16,4a25.58,25.58,0,0,1-.72,3.93h-.1A26.74,26.74,0,0,1,103.33,79.42ZM96,60h.1a158.84,158.84,0,0,0,1.13,16.61c.34,2.75.82,5.48,1.2,8.22L99,88.91c.09.69.2,1.36.27,2.08s0,1.41,0,2.11h-.11c-.13-.69-.15-1.39-.31-2s-.34-1.34-.51-2c-.34-1.35-.6-2.72-.88-4.09a79.67,79.67,0,0,1-1-8.3A132.86,132.86,0,0,1,96,60Zm-6.06-7.21a63.36,63.36,0,0,1,.72-8.92h.1c.09,3,.08,6,.2,8.91s.11,5.92.3,8.88a126.28,126.28,0,0,0,2.48,17.61l-.1,0a111,111,0,0,1-3.19-17.57A76.14,76.14,0,0,1,89.94,52.75ZM83.11,40.44a29.61,29.61,0,0,1,.8-5.63H84c.09,1.89.09,3.77.12,5.64s0,3.73,0,5.61a75.27,75.27,0,0,0,1.23,11.18l-.1,0a63.58,63.58,0,0,1-2-11.16A39.77,39.77,0,0,1,83.11,40.44ZM80.62,54.63A53.71,53.71,0,0,0,83.25,64c.58,1.51,1.3,3,1.91,4.44S86.43,71.4,87,73l-.09,0a21.77,21.77,0,0,1-2.69-4.14,28.14,28.14,0,0,1-1.76-4.6,45.52,45.52,0,0,1-2-9.62ZM70.14,42.81H70A46.29,46.29,0,0,1,72.35,29a41.07,41.07,0,0,1,2.49-6.57,23.69,23.69,0,0,1,3.94-5.82l.08.07a52.59,52.59,0,0,0-3.1,6.19c-.91,2.11-1.86,4.21-2.64,6.39a57.47,57.47,0,0,0-2,6.65A38,38,0,0,0,70.14,42.81ZM67.27,88c2.51.84,5,1.72,7.5,2.61C76,91,77.29,91.4,78.5,92A25.92,25.92,0,0,1,82,93.85l0,.09a25.79,25.79,0,0,1-3.86-1c-1.25-.43-2.44-1-3.65-1.57q-3.63-1.6-7.24-3.28ZM56.71,83.25q1.15.28,2.28.66a4,4,0,0,1,1.11.39,2.63,2.63,0,0,1,.87.91l0,.09a2.63,2.63,0,0,1-1.26-.07,4.32,4.32,0,0,1-1-.58c-.68-.41-1.34-.85-2-1.31Zm5.47,24.54a28,28,0,0,1-4.93.25,44.91,44.91,0,0,1-9.75-1.1l0-.1a54.46,54.46,0,0,0,9.71.39c1.62-.09,3.22-.32,4.83-.45s3.21-.29,4.86-.37l0,.1A21.35,21.35,0,0,1,62.18,107.79Zm-4.8-14a158.07,158.07,0,0,0,16.14,4.06c2.72.52,5.46.91,8.19,1.4l4.09.72c.69.13,1.36.23,2.07.38s1.33.47,2,.7l0,.1c-.69-.08-1.37-.29-2-.34s-1.38-.09-2.07-.14c-1.39-.09-2.78-.26-4.17-.41-2.76-.36-5.49-1-8.2-1.61a134.26,134.26,0,0,1-16-4.76Zm-8.46,2.66c2.84.83,5.66,1.73,8.53,2.46A125,125,0,0,0,75,102v.1a111.23,111.23,0,0,1-17.7-2.39,78.17,78.17,0,0,1-8.66-2.27A62.87,62.87,0,0,1,40.35,94l0-.1C43.25,94.69,46.07,95.62,48.92,96.42ZM44.81,67.15a110.52,110.52,0,0,1,15.4,6.38,72.27,72.27,0,0,1,7.3,4.07,59.42,59.42,0,0,1,6.67,5l-.06.09L67,78.47c-2.38-1.41-4.72-2.88-7.14-4.22a126.33,126.33,0,0,0-15.06-7Zm-8.73,7.46a26,26,0,0,1,3.84,1.1c1.25.44,2.42,1.06,3.62,1.61Q47.16,79,50.73,80.7l0,.09Q47,79.47,43.23,78.08c-1.24-.46-2.5-.86-3.7-1.43a25.56,25.56,0,0,1-3.49-2ZM29.73,97.49c1.83.5,3.61,1.08,5.4,1.63s3.54,1.2,5.34,1.72a77.37,77.37,0,0,0,11,2.28v.1a64.55,64.55,0,0,1-11.21-1.59,40.07,40.07,0,0,1-5.47-1.55,30.93,30.93,0,0,1-5.11-2.49Zm-18.82-.7a53.81,53.81,0,0,0,4.93,4.86c1.72,1.53,3.44,3.08,5.26,4.49a58.48,58.48,0,0,0,5.73,3.91,37.58,37.58,0,0,0,6.22,3.1l0,.1a46.59,46.59,0,0,1-12.39-6.45,42.92,42.92,0,0,1-5.48-4.4,23.65,23.65,0,0,1-4.31-5.55Z"/><path class="cls-1" d="M1.11,90.24a42.07,42.07,0,0,0,5.42,12.54A40,40,0,0,0,15.8,113a53.36,53.36,0,0,0,11.7,6.81,53.36,53.36,0,0,0,7.68,2.71,55.54,55.54,0,0,0-4.45,7.35,57.81,57.81,0,0,0-2.63,6.06,62.74,62.74,0,0,0-2,6.29,47.55,47.55,0,0,0-1.55,13.3,48.85,48.85,0,0,0,.69,6.7,64,64,0,0,0,1.44,6.51A35.93,35.93,0,0,0,32.71,181a32,32,0,0,0,10.68,8.87h0a35.18,35.18,0,0,0,13.39,3.57c.58,0,1.19.07,1.8.09a42.19,42.19,0,0,0,11.8-1.37A39.69,39.69,0,0,0,83,186.52a53.07,53.07,0,0,0,10.1-9A53.89,53.89,0,0,0,98,171a57,57,0,0,0,5.61,6.5,61.49,61.49,0,0,0,5,4.37,62.16,62.16,0,0,0,5.35,3.87,47.4,47.4,0,0,0,12.17,5.59,49.7,49.7,0,0,0,6.58,1.41,59.89,59.89,0,0,0,6.64.64l.42,0a35.91,35.91,0,0,0,13.15-2A32,32,0,0,0,164.64,184v0h0a35.07,35.07,0,0,0,7.53-11.63,41.83,41.83,0,0,0,3-13.34,39.75,39.75,0,0,0-1.51-13.68,53.61,53.61,0,0,0-5.46-12.4,55,55,0,0,0-4.62-6.7,57,57,0,0,0,7.92-3.33,59.4,59.4,0,0,0,5.69-3.36,63.62,63.62,0,0,0,5.34-3.9,47.37,47.37,0,0,0,9.07-9.85A47.86,47.86,0,0,0,195,100a64,64,0,0,0,2.67-6.11A36,36,0,0,0,200,80.38a32,32,0,0,0-3.42-13.46v0a35.21,35.21,0,0,0-8.73-10.76,42,42,0,0,0-11.76-7,39.86,39.86,0,0,0-13.48-2.79h-.42a53.92,53.92,0,0,0-13.06,1.37,55.38,55.38,0,0,0-7.8,2.33,57.13,57.13,0,0,0-.72-8.56,58.63,58.63,0,0,0-1.44-6.45,62.9,62.9,0,0,0-2.06-6.29,47.51,47.51,0,0,0-6.56-11.67,48.28,48.28,0,0,0-4.49-5,65.93,65.93,0,0,0-5-4.42A36.17,36.17,0,0,0,108.9,1.27,30,30,0,0,0,101,0,35,35,0,0,0,95,.37H95a35,35,0,0,0-12.92,5,41.94,41.94,0,0,0-10.26,9,39.84,39.84,0,0,0-6.82,12,53.21,53.21,0,0,0-2.87,13.24,55.17,55.17,0,0,0-.2,8.14,55.24,55.24,0,0,0-8.36-2A58.4,58.4,0,0,0,47,45.14l-1.51,0c-1.84-.05-3.5,0-5.1.07a45.83,45.83,0,0,0-19.28,5.36,62.13,62.13,0,0,0-5.75,3.38,36,36,0,0,0-9.83,9.56A32.13,32.13,0,0,0,.37,76.35v.05A35,35,0,0,0,1.11,90.24ZM4.35,77A27.89,27.89,0,0,1,8.66,65.58a32.55,32.55,0,0,1,8.69-8.74,58.9,58.9,0,0,1,5.34-3.31,45.58,45.58,0,0,1,5.65-2.68A44.71,44.71,0,0,1,40.55,48.1a60.36,60.36,0,0,1,6.31-.16,57.64,57.64,0,0,1,6.3.44A55.7,55.7,0,0,1,64.24,51c.07.61.12,1.21.21,1.81.32,2,.75,4,1.25,5.92-.36-.22-.74-.41-1.1-.63-1.21-.72-2.44-1.41-3.68-2.09l-.06.09c1.08.91,2.17,1.81,3.28,2.67a12.21,12.21,0,0,0,1.68,1.28l.28.14c.49,1.75,1,3.48,1.65,5.19.17.46.36.91.54,1.37l-.3-.26a21.19,21.19,0,0,0-3.47-2.12,34.77,34.77,0,0,0-7.5-3l0,.09a44,44,0,0,1,7.13,3.58c1.12.72,2.16,1.53,3.27,2.25l1.51,1C70,71,71.22,73.5,72.56,76c-1-.77-2-1.5-3.08-2.19A25.44,25.44,0,0,0,66,71.74a17.43,17.43,0,0,0-3.8-1.31l0,.09c1.1.79,2.23,1.45,3.37,2.12s2.33,1.21,3.48,1.85c1.37.77,2.71,1.6,4,2.47a109.25,109.25,0,0,0,7,11l.76,1a42,42,0,0,1-7.32-2.91c-2.94-1.45-5.75-3.16-8.55-4.9a77.41,77.41,0,0,0-8.73-4.74A64.48,64.48,0,0,0,46.92,73l0,.09c3,1.41,6,2.74,8.92,4.23s5.89,2.89,8.74,4.52,5.74,3.28,8.76,4.65A42.82,42.82,0,0,0,81,89.2C82,90.49,83,91.78,84,93.05c1.35,1.68,2.78,3.25,4.09,4.88l0,.06q-9.78-3.24-19.56-6.41C65,90.43,61.47,89.22,57.9,88.19s-7.15-2-10.79-2.87l0,.1c3.47,1.38,7,2.55,10.52,3.74s7.12,2.16,10.68,3.2q10,3,20,5.84c.58.72,1.1,1.46,1.73,2.24a12.41,12.41,0,0,0,2,1.93,31.32,31.32,0,0,0-3.88.21,41,41,0,0,0-4.91,1,83.7,83.7,0,0,0-9.58,2.86l0,.1q4.81-1.29,9.71-2.16c1.63-.29,3.28-.47,4.9-.78,1.37-.27,2.74-.56,4.12-.9l0,0a8.72,8.72,0,0,0,3,1.42l.28.06c-3.5.71-6.9,1.84-10.34,2.6-2.42.64-4.67,1.48-7,2.25s-4.61,1.52-6.94,2.16a93,93,0,0,1-28.79,3.5v.1a86.85,86.85,0,0,0,14.6-.22A96.6,96.6,0,0,0,71.58,112c2.37-.58,4.71-1.27,7-2s4.63-1.58,6.91-2.24c3.84-1,7.51-2.4,11.29-3.4a8.69,8.69,0,0,0,1.77-.06l0-.31a2.43,2.43,0,0,1-.27,0l1.24-.27v-.1c-.81.06-1.61.17-2.4.3A8.21,8.21,0,0,1,92.91,102a11.43,11.43,0,0,1-2-2.26c-.56-.82-1.12-1.8-1.74-2.67-1.24-1.76-2.58-3.41-3.79-5.1S83,88.52,81.84,86.75A104.78,104.78,0,0,1,70.63,64.38a58.13,58.13,0,0,1-3.47-24.31A48.88,48.88,0,0,1,69.48,28a34.93,34.93,0,0,1,5.81-10.73c5.08-6.42,12.3-11.4,20.38-12.89a28,28,0,0,1,12.18.58,32.56,32.56,0,0,1,11,5.56,59,59,0,0,1,4.79,4,45.21,45.21,0,0,1,4.3,4.56,44.92,44.92,0,0,1,6.39,10.76,61.7,61.7,0,0,1,2.1,5.95A59,59,0,0,1,138,41.93a55.33,55.33,0,0,1,.9,11.35c-.55.26-1.11.49-1.65.77-1.8.91-3.55,1.93-5.25,3,.1-.41.17-.83.26-1.24.31-1.38.59-2.76.85-4.15l-.1,0c-.54,1.31-1.05,2.63-1.53,4a13.06,13.06,0,0,0-.7,2c0,.11,0,.21-.05.32-1.51,1-3,2.05-4.42,3.16-.38.31-.75.63-1.14.94.05-.12.11-.24.15-.37a19.85,19.85,0,0,0,1-3.94,35.22,35.22,0,0,0,.51-8.06h-.1a42.73,42.73,0,0,1-1.2,7.89c-.33,1.28-.78,2.53-1.12,3.8-.16.58-.32,1.16-.47,1.74-2.16,1.85-4.2,3.81-6.15,5.85.42-1.19.8-2.39,1.13-3.61a25.13,25.13,0,0,0,.89-3.91,18.62,18.62,0,0,0,.08-4h-.1c-.41,1.29-.7,2.58-1,3.86s-.43,2.6-.68,3.89c-.31,1.54-.69,3.07-1.1,4.59a107.45,107.45,0,0,0-8.29,10.06c-.25.34-.49.69-.74,1a43.08,43.08,0,0,1,.5-7.86c.48-3.25,1.23-6.45,2-9.65a77.23,77.23,0,0,0,1.81-9.76,65.77,65.77,0,0,0,.35-9.92h-.1c-.41,3.28-.75,6.54-1.26,9.79s-.94,6.49-1.6,9.71-1.34,6.47-1.72,9.76a42,42,0,0,0-.16,8.16c-.94,1.31-1.86,2.65-2.76,4-1.18,1.8-2.23,3.64-3.38,5.39a.21.21,0,0,1,0,.06q.06-10.29.05-20.58c0-3.72.06-7.44-.05-11.15s-.27-7.44-.62-11.15h-.1c-.24,3.72-.26,7.44-.3,11.16s.15,7.44.25,11.15q.27,10.41.62,20.8c-.5.78-1,1.5-1.6,2.33a13.2,13.2,0,0,0-1.23,2.43,32.48,32.48,0,0,0-1.39-3.59,39,39,0,0,0-2.46-4.36,84.53,84.53,0,0,0-5.68-8.22l-.08.06q2.72,4.19,5,8.56c.78,1.47,1.46,3,2.26,4.42.68,1.22,1.37,2.44,2.12,3.64,0,0,0,0,0,0A9.11,9.11,0,0,0,98,99.28c0,.1,0,.19,0,.29-1.76-3.11-3.89-6-5.67-9-1.36-2.09-2.86-4-4.3-5.94s-2.87-3.91-4.2-5.93a92.73,92.73,0,0,1-12.22-26.3l-.1,0a87,87,0,0,0,4.72,13.82A96.72,96.72,0,0,0,83.14,79.1c1.29,2.08,2.67,4.1,4.07,6.09s2.94,3.91,4.27,5.88c2.13,3.34,4.6,6.39,6.72,9.68a8.77,8.77,0,0,0,.61,1.67l.28-.12L99,102c.22.37.44.73.65,1.1l.09,0c-.31-.75-.67-1.48-1-2.19a8.21,8.21,0,0,1,.52-4.6,11.32,11.32,0,0,1,1.52-2.63c.61-.78,1.37-1.61,2-2.47,1.29-1.72,2.43-3.51,3.68-5.18s2.55-3.35,3.89-5a105,105,0,0,1,17.81-17.58,58.19,58.19,0,0,1,22.05-10.81,48.91,48.91,0,0,1,12.23-1.53,35.17,35.17,0,0,1,12,2.2c7.67,2.86,14.63,8.18,18.54,15.4a27.8,27.8,0,0,1,3.22,11.77,32.37,32.37,0,0,1-1.89,12.18,59,59,0,0,1-2.37,5.81,45.59,45.59,0,0,1-3,5.49,44.64,44.64,0,0,1-8.27,9.41,62.48,62.48,0,0,1-5,3.84,60.63,60.63,0,0,1-5.36,3.34A55.6,55.6,0,0,1,159.78,125c-.41-.45-.81-.91-1.24-1.34-1.43-1.43-2.93-2.77-4.48-4l1.26-.15c1.4-.12,2.8-.28,4.2-.47v-.1q-2.11-.16-4.23-.24a12.4,12.4,0,0,0-2.11,0l-.31,0c-1.43-1.12-2.88-2.2-4.38-3.22l-1.24-.79.39,0a21.15,21.15,0,0,0,4.05-.32,35.5,35.5,0,0,0,7.82-2l0-.1a42.37,42.37,0,0,1-7.87,1.29c-1.33.08-2.65,0-4,.11l-1.8.09c-2.42-1.48-4.92-2.81-7.46-4,1.26,0,2.52,0,3.78,0a24.26,24.26,0,0,0,4-.36,17.62,17.62,0,0,0,3.85-1.17l0-.1c-1.36,0-2.67.14-4,.27s-2.6.39-3.91.55c-1.55.18-3.12.29-4.7.37a107.45,107.45,0,0,0-12.13-4.77c-.4-.14-.81-.26-1.22-.39a42.16,42.16,0,0,1,7.64-1.94c3.23-.56,6.51-.83,9.8-1.07a77.47,77.47,0,0,0,9.84-1.29A65.41,65.41,0,0,0,160.86,97l0-.09c-3.25.62-6.46,1.31-9.7,1.82s-6.46,1.12-9.73,1.49-6.57.72-9.82,1.38a42.5,42.5,0,0,0-7.8,2.36q-2.31-.72-4.65-1.39c-2.08-.57-4.15-1-6.17-1.54l-.07,0q9.8-3.14,19.58-6.32c3.54-1.15,7.1-2.24,10.6-3.5s7-2.55,10.41-4l0-.1c-3.62.92-7.16,2-10.71,3.16s-7,2.44-10.53,3.69q-9.81,3.47-19.58,7c-.9-.24-1.75-.53-2.72-.8a12.88,12.88,0,0,0-2.69-.42,31.58,31.58,0,0,0,3-2.43,39.3,39.3,0,0,0,3.39-3.68,83,83,0,0,0,6.06-7.95l-.08-.06Q116.44,89.43,113,93c-1.15,1.18-2.38,2.3-3.51,3.51-1,1-1.89,2-2.79,3.14h0a8.79,8.79,0,0,0-3.25.6l-.26.12c2.41-2.63,4.51-5.55,6.84-8.19,1.58-1.93,2.91-3.94,4.33-5.92s2.83-3.93,4.34-5.83A92.71,92.71,0,0,1,139.87,60.7l-.05-.08a87.32,87.32,0,0,0-11.69,8.76A97.22,97.22,0,0,0,118,79.94c-1.57,1.86-3.06,3.79-4.52,5.75s-2.82,4-4.28,5.87c-2.51,3.06-4.66,6.36-7.13,9.39a8.33,8.33,0,0,0-1.4,1.09l.2.23.22-.16c-.28.32-.56.65-.85,1l.07.07c.62-.52,1.2-1.08,1.77-1.66a8.23,8.23,0,0,1,4.53-.93,11.67,11.67,0,0,1,3,.64c.93.34,2,.8,3,1.14,2,.7,4.1,1.23,6.07,1.9s4,1.4,5.93,2.17a104.43,104.43,0,0,1,22.22,11.5,58.26,58.26,0,0,1,17.09,17.63,48.93,48.93,0,0,1,5.24,11.16,35.21,35.21,0,0,1,1.61,12.1c-.34,8.18-3.25,16.45-8.91,22.4a28,28,0,0,1-10.2,6.7,32.53,32.53,0,0,1-12.17,2,57.66,57.66,0,0,1-6.26-.46,42.7,42.7,0,0,1-17.64-6.11,61.35,61.35,0,0,1-5.2-3.57,57.23,57.23,0,0,1-4.84-4.07,55.08,55.08,0,0,1-7.4-8.65c.29-.53.61-1.05.88-1.59.92-1.8,1.74-3.65,2.48-5.52.16.39.35.77.52,1.15.55,1.3,1.14,2.58,1.75,3.86l.09,0c-.33-1.37-.69-2.74-1.07-4.09a13.85,13.85,0,0,0-.61-2l-.15-.29c.63-1.7,1.21-3.42,1.71-5.15.14-.48.25-1,.37-1.43,0,.13.07.25.1.38a21.57,21.57,0,0,0,1.55,3.76,36,36,0,0,0,4.32,6.81l.09-.06a42.4,42.4,0,0,1-3.66-7.08c-.49-1.24-.86-2.51-1.33-3.74-.22-.56-.43-1.12-.65-1.69.66-2.76,1.16-5.55,1.54-8.35.36,1.21.76,2.41,1.21,3.59a26,26,0,0,0,1.57,3.69,18.17,18.17,0,0,0,2.3,3.29l.09-.05c-.43-1.28-1-2.49-1.48-3.7s-1.17-2.35-1.73-3.54c-.65-1.43-1.25-2.89-1.81-4.36a109.08,109.08,0,0,0,.8-13c0-.43,0-.85,0-1.28a42.44,42.44,0,0,1,4.21,6.66c1.53,2.91,2.8,5.94,4,9a75.78,75.78,0,0,0,4.27,9,65.44,65.44,0,0,0,5.54,8.23l.09-.06c-1.6-2.89-3.24-5.73-4.74-8.66s-3.06-5.8-4.42-8.79-2.71-6-4.34-8.91a43.12,43.12,0,0,0-4.66-6.7c0-1.61-.06-3.23-.12-4.84-.1-2.16-.33-4.26-.43-6.35a.22.22,0,0,1,0-.08q6,8.37,12.06,16.68c2.19,3,4.32,6.06,6.6,9s4.59,5.86,7,8.66l.08-.06c-2-3.15-4.16-6.17-6.31-9.21s-4.49-5.92-6.76-8.87q-6.33-8.25-12.73-16.46c0-.92,0-1.82-.08-2.83a12.37,12.37,0,0,0-.43-2.69,32.5,32.5,0,0,0,3.24,2.09,41.59,41.59,0,0,0,4.55,2.09,83.61,83.61,0,0,0,9.43,3.3l0-.09c-3.1-1.19-6.15-2.51-9.12-4-1.49-.73-2.93-1.55-4.43-2.25-1.26-.58-2.54-1.16-3.85-1.69,0,0,0,0,0,0a9,9,0,0,0-1.57-2.9c-.07-.08-.14-.14-.2-.22,3.24,1.49,6.67,2.57,9.9,4,2.32.9,4.65,1.54,7,2.28s4.62,1.48,6.89,2.34A92.77,92.77,0,0,1,153,128.2l.07-.07a85.57,85.57,0,0,0-11.94-8.41A96.79,96.79,0,0,0,128,113.35c-2.27-.92-4.57-1.75-6.88-2.53s-4.67-1.44-6.9-2.25c-3.69-1.45-7.49-2.47-11.14-3.88a8.58,8.58,0,0,0-1.46-1l-.16.27.22.16-1.17-.51,0,.08c.69.43,1.4.81,2.12,1.17a8.27,8.27,0,0,1,2.29,4,11.43,11.43,0,0,1,.31,3c0,1-.16,2.11-.17,3.17,0,2.16.09,4.28.07,6.36s-.1,4.21-.23,6.31a104.55,104.55,0,0,1-4.08,24.69,58.26,58.26,0,0,1-11.48,21.7,48.77,48.77,0,0,1-9,8.43,35.42,35.42,0,0,1-11,5.28c-7.89,2.2-16.65,2-24.06-1.56a27.89,27.89,0,0,1-9.52-7.63,32.52,32.52,0,0,1-5.63-11,61.7,61.7,0,0,1-1.5-6.1,43.06,43.06,0,0,1,.36-18.67,58.3,58.3,0,0,1,1.8-6.05A56.08,56.08,0,0,1,33.1,131,54.32,54.32,0,0,1,39,121.31c.59.12,1.19.25,1.78.35q3,.47,6,.64c-.32.28-.62.58-.94.86q-1.59,1.4-3.12,2.85l.06.08c1.2-.74,2.39-1.5,3.56-2.29a12.13,12.13,0,0,0,1.73-1.2c.08-.07.15-.15.22-.22,1.82.07,3.63.09,5.44,0,.5,0,1-.06,1.48-.09l-.34.21a21,21,0,0,0-3.09,2.64,35.56,35.56,0,0,0-5.15,6.21l.08.06a43.57,43.57,0,0,1,5.61-5.67c1-.84,2.12-1.59,3.15-2.42l1.4-1.13a84.69,84.69,0,0,0,8.42-1.12c-1,.72-2.06,1.47-3,2.26a26.11,26.11,0,0,0-3,2.63,18.18,18.18,0,0,0-2.43,3.21l.08.07c1.09-.81,2.07-1.68,3.06-2.55s1.88-1.84,2.84-2.74c1.15-1.07,2.36-2.08,3.58-3.07A106.22,106.22,0,0,0,79,117.64c.41-.12.81-.27,1.21-.4a42.25,42.25,0,0,1-5,6.06c-2.29,2.35-4.78,4.49-7.3,6.62a77.53,77.53,0,0,0-7.2,6.84,64.86,64.86,0,0,0-6.11,7.81l.08.07c2.26-2.42,4.45-4.86,6.77-7.19s4.57-4.7,7-6.92,4.89-4.44,7.13-6.88a43.26,43.26,0,0,0,4.93-6.5q2.3-.78,4.57-1.61c2-.76,4-1.63,5.9-2.38l.08,0q-6.1,8.28-12.14,16.62c-2.19,3-4.42,6-6.51,9.05s-4.16,6.18-6.06,9.38l.08.06c2.38-2.87,4.59-5.86,6.81-8.85s4.25-6.1,6.35-9.17q5.9-8.56,11.72-17.19c.86-.33,1.72-.59,2.67-1a12.57,12.57,0,0,0,2.42-1.24,32.33,32.33,0,0,0-1,3.72,39.55,39.55,0,0,0-.58,5,81.23,81.23,0,0,0-.23,10h.1q.25-5,.94-9.9c.24-1.64.57-3.26.77-4.9.17-1.39.32-2.78.42-4.19l0,0a8.75,8.75,0,0,0,2.27-2.39l.14-.25c-.4,3.54-.38,7.13-.72,10.64-.14,2.49,0,4.9,0,7.33s0,4.85-.09,7.27a92.43,92.43,0,0,1-5.57,28.46l.1,0a87,87,0,0,0,4.31-14,96.9,96.9,0,0,0,2-14.49c.18-2.44.25-4.88.28-7.32s-.07-4.89,0-7.26c.23-4,0-7.88.25-11.79a8.56,8.56,0,0,0,.49-1.71L100,105a2.41,2.41,0,0,1-.08.25c0-.42.07-.85.12-1.27l-.1,0c-.19.79-.33,1.59-.45,2.38a8.13,8.13,0,0,1-3.12,3.42A11,11,0,0,1,93.61,111c-1,.27-2,.5-3.07.82-2.06.64-4,1.41-6,2s-4,1.21-6.08,1.73a104.36,104.36,0,0,1-24.73,3.76,58.33,58.33,0,0,1-24.19-4.22,48.43,48.43,0,0,1-10.8-6,35.21,35.21,0,0,1-8.42-8.84C5.77,93.53,3.27,85.13,4.35,77Z"/><path class="cls-1" d="M153.88,76.19a63.35,63.35,0,0,0-8.71,2.06,80.4,80.4,0,0,0-8.34,3.25A110.08,110.08,0,0,0,121.11,90l0,.09a124.36,124.36,0,0,1,16-7.81c2.75-1.09,5.56-2,8.34-3s5.6-1.93,8.41-2.93Z"/><path class="cls-1" d="M155.07,68.93c1.76-.61,3.54-1.18,5.32-1.86l0-.09a29.45,29.45,0,0,0-5.6,1,40,40,0,0,0-5.33,2,64.24,64.24,0,0,0-10,5.3l0,.09a76.72,76.72,0,0,1,10.26-4.63C151.5,70.05,153.3,69.54,155.07,68.93Z"/><path class="cls-1" d="M164.71,89.7c-1.3.24-2.56.66-3.83,1q-3.82,1.05-7.64,2.19l0,.1q3.9-.7,7.8-1.5c1.3-.25,2.61-.45,3.88-.82a26,26,0,0,0,3.75-1.37l0-.1A25.94,25.94,0,0,0,164.71,89.7Z"/><path class="cls-1" d="M144.54,94.47a3.83,3.83,0,0,0-1.17.13,2.7,2.7,0,0,0-1.06.68l0,.1a2.81,2.81,0,0,0,1.24.22,4.07,4.07,0,0,0,1.13-.33c.75-.25,1.5-.52,2.24-.81l0-.1C146.12,94.37,145.33,94.4,144.54,94.47Z"/><path class="cls-1" d="M149.69,103.57c-2.74.34-5.5.52-8.25.79l-8.28.76v.1a59.7,59.7,0,0,0,8.35.16,74.59,74.59,0,0,0,8.3-1,109.33,109.33,0,0,0,16.21-3.9l0-.1A124.17,124.17,0,0,1,149.69,103.57Z"/><path class="cls-1" d="M124.44,91.8c-2.57,1.09-5.14,2.19-7.59,3.53-1.21.69-2.43,1.36-3.61,2.11-.59.36-1.18.76-1.76,1.1s-1.24.59-1.85.93l0,.1c.67-.2,1.34-.34,2-.61s1.26-.6,1.89-.9l3.74-1.83c2.49-1.21,4.94-2.5,7.45-3.68a157.36,157.36,0,0,1,15.44-6.2l0-.1A133.61,133.61,0,0,0,124.44,91.8Z"/><path class="cls-1" d="M155.35,55.21a57.3,57.3,0,0,1,6.93-.2c2.31.07,4.61.32,6.9.54a53.43,53.43,0,0,1,6.85,1l0-.09a23.67,23.67,0,0,0-6.75-2,42.3,42.3,0,0,0-7-.35,46.8,46.8,0,0,0-13.82,2.07l0,.1A38.9,38.9,0,0,1,155.35,55.21Z"/><path class="cls-1" d="M127.81,98.36c-1.29.27-2.6.49-3.87.88a24.85,24.85,0,0,0-3.73,1.42l0,.1a26,26,0,0,0,4-.54c1.3-.26,2.55-.69,3.82-1.07,2.55-.74,5.08-1.5,7.61-2.29l0-.1C133,97.26,130.4,97.8,127.81,98.36Z"/><path class="cls-1" d="M128.08,77.82a22.09,22.09,0,0,0-3.1,3.84l.08.06c1.28-1,2.49-2.11,3.72-3.16s2.38-2.17,3.63-3.19A54.51,54.51,0,0,1,140.5,70l0-.09a45.32,45.32,0,0,0-8.54,4.84A27.86,27.86,0,0,0,128.08,77.82Z"/><path class="cls-1" d="M132.31,131.74A110.65,110.65,0,0,0,119.4,119.4l-.06.08a126.48,126.48,0,0,1,12.36,12.79c1.89,2.28,3.65,4.66,5.46,7s3.56,4.73,5.39,7.09l.09-.05a62.58,62.58,0,0,0-4.66-7.64A75.43,75.43,0,0,0,132.31,131.74Z"/><path class="cls-1" d="M147.22,140.15a63.69,63.69,0,0,0-8.13-7.88l-.07.07a77.42,77.42,0,0,1,7.57,8.33c1.15,1.48,2.19,3,3.31,4.53s2.23,3,3.42,4.49l.08-.05a30.59,30.59,0,0,0-2.66-5A38.76,38.76,0,0,0,147.22,140.15Z"/><path class="cls-1" d="M131,157.46q-2.19-3.32-4.45-6.59l-.08.06q1.87,3.49,3.83,6.95c.64,1.16,1.24,2.35,2,3.44a26.34,26.34,0,0,0,2.46,3.14l.09-.05a25.37,25.37,0,0,0-1.68-3.62C132.5,159.62,131.71,158.56,131,157.46Z"/><path class="cls-1" d="M121.88,142a2.68,2.68,0,0,0-1-.8l-.09,0a2.64,2.64,0,0,0,.17,1.25,4.06,4.06,0,0,0,.67,1c.46.64.94,1.26,1.46,1.87l.08,0c-.25-.75-.53-1.49-.83-2.22A4,4,0,0,0,121.88,142Z"/><path class="cls-1" d="M112,143.19l-3.28-7.64-.1,0a57.09,57.09,0,0,0,2.44,8,70.32,70.32,0,0,0,3.51,7.58,109.76,109.76,0,0,0,8.71,14.22l.09-.06a125.57,125.57,0,0,1-8.07-14.52C114.13,148.29,113.1,145.72,112,143.19Z"/><path class="cls-1" d="M113,117c-1-.94-2-1.89-3.12-2.78-.53-.45-1.09-.89-1.6-1.33s-.93-1-1.45-1.48l-.08.07c.4.57.74,1.17,1.2,1.73s1,1,1.45,1.52l2.89,3c1.92,2,3.91,3.92,5.8,5.94a158.9,158.9,0,0,1,10.67,12.77l.08-.06a131.21,131.21,0,0,0-10.14-13.25C116.86,121,115,118.93,113,117Z"/><path class="cls-1" d="M165.37,147.76c.65,2.22,1.12,4.48,1.63,6.72a53.73,53.73,0,0,1,1.12,6.83h.11a24,24,0,0,0-.23-7,41.7,41.7,0,0,0-1.85-6.78,46.28,46.28,0,0,0-6.23-12.5l-.09.06a37.53,37.53,0,0,1,3.21,6.16A57.59,57.59,0,0,1,165.37,147.76Z"/><path class="cls-1" d="M111.46,125a25.41,25.41,0,0,0-2.5-3.11l-.09.05a26,26,0,0,0,1.73,3.6c.65,1.16,1.45,2.22,2.2,3.31q2.24,3.28,4.54,6.52l.08-.05q-1.92-3.48-3.93-6.91C112.83,127.22,112.22,126,111.46,125Z"/><path class="cls-1" d="M136.78,125.64a53.22,53.22,0,0,1,7.63,6l.08-.07a45.57,45.57,0,0,0-7.24-6.63,28.67,28.67,0,0,0-4.13-2.69,22,22,0,0,0-4.61-1.76l0,.09c1.38.9,2.77,1.71,4.15,2.56S135.42,124.76,136.78,125.64Z"/><path class="cls-1" d="M78.3,150.5A78.47,78.47,0,0,0,83.14,143a110.73,110.73,0,0,0,7.75-16.09l-.1,0a124.21,124.21,0,0,1-8.35,15.71c-1.58,2.51-3.3,4.92-5,7.36s-3.39,4.85-5.08,7.32l.08.06A61.67,61.67,0,0,0,78.3,150.5Z"/><path class="cls-1" d="M75.78,163.85c-1.08,1.54-2.18,3.05-3.22,4.64l.08.06a29.87,29.87,0,0,0,4-4.08,39.33,39.33,0,0,0,3.16-4.73,63.83,63.83,0,0,0,5-10.17l-.09,0a76.67,76.67,0,0,1-5.58,9.78C78,160.85,76.85,162.32,75.78,163.85Z"/><path class="cls-1" d="M57.65,149.11c-.9,1-1.85,1.9-2.66,2.95a27,27,0,0,0-2.23,3.31l.08.07a27,27,0,0,0,2.93-2.72c.91-1,1.68-2,2.5-3.08,1.65-2.07,3.28-4.15,4.88-6.26l-.07-.06Q60.34,146.19,57.65,149.11Z"/><path class="cls-1" d="M69.28,137a4.12,4.12,0,0,0,.87-.79,2.71,2.71,0,0,0,.46-1.18l-.07-.07a2.71,2.71,0,0,0-1.14.56,3.68,3.68,0,0,0-.72.93c-.46.63-.91,1.29-1.33,2l.07.06C68.06,138,68.68,137.52,69.28,137Z"/><path class="cls-1" d="M59.76,132.67c2-1.89,4.15-3.66,6.21-5.49l6.26-5.48-.06-.08a59.1,59.1,0,0,0-6.85,4.78,73.33,73.33,0,0,0-6.13,5.69,108.79,108.79,0,0,0-10.82,12.68l.08.06A127.58,127.58,0,0,1,59.76,132.67Z"/><path class="cls-1" d="M94.58,112.44l-.08,0c-.43.55-.89,1.06-1.28,1.67s-.67,1.23-1,1.85l-2,3.67c-1.31,2.44-2.53,4.93-3.87,7.36A158.3,158.3,0,0,1,77.56,141l.08.06a133.93,133.93,0,0,0,9.47-13.74C88.55,125,90,122.56,91.18,120c.57-1.27,1.16-2.54,1.68-3.83.26-.64.51-1.31.77-1.93S94.29,113.08,94.58,112.44Z"/><path class="cls-1" d="M83.61,175.12a57.74,57.74,0,0,1-5.49,4.24c-1.91,1.3-3.91,2.45-5.89,3.62a53.34,53.34,0,0,1-6.15,3.18l0,.1a23.64,23.64,0,0,0,6.62-2.39A41.59,41.59,0,0,0,78.6,180a46.24,46.24,0,0,0,10-9.79l-.08-.06A38.61,38.61,0,0,1,83.61,175.12Z"/><path class="cls-1" d="M80.53,124c.89-1,1.82-1.93,2.61-3a25,25,0,0,0,2.19-3.34l-.08-.07a26.07,26.07,0,0,0-2.89,2.76c-.9,1-1.66,2.06-2.46,3.11q-2.43,3.15-4.8,6.33l.07.07C77,128,78.76,126,80.53,124Z"/><path class="cls-1" d="M92.53,135.87c-.43,1.59-.77,3.17-1.14,4.74s-.66,3.16-1.07,4.72A53.73,53.73,0,0,1,87,154.45l.09.05a45.84,45.84,0,0,0,4.06-8.93,29.12,29.12,0,0,0,1.29-4.76,22.6,22.6,0,0,0,.25-4.93Z"/><path class="cls-1" d="M40.35,94a62.87,62.87,0,0,0,8.26,3.45,78.17,78.17,0,0,0,8.66,2.27A111.23,111.23,0,0,0,75,102.06V102a125,125,0,0,1-17.52-3.08c-2.87-.73-5.69-1.63-8.53-2.46s-5.67-1.73-8.53-2.57Z"/><path class="cls-1" d="M40.26,101.63a64.55,64.55,0,0,0,11.21,1.59v-.1a77.37,77.37,0,0,1-11-2.28c-1.8-.52-3.56-1.17-5.34-1.72s-3.57-1.13-5.4-1.63l-.05.1a30.93,30.93,0,0,0,5.11,2.49A40.07,40.07,0,0,0,40.26,101.63Z"/><path class="cls-1" d="M43.23,78.08q3.72,1.4,7.47,2.71l0-.09Q47.16,79,43.54,77.32c-1.2-.55-2.37-1.17-3.62-1.61a26,26,0,0,0-3.84-1.1l0,.09a25.56,25.56,0,0,0,3.49,2C40.73,77.22,42,77.62,43.23,78.08Z"/><path class="cls-1" d="M59.67,85.23a2.63,2.63,0,0,0,1.26.07l0-.09a2.63,2.63,0,0,0-.87-.91A4,4,0,0,0,59,83.91q-1.12-.37-2.28-.66l-.05.09c.65.46,1.31.9,2,1.31A4.32,4.32,0,0,0,59.67,85.23Z"/><path class="cls-1" d="M67,78.47l7.15,4.25.06-.09a59.42,59.42,0,0,0-6.67-5,72.27,72.27,0,0,0-7.3-4.07,110.52,110.52,0,0,0-15.4-6.38l0,.1a126.33,126.33,0,0,1,15.06,7C62.25,75.59,64.59,77.06,67,78.47Z"/><path class="cls-1" d="M81.55,100.23c1.39.15,2.78.32,4.17.41.69,0,1.4.08,2.07.14s1.35.26,2,.34l0-.1c-.66-.23-1.29-.51-2-.7s-1.38-.25-2.07-.38l-4.09-.72c-2.73-.49-5.47-.88-8.19-1.4a158.07,158.07,0,0,1-16.14-4.06l0,.1a134.26,134.26,0,0,0,16,4.76C76.06,99.25,78.79,99.87,81.55,100.23Z"/><path class="cls-1" d="M20.62,106.8A46.59,46.59,0,0,0,33,113.25l0-.1a37.58,37.58,0,0,1-6.22-3.1,58.48,58.48,0,0,1-5.73-3.91c-1.82-1.41-3.54-3-5.26-4.49a53.81,53.81,0,0,1-4.93-4.86l-.08.06a23.65,23.65,0,0,0,4.31,5.55A42.92,42.92,0,0,0,20.62,106.8Z"/><path class="cls-1" d="M78.12,92.9a25.79,25.79,0,0,0,3.86,1l0-.09A25.92,25.92,0,0,0,78.5,92C77.29,91.4,76,91,74.77,90.57c-2.49-.89-5-1.77-7.5-2.61l0,.09q3.61,1.68,7.24,3.28C75.68,91.87,76.87,92.47,78.12,92.9Z"/><path class="cls-1" d="M62.06,106.78c-1.61.13-3.21.36-4.83.45a54.46,54.46,0,0,1-9.71-.39l0,.1a44.91,44.91,0,0,0,9.75,1.1,28,28,0,0,0,4.93-.25,21.35,21.35,0,0,0,4.76-1.28l0-.1C65.27,106.49,63.67,106.66,62.06,106.78Z"/><path class="cls-1" d="M93.64,79.25l.1,0a126.28,126.28,0,0,1-2.48-17.61c-.19-3-.21-5.92-.3-8.88s-.11-5.92-.2-8.91h-.1a63.36,63.36,0,0,0-.72,8.92,76.14,76.14,0,0,0,.51,8.93A111,111,0,0,0,93.64,79.25Z"/><path class="cls-1" d="M85.28,57.27l.1,0a75.27,75.27,0,0,1-1.23-11.18c-.06-1.88,0-3.75,0-5.61s0-3.75-.12-5.64h-.1a29.61,29.61,0,0,0-.8,5.63,39.77,39.77,0,0,0,.22,5.67A63.58,63.58,0,0,0,85.28,57.27Z"/><path class="cls-1" d="M107.46,41.73c.16-1.32.38-2.63.42-3.95a25.45,25.45,0,0,0-.15-4h-.1a26.88,26.88,0,0,0-.77,3.92c-.17,1.31-.16,2.64-.21,4-.12,2.65-.21,5.29-.28,7.94h.1C106.83,47,107.16,44.36,107.46,41.73Z"/><path class="cls-1" d="M105.24,60.73h.1a2.76,2.76,0,0,0,.6-1.11,3.89,3.89,0,0,0,0-1.18c0-.79,0-1.58-.08-2.38h-.1c-.24.76-.44,1.53-.63,2.29a3.92,3.92,0,0,0-.23,1.16A2.72,2.72,0,0,0,105.24,60.73Z"/><path class="cls-1" d="M111.88,72.5a57.55,57.55,0,0,0,2.72-7.9,69.31,69.31,0,0,0,1.61-8.19,109.12,109.12,0,0,0,1.31-16.63h-.1a126.7,126.7,0,0,1-2,16.49c-.52,2.71-1.2,5.39-1.8,8.09l-1.83,8.11Z"/><path class="cls-1" d="M97.43,85c.28,1.37.54,2.74.88,4.09.17.67.37,1.36.51,2s.18,1.36.31,2h.11c0-.7.09-1.39,0-2.11S99.1,89.6,99,88.91l-.58-4.12c-.38-2.74-.86-5.47-1.2-8.22A158.84,158.84,0,0,1,96.1,60H96a132.86,132.86,0,0,0,.42,16.69A79.67,79.67,0,0,0,97.43,85Z"/><path class="cls-1" d="M75.76,22.9a52.59,52.59,0,0,1,3.1-6.19l-.08-.07a23.69,23.69,0,0,0-3.94,5.82A41.07,41.07,0,0,0,72.35,29,46.29,46.29,0,0,0,70,42.81h.1a38,38,0,0,1,1-6.87,57.47,57.47,0,0,1,2-6.65C73.9,27.11,74.85,25,75.76,22.9Z"/><path class="cls-1" d="M103.63,83.42a25.58,25.58,0,0,0,.72-3.93c.15-1.32.13-2.64.16-4q.12-4,.17-7.94h-.1q-.49,3.95-.88,7.9c-.15,1.31-.35,2.63-.37,4a26.74,26.74,0,0,0,.2,4Z"/><path class="cls-1" d="M84.24,68.86A21.77,21.77,0,0,0,86.93,73L87,73c-.59-1.55-1.24-3-1.86-4.52S83.83,65.5,83.25,64a53.71,53.71,0,0,1-2.63-9.36h-.1a45.52,45.52,0,0,0,2,9.62A28.14,28.14,0,0,0,84.24,68.86Z"/></svg>