<?xml version="1.0" encoding="utf-8"?>
<!-- Generator: Adobe Illustrator 24.3.0, SVG Export Plug-In . SVG Version: 6.00 Build 0)  -->
<svg version="1.1" id="Capa_1" xmlns="http://www.w3.org/2000/svg" xmlns:xlink="http://www.w3.org/1999/xlink" x="0px" y="0px"
	 viewBox="0 0 400 133.4" style="enable-background:new 0 0 400 133.4;" xml:space="preserve">
<style type="text/css">
	.st0{fill:#FFFFFF;}
</style>
<g>
	<g>
		<path class="st0" d="M65.8,33.4c0,9.8-3.3,18-9.7,24.4c-6.4,6.4-14.3,9.7-23.4,9.7c-9.2,0-17.1-3.2-23.3-9.5
			C3.2,51.8,0,43.5,0,33.5C0,23.3,3.7,14.9,10.9,8.4C17.2,2.8,24.8,0,33.6,0c8.7,0,16.3,3.2,22.7,9.5C62.6,15.9,65.8,23.9,65.8,33.4
			z M56,34.7c0-11.6-2.4-20.4-7.2-26.2c-3.9-4.6-9.3-7-16.2-7c-6.5,0-11.7,2.3-15.6,7c-4.8,5.6-7.2,14-7.2,24.8
			c0,11.1,2.5,19.8,7.5,25.8c3.9,4.7,9,7,15.4,7c6.7,0,12.4-2.6,16.8-7.7C53.8,53.4,56,45.4,56,34.7z"/>
		<path class="st0" d="M91.3,66.7h-21v-0.7h0.1c1.7,0,3-0.4,3.9-1.3c1.4-1.3,2-3.7,2-7.3V10c0-3.6-0.6-5.9-2-7.3
			c-0.9-0.9-2.1-1.3-3.7-1.3h-0.3V0.8h21v0.7H91c-1.5,0-2.8,0.4-3.6,1.3c-1.4,1.4-2,3.7-2,7.3v55.2l14.6,0c8.7,0,13.3-2.7,16-9.4
			l0.5-1.1h0.7v12L91.3,66.7L91.3,66.7z"/>
		<path class="st0" d="M142.2,1.5c-1.5,0-2.8,0.4-3.6,1.3c-1.4,1.4-2,3.7-2,7.3v47.5c0,3.6,0.6,5.9,2,7.3c0.9,0.9,2.1,1.3,3.7,1.3
			h0.3v0.7h-21v-0.7h0.1c1.7,0,3-0.4,3.9-1.3c1.4-1.3,2-3.7,2-7.3V10c0-3.6-0.6-5.9-2-7.3c-0.9-0.9-2.1-1.3-3.7-1.3h-0.3V0.8h21v0.7
			H142.2z"/>
		<path class="st0" d="M202.8,9.4l-20,57.3h-4.4L155,9.2c-2.5-5.6-4.8-7.8-7.8-7.8h-0.1V0.8h21.8v0.7h-0.5c-1.8,0-3.1,0.5-3.9,1.6
			c-1.2,1.6-1.1,4.2,0.3,7.7L184,57.9l16.4-46.8l0,0c1-3.8,0.9-6.3-0.3-7.9c-0.9-1.2-2.4-1.7-4.7-1.7h-0.7V0.8h16.7v0.7h-0.7
			C206.5,1.5,204.5,4.6,202.8,9.4z"/>
		<path class="st0" d="M215.9,66.1h0.3c1.6,0,2.8-0.4,3.7-1.3c1.4-1.4,2-3.7,2-7.3V10c0-3.6-0.6-5.9-2-7.3c-0.9-0.9-2.1-1.3-3.7-1.3
			h-0.3V0.8h44.5v10.8h-0.7l0,0c-2.7-6.5-7.6-9.3-16.5-9.3h-12.3v27.9h9.5c7.4,0,11-1.6,12.9-5.6l0.2-0.4h0.7v14.3h-0.6l-0.2-0.5
			c-1.9-4.6-5.6-6.3-12.9-6.3h-9.5v33.6h14.4c8,0,12.6-2.4,15.4-8c0,0,0.7-1.5,1.1-2.5h0.7v12h-46.6V66.1z"/>
		<path class="st0" d="M282,35.6v21.9c0,3.6,0.6,5.9,2,7.3c0.9,0.9,2.1,1.3,3.7,1.3h0.3v0.7H267v-0.7c1.7,0,3-0.3,4-1.3
			c1.4-1.3,2-3.7,2-7.3V10c0-3.6-0.6-5.9-2-7.3c-0.9-0.9-2.1-1.3-3.7-1.3H267V0.8h29c14.6,0,23,6.2,23,16.9
			c0,9.8-7.3,16.2-20.2,17.6l-2.4,0.3l2.1,1.3c0.2,0.1,0.4,0.2,0.6,0.4l0.3,0.2c0.3,0.2,0.5,0.3,0.7,0.4c2.4,1.5,4.6,3.4,6.7,5.9
			c0.5,0.6,1,1.2,1.5,1.8l1.3,1.8l1.8,2.5c2,2.8,4.2,6,6.7,8.9l0.2,0.2c2,2.3,5.3,6.3,9.5,7v0.7c-1.1,0-4.7,0-6.3,0l-1.5,0
			c-9.5,0-12.6-6.2-16.8-14.8l-0.1-0.2c-1.1-2.3-2.1-4.1-3.1-6.1c-1.5-2.8-3.5-5.2-5.7-7.1c-0.9-0.8-2-1.5-3.1-2.2l-0.4-0.3
			c-0.2-0.1-0.4-0.2-0.6-0.4l-0.2-0.1H282z M282,34.2h11.5c10.1,0,16.1-6.2,16.1-16.5c0-4.9-1.2-8.8-3.5-11.4c-2.3-2.7-5.7-4-10-4
			H282V34.2z"/>
		<path class="st0" d="M373.8,41.3h-24.4l-5.5,15.2c-1.2,3.7-1.2,6.2-0.1,7.8c0.9,1.2,2.4,1.7,4.7,1.7h0.3v0.7h-16.6v-0.7h0.2
			c3.8,0,6.5-2.4,8.7-8l21.2-57.3h3.5l24.9,57.4c2.1,4.5,4.3,6.9,7.3,7.6c0.2,0.1,0.4,0.1,0.6,0.1c0.3,0,0.9,0.1,1.4,0.1v0.7h-23.7
			v-0.7c0.6,0,1.5,0,1.7,0c1.4-0.2,2.4-0.6,3.1-1.5c0.9-1.3,0.9-3.3-0.2-6L373.8,41.3z M373.2,39.9l-12.5-29.7l-10.8,29.7H373.2z"/>
	</g>
	<g>
		<path class="st0" d="M73.4,132.6l-10.6-30h-0.1l-10.6,30h-2.7L38.6,99.7H41l9.8,30h0.1l10.6-30h2.7l10.6,30h0.1l9.8-30H87
			l-10.8,32.9H73.4z"/>
		<path class="st0" d="M98.3,132.6V99.7h26v1.8h-23.9v13.1h22.9v1.8h-22.9v14.3h24.2v1.8H98.3z"/>
		<path class="st0" d="M137.4,132.6V99.7h15.4c4.8,0,8.5,1.4,11,4.2c2.5,2.8,3.8,6.9,3.8,12.3c0,5.2-1.3,9.2-4,12.1
			c-2.6,2.9-6.3,4.4-10.9,4.4H137.4z M153,130.8c3.9,0,7-1.3,9.2-3.9c2.2-2.6,3.3-6.2,3.3-10.7c0-4.8-1.1-8.4-3.4-10.9
			c-2.3-2.5-5.4-3.7-9.5-3.7h-13.1v29.3H153z"/>
		<path class="st0" d="M181.6,132.6V99.7H197c4.8,0,8.5,1.4,11,4.2c2.5,2.8,3.8,6.9,3.8,12.3c0,5.2-1.3,9.2-4,12.1
			c-2.6,2.9-6.3,4.4-10.9,4.4H181.6z M197.3,130.8c3.9,0,7-1.3,9.2-3.9c2.2-2.6,3.3-6.2,3.3-10.7c0-4.8-1.1-8.4-3.4-10.9
			c-2.3-2.5-5.4-3.7-9.5-3.7h-13.1v29.3H197.3z"/>
		<path class="st0" d="M225.9,132.6V99.7h2.1v32.9H225.9z"/>
		<path class="st0" d="M269.6,132.6l-24.6-30h-0.1v30h-2.1V99.7h2.7l24.6,30h0.1v-30h2.1v32.9H269.6z"/>
		<path class="st0" d="M318.1,132.6v-8.1H318c-1.2,2.9-3.1,5.1-5.7,6.6c-2.5,1.5-5.5,2.3-8.7,2.3c-3.4,0-6.5-0.7-9.2-2.2
			c-2.7-1.4-4.7-3.5-6.2-6c-1.4-2.6-2.2-5.6-2.2-9c0-3,0.7-5.9,2.1-8.5s3.4-4.8,6.1-6.4c2.7-1.6,5.8-2.4,9.3-2.4
			c4.1,0,7.5,1,10.3,2.9c2.8,2,4.6,4.7,5.4,8.1h-2.1c-0.6-2.8-2.2-5.1-4.6-6.7c-2.4-1.7-5.4-2.5-8.9-2.5c-3.1,0-5.8,0.7-8.2,2.2
			c-2.4,1.4-4.2,3.3-5.4,5.7c-1.2,2.3-1.8,4.8-1.8,7.5c0,3,0.6,5.7,1.9,8.1c1.3,2.3,3.1,4.1,5.4,5.4c2.3,1.3,5,1.9,8,1.9
			c4.1,0,7.4-1.2,9.9-3.5s4-5.7,4.3-10h-13.2v-1.8h15.4v16.4H318.1z"/>
		<path class="st0" d="M358.3,109c-0.5-5.5-4.2-8.2-11.1-8.2c-3.5,0-6.2,0.6-8,1.7s-2.7,2.8-2.7,5.1c0,1.9,0.6,3.3,1.8,4.2
			c1.2,0.9,3.2,1.7,6,2.2l6.8,1.3c3.7,0.7,6.4,1.8,7.9,3.1c1.5,1.3,2.3,3.2,2.3,5.6c0,2.9-1.1,5.2-3.4,6.9c-2.3,1.6-5.5,2.5-9.8,2.5
			c-5,0-8.7-1-11.2-2.9c-2.5-1.9-3.8-4.8-3.8-8.8h2.1c0.1,6.5,4.3,9.8,12.6,9.8c3.7,0,6.4-0.7,8.3-2c1.8-1.3,2.8-3.1,2.8-5.4
			c0-1.3-0.3-2.4-0.8-3.2s-1.4-1.4-2.5-2c-1.2-0.5-2.9-1.1-5.4-1.6l-6.1-1.3c-2.9-0.6-4.9-1.2-6.1-1.9c-1.2-0.6-2.1-1.5-2.8-2.6
			c-0.7-1.1-1-2.4-1-4.1c0-2.6,1.1-4.6,3.3-6.2c2.2-1.6,5.3-2.4,9.1-2.4c4.5,0,7.9,0.9,10.2,2.6c2.3,1.7,3.5,4.2,3.6,7.5H358.3z"/>
	</g>
</g>
</svg>
