<svg id="Capa_1" data-name="Capa 1" xmlns="http://www.w3.org/2000/svg" viewBox="0 0 400 133.39"><defs><style>.cls-1{fill:#fff;}</style></defs><path class="cls-1" d="M65.82,33.39c0,9.77-3.25,18-9.66,24.45a31.93,31.93,0,0,1-23.39,9.7A31.74,31.74,0,0,1,9.45,58.07C3.18,51.78,0,43.52,0,33.53,0,23.31,3.67,14.87,10.91,8.43A33.1,33.1,0,0,1,33.57,0,31.16,31.16,0,0,1,56.23,9.54C62.6,15.86,65.82,23.88,65.82,33.39ZM56,34.67c0-11.58-2.44-20.4-7.24-26.22-3.9-4.63-9.34-7-16.18-7A19.48,19.48,0,0,0,17,8.45c-4.78,5.64-7.2,14-7.2,24.83,0,11.11,2.51,19.78,7.46,25.77a19.09,19.09,0,0,0,15.41,7,21.38,21.38,0,0,0,16.8-7.66C53.83,53.38,56,45.39,56,34.67Z"/><path class="cls-1" d="M91.32,66.73h-21v-.65h.1a5.36,5.36,0,0,0,3.9-1.26c1.38-1.34,2-3.66,2-7.29V10c0-3.61-.65-5.93-2-7.28a5,5,0,0,0-3.69-1.26h-.31V.81h21v.66H91a5,5,0,0,0-3.65,1.27c-1.38,1.35-2,3.67-2,7.28V65.25H99.92c8.68,0,13.33-2.71,16-9.36l.51-1.15h.66v12Z"/><path class="cls-1" d="M142.24,1.47a5.08,5.08,0,0,0-3.65,1.27c-1.38,1.35-2,3.67-2,7.28V57.53c0,3.63.64,5.95,2,7.29a5,5,0,0,0,3.69,1.26h.32v.65h-21v-.65h.1a5.39,5.39,0,0,0,3.91-1.26c1.38-1.34,2-3.66,2-7.29V10c0-3.61-.64-5.93-2-7.28a5.05,5.05,0,0,0-3.7-1.26h-.31V.81h21v.66Z"/><path class="cls-1" d="M202.8,9.43l-20,57.3h-4.37L155,9.24c-2.54-5.56-4.81-7.77-7.85-7.77h-.08V.81h21.76v.66h-.48a4.52,4.52,0,0,0-3.94,1.64c-1.15,1.63-1,4.21.28,7.66L184,57.89l16.37-46.82v0c1-3.82,1-6.32-.26-7.88-.9-1.17-2.42-1.69-4.65-1.69h-.74V.81h16.75v.66h-.7C206.54,1.47,204.52,4.62,202.8,9.43Z"/><path class="cls-1" d="M215.93,66.08h.3A5.09,5.09,0,0,0,220,64.8c1.38-1.36,2-3.68,2-7.28V10c0-3.61-.64-5.92-2-7.27a5.06,5.06,0,0,0-3.7-1.27h-.32V.81h44.49V11.58h-.66c-2.67-6.53-7.6-9.31-16.5-9.31H230.93V30.2h9.52c7.37,0,11-1.57,13-5.6l.2-.44h.66V38.5h-.64l-.22-.5c-1.93-4.56-5.56-6.34-13-6.34h-9.52V65.29h14.38c8,0,12.65-2.39,15.4-8l1.13-2.53h.65v12H215.93Z"/><path class="cls-1" d="M282,35.61V57.52c0,3.61.64,5.93,2,7.3a5,5,0,0,0,3.7,1.26H288v.65H267v-.65a5.34,5.34,0,0,0,4-1.26c1.38-1.34,2-3.66,2-7.29V10c0-3.63-.65-5.94-2-7.29a5,5,0,0,0-3.67-1.28H267V.81h29c14.64,0,23,6.16,23,16.88,0,9.78-7.34,16.2-20.15,17.61l-2.4.26,2.05,1.28.56.37.32.2.68.44a26.34,26.34,0,0,1,6.68,5.87,20.13,20.13,0,0,1,1.45,1.84l1.33,1.84,1.77,2.49c2,2.84,4.25,6,6.72,8.94l.18.22c2,2.35,5.29,6.28,9.49,7v.65H319.9c-9.48,0-12.55-6.19-16.8-14.75l-.08-.18c-1.15-2.31-2.07-4.13-3.12-6.05a24.91,24.91,0,0,0-5.7-7.14,19.7,19.7,0,0,0-3.11-2.2l-.41-.26-.64-.38-.2-.14Zm0-1.44h11.49c10.08,0,16.1-6.15,16.1-16.46,0-4.92-1.17-8.77-3.49-11.41s-5.71-4-10.05-4H282Z"/><path class="cls-1" d="M373.78,41.34H349.34l-5.53,15.22c-1.23,3.74-1.25,6.21-.09,7.77.89,1.21,2.44,1.75,4.74,1.75h.34v.65H332.2v-.65h.23c3.81,0,6.49-2.42,8.71-8L362.37.81h3.46l24.94,57.38c2.08,4.5,4.32,6.86,7.25,7.63a3.69,3.69,0,0,0,.62.13c.26,0,.95.09,1.36.13v.65H376.35v-.65c.57,0,1.45,0,1.72,0a4.16,4.16,0,0,0,3.06-1.51c.91-1.29.86-3.26-.16-6Zm-.61-1.44L360.68,10.22,349.9,39.9Z"/><path class="cls-1" d="M73.45,132.65l-10.61-30h-.1l-10.61,30H49.46L38.61,99.71H41l9.78,30h.1l10.56-30h2.68l10.56,30h.1l9.78-30H87L76.12,132.65Z"/><path class="cls-1" d="M98.27,132.65V99.71h26v1.84h-23.9v13.1h22.93v1.85H100.39v14.3h24.18v1.85Z"/><path class="cls-1" d="M137.39,132.65V99.71H152.8q7.2,0,11,4.17c2.53,2.79,3.79,6.88,3.79,12.3q0,7.74-4,12.11t-10.94,4.36ZM153,130.8q5.91,0,9.16-3.9t3.25-10.72c0-4.8-1.12-8.44-3.39-10.91s-5.42-3.72-9.48-3.72h-13V130.8Z"/><path class="cls-1" d="M181.64,132.65V99.71h15.41c4.79,0,8.46,1.39,11,4.17s3.78,6.88,3.78,12.3q0,7.74-4,12.11t-10.93,4.36Zm15.64-1.85q5.9,0,9.16-3.9t3.25-10.72q0-7.2-3.39-10.91t-9.48-3.72H183.76V130.8Z"/><path class="cls-1" d="M225.88,132.65V99.71H228v32.94Z"/><path class="cls-1" d="M269.57,132.65l-24.59-30h-.09v30h-2.12V99.71h2.67l24.6,30h.09v-30h2.12v32.94Z"/><path class="cls-1" d="M318.06,132.65v-8.12H318a13.65,13.65,0,0,1-5.65,6.6,16.86,16.86,0,0,1-8.74,2.26,19.11,19.11,0,0,1-9.19-2.17,15.31,15.31,0,0,1-6.18-6,19,19,0,0,1-.07-17.49,15.92,15.92,0,0,1,6.14-6.37,18,18,0,0,1,9.3-2.37,17.31,17.31,0,0,1,10.28,2.93,13.22,13.22,0,0,1,5.36,8.14h-2.13a10.81,10.81,0,0,0-4.63-6.74,16.82,16.82,0,0,0-17.07-.32,14.21,14.21,0,0,0-5.4,5.68,16,16,0,0,0-1.82,7.52,16.44,16.44,0,0,0,1.93,8.07,13.31,13.31,0,0,0,5.45,5.4,16.62,16.62,0,0,0,8,1.89,14.09,14.09,0,0,0,9.94-3.51q3.81-3.5,4.27-10H304.54v-1.85h15.37v16.43Z"/><path class="cls-1" d="M358.34,109q-.73-8.22-11.07-8.22-5.26,0-8,1.73a5.64,5.64,0,0,0-2.7,5.06,5.07,5.07,0,0,0,1.75,4.24,14.66,14.66,0,0,0,6.05,2.21l6.78,1.34q5.58,1.11,7.89,3.12a7,7,0,0,1,2.31,5.56,8,8,0,0,1-3.4,6.85q-3.39,2.46-9.85,2.47-7.42,0-11.18-2.86t-3.76-8.77h2.12q.14,9.78,12.64,9.78,5.49,0,8.26-2A6.26,6.26,0,0,0,359,124.2a5.66,5.66,0,0,0-.79-3.16,6,6,0,0,0-2.51-2,29.3,29.3,0,0,0-5.38-1.64l-6.13-1.29a24.76,24.76,0,0,1-6.14-1.89,7.42,7.42,0,0,1-2.81-2.56,7.54,7.54,0,0,1-1-4.13,7.33,7.33,0,0,1,3.32-6.21c2.22-1.58,5.26-2.37,9.14-2.37q6.69,0,10.17,2.58a9.09,9.09,0,0,1,3.62,7.48Z"/></svg>