<svg id="Capa_1" data-name="Capa 1" xmlns="http://www.w3.org/2000/svg" viewBox="0 0 200 199.74"><defs><style>.cls-1{fill:#fff;}</style></defs><path class="cls-1" d="M42.94,92.38a24.17,24.17,0,0,0,3.13,7.24,23,23,0,0,0,5.34,5.88,30.91,30.91,0,0,0,6.76,3.93A30.59,30.59,0,0,0,62.6,111,32.15,32.15,0,0,0,60,115.23a35.88,35.88,0,0,0-1.52,3.5c-.49,1.32-.87,2.51-1.17,3.63a27.31,27.31,0,0,0-.89,7.68,27.83,27.83,0,0,0,.4,3.86,34,34,0,0,0,.83,3.75,20.77,20.77,0,0,0,3.49,7.1,18.45,18.45,0,0,0,6.16,5.12h0a20.2,20.2,0,0,0,7.72,2.06c.34,0,.69.05,1,.06a24.18,24.18,0,0,0,6.81-.8,22.69,22.69,0,0,0,7.24-3.26A33.47,33.47,0,0,0,98.86,139a31.73,31.73,0,0,0,3.24,3.75,34.07,34.07,0,0,0,2.85,2.52,36.78,36.78,0,0,0,3.1,2.24,27.38,27.38,0,0,0,7,3.22,28,28,0,0,0,3.8.82c1.13.15,2.46.32,3.82.37h.25a20.69,20.69,0,0,0,7.58-1.13,18.65,18.65,0,0,0,6.78-4.28h0a20.23,20.23,0,0,0,4.34-6.71,23.9,23.9,0,0,0,1.72-7.7,22.81,22.81,0,0,0-.86-7.89,30.72,30.72,0,0,0-3.16-7.16,31.51,31.51,0,0,0-2.66-3.86,34.37,34.37,0,0,0,4.57-1.92,36.68,36.68,0,0,0,3.28-1.94,38.13,38.13,0,0,0,3.08-2.25,26.39,26.39,0,0,0,7.18-9,32.77,32.77,0,0,0,1.54-3.52,20.82,20.82,0,0,0,1.34-7.8,18.46,18.46,0,0,0-2-7.76h0v0a20.35,20.35,0,0,0-5-6.2,24.28,24.28,0,0,0-6.79-4,22.94,22.94,0,0,0-7.78-1.61h-.24a31.44,31.44,0,0,0-7.53.79,32.86,32.86,0,0,0-4.51,1.35,32,32,0,0,0-.41-4.94,39.25,39.25,0,0,0-2-7.35,27.71,27.71,0,0,0-3.78-6.74,29.26,29.26,0,0,0-2.6-2.89,36.51,36.51,0,0,0-2.88-2.55,20.74,20.74,0,0,0-7-3.68,16.94,16.94,0,0,0-4.57-.73,19.82,19.82,0,0,0-3.42.21h0a20.36,20.36,0,0,0-7.46,2.87,24.27,24.27,0,0,0-5.92,5.22,23.13,23.13,0,0,0-3.93,6.9,30.46,30.46,0,0,0-1.66,7.64A31.88,31.88,0,0,0,78,67.85a34.05,34.05,0,0,0-4.83-1.13,33.71,33.71,0,0,0-3.79-.36l-.87,0c-1.06,0-2,0-3,0A27.59,27.59,0,0,0,58,67.89a29.28,29.28,0,0,0-3.55,1.57,35.8,35.8,0,0,0-3.31,2,20.61,20.61,0,0,0-5.67,5.52,18.38,18.38,0,0,0-3,7.44h0v0A20.21,20.21,0,0,0,42.94,92.38Zm1.87-7.64a16.17,16.17,0,0,1,2.48-6.59,18.8,18.8,0,0,1,5-5,34.46,34.46,0,0,1,3.08-1.91A24.74,24.74,0,0,1,65.7,68.07c1.21-.1,2.42-.12,3.64-.1a33.7,33.7,0,0,1,3.63.26,31.82,31.82,0,0,1,6.39,1.53c0,.35.08.7.13,1,.18,1.15.43,2.29.72,3.42-.21-.13-.43-.24-.64-.36-.7-.42-1.4-.82-2.12-1.21l0,0c.63.53,1.26,1,1.9,1.54a6.91,6.91,0,0,0,1,.74l.16.08c.28,1,.59,2,1,3,.1.27.21.53.31.8l-.17-.15a12.78,12.78,0,0,0-2-1.23,20.65,20.65,0,0,0-4.33-1.71l0,0a24.33,24.33,0,0,1,4.11,2.07c.65.41,1.25.88,1.89,1.29l.87.57c.63,1.51,1.35,3,2.12,4.42-.58-.44-1.17-.87-1.78-1.27a14.68,14.68,0,0,0-2-1.18A10.32,10.32,0,0,0,78.21,81l0,0c.63.46,1.29.84,1.94,1.23s1.35.7,2,1.07,1.56.92,2.32,1.42a62.49,62.49,0,0,0,4.05,6.34c.14.2.29.39.44.59A24.84,24.84,0,0,1,84.72,90c-1.7-.84-3.32-1.82-4.93-2.82a43.82,43.82,0,0,0-5-2.74,38,38,0,0,0-5.38-2l0,.06c1.73.81,3.46,1.58,5.15,2.43s3.4,1.67,5,2.61,3.31,1.89,5,2.69A25.09,25.09,0,0,0,89,91.78c.56.75,1.13,1.49,1.7,2.22.78,1,1.6,1.88,2.36,2.82l0,0Q87.5,95,81.84,93.16c-2-.67-4.07-1.36-6.13-2S71.58,90,69.48,89.55l0,0c2,.8,4,1.47,6.07,2.16S79.64,93,81.7,93.61Q87.46,95.32,93.22,97c.34.41.64.84,1,1.29a7.41,7.41,0,0,0,1.13,1.11,18.68,18.68,0,0,0-2.24.12,25.32,25.32,0,0,0-2.83.57,48,48,0,0,0-5.52,1.66l0,0c1.85-.5,3.72-.91,5.6-1.25.94-.16,1.89-.26,2.82-.44s1.59-.32,2.38-.52h0a5.05,5.05,0,0,0,1.72.82l.16,0c-2,.41-4,1.06-6,1.5-1.39.37-2.69.85-4,1.29s-2.65.88-4,1.25a53.54,53.54,0,0,1-16.61,2v.06a49.44,49.44,0,0,0,8.43-.13,54.62,54.62,0,0,0,8.31-1.49c1.37-.34,2.72-.73,4.06-1.15s2.68-.91,4-1.29c2.21-.58,4.33-1.39,6.52-2a4.36,4.36,0,0,0,1,0l0-.18a.75.75,0,0,1-.15,0l.72-.16v0c-.47,0-.93.1-1.39.17a4.67,4.67,0,0,1-2.43-1.1,6.38,6.38,0,0,1-1.17-1.31c-.32-.47-.64-1-1-1.54-.71-1-1.49-2-2.19-2.94s-1.38-2-2-3a60.7,60.7,0,0,1-6.47-12.91,33.51,33.51,0,0,1-2-14,28.28,28.28,0,0,1,1.34-7A20.77,20.77,0,0,1,97.5,42.82a16.06,16.06,0,0,1,7,.33,19,19,0,0,1,6.35,3.21,33.81,33.81,0,0,1,2.76,2.34,24.71,24.71,0,0,1,6.17,8.84,38.16,38.16,0,0,1,2.09,7,31.2,31.2,0,0,1,.52,6.55c-.32.14-.64.28-1,.44a34.92,34.92,0,0,0-3,1.74c.06-.24.1-.48.15-.72.18-.79.34-1.59.49-2.39l-.06,0c-.31.76-.6,1.51-.88,2.28a6.81,6.81,0,0,0-.4,1.15l0,.18c-.87.58-1.73,1.19-2.55,1.83-.22.17-.44.36-.66.54l.09-.21a12,12,0,0,0,.55-2.28,20.74,20.74,0,0,0,.29-4.65h-.06a24.75,24.75,0,0,1-.69,4.55c-.19.74-.45,1.46-.65,2.2l-.27,1c-1.24,1.06-2.42,2.2-3.55,3.38.24-.69.46-1.39.65-2.09a14.4,14.4,0,0,0,.52-2.25,10,10,0,0,0,0-2.32h0c-.24.75-.4,1.49-.57,2.23s-.25,1.5-.39,2.24c-.18.89-.4,1.77-.64,2.65A63,63,0,0,0,105,86.34c-.15.19-.28.4-.43.6a24.64,24.64,0,0,1,.3-4.54c.27-1.88.71-3.72,1.16-5.57a44.63,44.63,0,0,0,1-5.63,37.69,37.69,0,0,0,.2-5.72h-.05c-.24,1.9-.44,3.78-.73,5.65s-.54,3.75-.92,5.61-.78,3.73-1,5.63a24.7,24.7,0,0,0-.09,4.71c-.54.76-1.07,1.52-1.59,2.3-.68,1-1.29,2.1-1.95,3.11l0,0q0-5.94,0-11.88c0-2.14,0-4.29,0-6.44s-.15-4.28-.35-6.43h-.06c-.14,2.15-.15,4.3-.17,6.44s.08,4.29.14,6.44q.17,6,.36,12c-.29.45-.6.86-.92,1.34a6.9,6.9,0,0,0-.71,1.41,18.51,18.51,0,0,0-.81-2.07A23.87,23.87,0,0,0,97,90.81a48.69,48.69,0,0,0-3.28-4.74l0,0c1,1.61,2,3.26,2.92,4.94.44.85.83,1.72,1.3,2.55s.79,1.41,1.22,2.1v0a5.27,5.27,0,0,0-.25,1.89,1,1,0,0,1,0,.16c-1-1.79-2.24-3.46-3.27-5.21-.78-1.21-1.64-2.29-2.47-3.43s-1.66-2.25-2.43-3.42a53.39,53.39,0,0,1-7-15.17h-.06a51.05,51.05,0,0,0,2.72,8,56.57,56.57,0,0,0,4,7.44c.75,1.19,1.54,2.36,2.35,3.51s1.69,2.26,2.46,3.39c1.24,1.93,2.66,3.69,3.88,5.59a5.23,5.23,0,0,0,.35,1l.16-.07s0-.1,0-.15c.12.21.25.42.37.64l0,0c-.18-.43-.38-.85-.59-1.26a4.78,4.78,0,0,1,.29-2.65,6.44,6.44,0,0,1,.89-1.52c.35-.45.78-.93,1.15-1.43.74-1,1.41-2,2.12-3S105.19,88,106,87.09a60.18,60.18,0,0,1,10.28-10.15A33.52,33.52,0,0,1,129,70.71a28.29,28.29,0,0,1,7.06-.89A20.48,20.48,0,0,1,143,71.09,20,20,0,0,1,153.65,80a16.06,16.06,0,0,1,1.86,6.79,18.83,18.83,0,0,1-1.1,7A33.18,33.18,0,0,1,153,97.15a24.45,24.45,0,0,1-6.5,8.59,31.05,31.05,0,0,1-2.88,2.22,33.3,33.3,0,0,1-3.1,1.93,31.34,31.34,0,0,1-6.07,2.52c-.23-.26-.46-.52-.71-.77-.82-.82-1.69-1.6-2.59-2.34l.73-.08c.81-.08,1.62-.17,2.42-.28v0c-.81-.07-1.62-.11-2.43-.14a7.13,7.13,0,0,0-1.22,0l-.19,0q-1.23-1-2.52-1.86l-.72-.46.23,0a12.3,12.3,0,0,0,2.34-.18,21.2,21.2,0,0,0,4.51-1.16l0-.06a25.16,25.16,0,0,1-4.54.75c-.77,0-1.53,0-2.29.06l-1,0c-1.4-.85-2.84-1.62-4.31-2.33.73,0,1.46,0,2.19,0a13.66,13.66,0,0,0,2.3-.21,10.15,10.15,0,0,0,2.22-.67v-.06c-.78,0-1.54.08-2.3.15s-1.5.23-2.25.32c-.9.11-1.81.17-2.71.22a62.38,62.38,0,0,0-7-2.76l-.71-.22a24,24,0,0,1,4.41-1.12c1.87-.32,3.76-.48,5.65-.62a43.28,43.28,0,0,0,5.68-.75,37.63,37.63,0,0,0,5.51-1.57l0-.06c-1.87.36-3.72.76-5.6,1.06s-3.73.64-5.61.85-3.79.42-5.67.8a25.35,25.35,0,0,0-4.5,1.36c-.89-.28-1.78-.54-2.68-.8-1.2-.33-2.4-.57-3.56-.89h0q5.66-1.8,11.3-3.65c2-.66,4.09-1.29,6.11-2s4-1.48,6-2.33l0,0c-2.09.53-4.13,1.18-6.18,1.82s-4,1.41-6.07,2.13q-5.66,2-11.3,4.05c-.52-.14-1-.31-1.57-.47a7.46,7.46,0,0,0-1.55-.24,19.11,19.11,0,0,0,1.72-1.4,23.11,23.11,0,0,0,2-2.13,48.22,48.22,0,0,0,3.5-4.58l0,0c-1.2,1.49-2.47,2.93-3.79,4.31-.67.68-1.38,1.32-2,2s-1.09,1.19-1.61,1.81h0a5.17,5.17,0,0,0-1.87.35l-.15.07c1.39-1.52,2.6-3.2,3.94-4.72.91-1.12,1.68-2.28,2.5-3.42s1.63-2.27,2.51-3.36A53.32,53.32,0,0,1,123,75.34l0,0a50.28,50.28,0,0,0-6.75,5,57.05,57.05,0,0,0-5.84,6.1c-.91,1.07-1.77,2.19-2.61,3.32s-1.63,2.3-2.47,3.38c-1.45,1.77-2.69,3.67-4.12,5.42a5.55,5.55,0,0,0-.8.63l.11.13a1,1,0,0,0,.13-.09c-.16.19-.32.38-.49.56l0,0c.36-.31.69-.63,1-1a4.76,4.76,0,0,1,2.61-.54,6.77,6.77,0,0,1,1.72.37c.53.2,1.13.46,1.71.66,1.18.4,2.36.71,3.5,1.1s2.29.8,3.42,1.25A60.22,60.22,0,0,1,127,108.35a33.55,33.55,0,0,1,9.86,10.17,28.2,28.2,0,0,1,3,6.44,20.37,20.37,0,0,1,.93,7,20,20,0,0,1-5.14,12.92,16.08,16.08,0,0,1-5.88,3.87,18.8,18.8,0,0,1-7,1.13,33.89,33.89,0,0,1-3.61-.26,28.82,28.82,0,0,1-3.55-.67,25.78,25.78,0,0,1-6.63-2.86,36.19,36.19,0,0,1-3-2.06,33,33,0,0,1-2.79-2.35,31.28,31.28,0,0,1-4.27-5c.17-.31.35-.61.51-.92a34.65,34.65,0,0,0,1.42-3.18l.31.66c.32.75.65,1.49,1,2.23l0,0c-.19-.8-.4-1.58-.62-2.37a7.75,7.75,0,0,0-.35-1.16,1.3,1.3,0,0,1-.08-.17c.36-1,.69-2,1-3,.08-.28.14-.55.22-.83a1.89,1.89,0,0,0,.05.23,12.32,12.32,0,0,0,.9,2.16,20.26,20.26,0,0,0,2.49,3.93l0,0a24,24,0,0,1-2.11-4.09c-.29-.71-.5-1.45-.77-2.16-.13-.32-.25-.64-.37-1a46.39,46.39,0,0,0,.88-4.82c.21.7.44,1.39.7,2.07a14.36,14.36,0,0,0,.91,2.13,10.31,10.31,0,0,0,1.33,1.9l0,0c-.25-.74-.55-1.43-.86-2.13s-.67-1.36-1-2-.71-1.66-1-2.51a63.08,63.08,0,0,0,.46-7.51c0-.24,0-.49,0-.73a23.93,23.93,0,0,1,2.43,3.84c.88,1.67,1.61,3.42,2.33,5.18a44.68,44.68,0,0,0,2.47,5.18,37.13,37.13,0,0,0,3.2,4.74l0,0c-.92-1.67-1.87-3.31-2.73-5s-1.77-3.35-2.55-5.07-1.57-3.48-2.51-5.14a24.75,24.75,0,0,0-2.69-3.87c0-.93,0-1.86-.07-2.79-.06-1.25-.19-2.46-.25-3.67v0q3.47,4.83,7,9.62c1.26,1.74,2.49,3.5,3.81,5.19s2.64,3.38,4.06,5l0,0c-1.15-1.81-2.4-3.56-3.64-5.31s-2.6-3.42-3.91-5.12q-3.64-4.75-7.34-9.49c0-.54,0-1.06,0-1.64a7.48,7.48,0,0,0-.25-1.55,16.52,16.52,0,0,0,1.87,1.2,22.23,22.23,0,0,0,2.62,1.21,50.86,50.86,0,0,0,5.44,1.91l0-.06c-1.79-.69-3.55-1.45-5.26-2.28-.86-.42-1.69-.9-2.56-1.3s-1.46-.67-2.22-1v0a5.05,5.05,0,0,0-.9-1.68l-.12-.12c1.88.86,3.85,1.49,5.71,2.3,1.35.52,2.69.89,4,1.31s2.67.86,4,1.35a53.24,53.24,0,0,1,14.62,8.13l0-.05a51.12,51.12,0,0,0-6.89-4.85,56,56,0,0,0-7.6-3.67c-1.31-.53-2.63-1-4-1.46s-2.69-.84-4-1.3c-2.13-.83-4.32-1.42-6.43-2.24a4.78,4.78,0,0,0-.84-.57l-.09.15.12.09c-.22-.1-.45-.19-.67-.3l0,.06c.4.24.81.46,1.22.67a4.68,4.68,0,0,1,1.32,2.32,6.4,6.4,0,0,1,.18,1.74c0,.58-.09,1.22-.09,1.84,0,1.24,0,2.46,0,3.67s0,2.42-.13,3.64a60.3,60.3,0,0,1-2.35,14.24,33.61,33.61,0,0,1-6.62,12.53,28.47,28.47,0,0,1-5.2,4.86,20.79,20.79,0,0,1-20.23,2.14,16.15,16.15,0,0,1-5.49-4.39,18.84,18.84,0,0,1-3.25-6.33c-.36-1.15-.62-2.33-.87-3.52a27.15,27.15,0,0,1-.45-3.58,25.69,25.69,0,0,1,.66-7.2,35.8,35.8,0,0,1,1-3.49,31.86,31.86,0,0,1,1.37-3.38,30.69,30.69,0,0,1,3.43-5.6c.34.07.68.15,1,.2,1.16.18,2.31.3,3.47.37-.18.16-.35.34-.54.5-.61.53-1.21,1.08-1.8,1.64l0,0c.69-.43,1.38-.87,2-1.32a6.4,6.4,0,0,0,1-.7l.13-.12c1,0,2.09,0,3.14,0l.85-.06L74,111a12.3,12.3,0,0,0-1.78,1.53,20.33,20.33,0,0,0-3,3.58l.05,0a24.36,24.36,0,0,1,3.23-3.27c.6-.49,1.23-.92,1.82-1.4l.81-.65c1.63-.13,3.25-.36,4.85-.65-.59.41-1.18.85-1.75,1.3A15.78,15.78,0,0,0,76.51,113a11,11,0,0,0-1.4,1.85l0,0a23,23,0,0,0,1.77-1.47c.57-.5,1.08-1.06,1.64-1.58s1.36-1.2,2.07-1.77a64.24,64.24,0,0,0,7.28-1.88l.7-.24a24.35,24.35,0,0,1-2.91,3.5c-1.32,1.36-2.76,2.59-4.21,3.82a46.92,46.92,0,0,0-4.16,3.94,38.21,38.21,0,0,0-3.52,4.51l0,0c1.31-1.39,2.57-2.8,3.91-4.14s2.64-2.72,4-4,2.83-2.56,4.12-4a25.31,25.31,0,0,0,2.84-3.75q1.32-.45,2.64-.93c1.16-.44,2.28-.94,3.4-1.37l0,0q-3.51,4.78-7,9.6c-1.26,1.73-2.55,3.45-3.76,5.22s-2.39,3.56-3.49,5.41l0,0c1.37-1.66,2.64-3.39,3.92-5.11s2.46-3.52,3.67-5.29q3.39-5,6.76-9.92c.5-.19,1-.34,1.54-.55a7.37,7.37,0,0,0,1.4-.71,17.76,17.76,0,0,0-.57,2.14,23.14,23.14,0,0,0-.33,2.87,48.34,48.34,0,0,0-.14,5.77H97q.15-2.88.54-5.71c.14-.95.34-1.88.45-2.83.1-.8.19-1.6.24-2.42h0a5.21,5.21,0,0,0,1.31-1.38l.08-.15c-.24,2-.22,4.12-.42,6.14-.08,1.44,0,2.83,0,4.23s0,2.8,0,4.2a53.72,53.72,0,0,1-3.21,16.42l0,0a51.35,51.35,0,0,0,2.49-8,56.14,56.14,0,0,0,1.14-8.37c.1-1.4.15-2.81.16-4.22s0-2.82,0-4.19c.13-2.28,0-4.55.14-6.8a4.89,4.89,0,0,0,.29-1l-.18,0s0,.09,0,.14c0-.24,0-.49.07-.73H100c-.11.45-.19.91-.26,1.37a4.78,4.78,0,0,1-1.8,2,6.6,6.6,0,0,1-1.61.7c-.54.16-1.18.29-1.77.48-1.19.37-2.33.81-3.47,1.17s-2.33.69-3.51,1a60.41,60.41,0,0,1-14.27,2.16,33.47,33.47,0,0,1-14-2.43,28.34,28.34,0,0,1-6.23-3.43,20.31,20.31,0,0,1-4.86-5.1A20,20,0,0,1,44.81,84.74Z"/><path class="cls-1" d="M131.09,84.27a36.08,36.08,0,0,0-5,1.2,46.88,46.88,0,0,0-4.81,1.87,63.37,63.37,0,0,0-9.07,4.89l0,0a72.78,72.78,0,0,1,9.22-4.51c1.59-.63,3.21-1.17,4.82-1.75s3.23-1.11,4.85-1.69Z"/><path class="cls-1" d="M131.77,80.09c1-.35,2-.69,3.08-1.07V79a16.92,16.92,0,0,0-3.24.57,22.12,22.12,0,0,0-3.07,1.13,36.69,36.69,0,0,0-5.78,3.06l0,0a43.61,43.61,0,0,1,5.92-2.67C129.72,80.73,130.75,80.44,131.77,80.09Z"/><path class="cls-1" d="M137.34,92.07c-.75.14-1.48.38-2.21.59q-2.2.61-4.41,1.26l0,.06c1.5-.27,3-.56,4.5-.86.75-.15,1.5-.26,2.24-.48a13.34,13.34,0,0,0,2.16-.79v0A14.47,14.47,0,0,0,137.34,92.07Z"/><path class="cls-1" d="M125.7,94.82a2.16,2.16,0,0,0-.67.08,1.54,1.54,0,0,0-.62.39l0,.06a1.52,1.52,0,0,0,.71.12,2.11,2.11,0,0,0,.65-.19c.44-.14.87-.29,1.29-.46v-.06C126.61,94.76,126.16,94.79,125.7,94.82Z"/><path class="cls-1" d="M128.68,100.07c-1.59.2-3.18.31-4.77.46l-4.78.44V101a33.87,33.87,0,0,0,4.83.09,42.71,42.71,0,0,0,4.78-.58,62.24,62.24,0,0,0,9.36-2.25l0-.05A71.9,71.9,0,0,1,128.68,100.07Z"/><path class="cls-1" d="M114.1,93.29a46.79,46.79,0,0,0-4.37,2c-.7.4-1.41.79-2.09,1.21-.34.22-.68.45-1,.64s-.72.34-1.07.54l0,.05a10.89,10.89,0,0,0,1.16-.35c.39-.16.73-.34,1.1-.52l2.15-1c1.44-.7,2.85-1.45,4.3-2.12a89,89,0,0,1,8.91-3.58v-.06A77.21,77.21,0,0,0,114.1,93.29Z"/><path class="cls-1" d="M131.94,72.17a35.63,35.63,0,0,1,4-.12c1.33,0,2.66.19,4,.31a31.69,31.69,0,0,1,4,.6l0,0a13.64,13.64,0,0,0-3.9-1.13,24.93,24.93,0,0,0-4.05-.2,26.55,26.55,0,0,0-8,1.2l0,0A22,22,0,0,1,131.94,72.17Z"/><path class="cls-1" d="M116.05,97.07c-.75.16-1.51.28-2.24.5a15.58,15.58,0,0,0-2.15.82v.06a14.5,14.5,0,0,0,2.29-.31c.75-.15,1.47-.4,2.2-.62,1.47-.42,2.93-.86,4.39-1.32v-.06C119,96.44,117.54,96.74,116.05,97.07Z"/><path class="cls-1" d="M116.2,85.21a13.13,13.13,0,0,0-1.78,2.22l0,0c.74-.6,1.43-1.22,2.14-1.83s1.38-1.25,2.1-1.84a31.08,31.08,0,0,1,4.67-3.11l0-.06a26.33,26.33,0,0,0-4.92,2.8A16.49,16.49,0,0,0,116.2,85.21Z"/><path class="cls-1" d="M118.64,116.33a63.35,63.35,0,0,0-7.44-7.12l0,0a73.06,73.06,0,0,1,7.13,7.38c1.09,1.32,2.11,2.69,3.15,4s2.06,2.73,3.11,4.1l0,0a35.25,35.25,0,0,0-2.68-4.41A45,45,0,0,0,118.64,116.33Z"/><path class="cls-1" d="M127.25,121.18a37.33,37.33,0,0,0-4.69-4.55l0,.05a44,44,0,0,1,4.36,4.8c.67.85,1.27,1.75,1.91,2.61s1.29,1.74,2,2.6l.06,0a17.5,17.5,0,0,0-1.54-2.9A23,23,0,0,0,127.25,121.18Z"/><path class="cls-1" d="M117.87,131.17c-.84-1.28-1.69-2.54-2.56-3.8l0,0c.72,1.35,1.46,2.68,2.21,4,.37.67.72,1.36,1.15,2a14.3,14.3,0,0,0,1.42,1.81l0,0a15.28,15.28,0,0,0-1-2.09C118.75,132.42,118.3,131.8,117.87,131.17Z"/><path class="cls-1" d="M112.63,122.25a1.77,1.77,0,0,0-.57-.46l0,0a1.66,1.66,0,0,0,.1.72,2.17,2.17,0,0,0,.39.56q.39.56.84,1.08l0,0q-.23-.66-.48-1.29A2.67,2.67,0,0,0,112.63,122.25Z"/><path class="cls-1" d="M106.92,122.93l-1.89-4.4H105a33.73,33.73,0,0,0,1.41,4.62,42.17,42.17,0,0,0,2,4.37,62.89,62.89,0,0,0,5,8.2l0,0a72.87,72.87,0,0,1-4.65-8.38C108.15,125.88,107.56,124.4,106.92,122.93Z"/><path class="cls-1" d="M107.5,107.83c-.6-.54-1.19-1.09-1.8-1.61-.31-.25-.64-.51-.93-.76s-.54-.58-.84-.85l0,0c.23.33.43.68.69,1s.56.59.84.88l1.66,1.73c1.11,1.15,2.26,2.26,3.35,3.43a88.7,88.7,0,0,1,6.16,7.37l0,0a77.34,77.34,0,0,0-5.86-7.64A47.72,47.72,0,0,0,107.5,107.83Z"/><path class="cls-1" d="M137.72,125.57c.38,1.28.65,2.59.94,3.88a30.83,30.83,0,0,1,.65,3.94h.06a13.82,13.82,0,0,0-.14-4.06,23.06,23.06,0,0,0-1.06-3.91,26.75,26.75,0,0,0-3.6-7.21l0,0a22.58,22.58,0,0,1,1.85,3.55A33.79,33.79,0,0,1,137.72,125.57Z"/><path class="cls-1" d="M106.61,112.42a14.56,14.56,0,0,0-1.44-1.8l0,0a14.21,14.21,0,0,0,1,2.08,21.82,21.82,0,0,0,1.27,1.91c.86,1.26,1.73,2.52,2.61,3.76l0,0q-1.11-2-2.26-4A22.79,22.79,0,0,0,106.61,112.42Z"/><path class="cls-1" d="M121.23,112.81a31.15,31.15,0,0,1,4.4,3.48l0,0a26.22,26.22,0,0,0-4.18-3.83,17,17,0,0,0-2.38-1.55,12.6,12.6,0,0,0-2.66-1l0,.06c.79.52,1.6,1,2.39,1.47S120.44,112.3,121.23,112.81Z"/><path class="cls-1" d="M87.48,127.15a45.06,45.06,0,0,0,2.79-4.34,63.45,63.45,0,0,0,4.47-9.29l0,0a72.7,72.7,0,0,1-4.82,9.06C89,124,88,125.4,87,126.81s-2,2.8-2.93,4.22l.05,0A35.82,35.82,0,0,0,87.48,127.15Z"/><path class="cls-1" d="M86,134.86c-.62.88-1.25,1.76-1.85,2.67l0,0a17,17,0,0,0,2.28-2.36,22.61,22.61,0,0,0,1.82-2.72,37.12,37.12,0,0,0,2.88-5.87l0,0a46.13,46.13,0,0,1-3.22,5.64C87.31,133.13,86.64,134,86,134.86Z"/><path class="cls-1" d="M75.56,126.35c-.52.56-1.06,1.1-1.53,1.7A15.59,15.59,0,0,0,72.74,130l.05,0a14.74,14.74,0,0,0,1.69-1.56c.52-.56,1-1.18,1.44-1.78,1-1.19,1.89-2.4,2.82-3.61l0,0C77.64,124.11,76.59,125.23,75.56,126.35Z"/><path class="cls-1" d="M82.27,119.37a2.24,2.24,0,0,0,.51-.46,1.54,1.54,0,0,0,.26-.68l0,0a1.7,1.7,0,0,0-.66.32,2.41,2.41,0,0,0-.41.54c-.27.37-.53.75-.77,1.14l0,0C81.57,120,81.93,119.67,82.27,119.37Z"/><path class="cls-1" d="M76.78,116.87c1.17-1.09,2.39-2.11,3.59-3.17l3.6-3.16,0-.05a34,34,0,0,0-4,2.76,42.29,42.29,0,0,0-3.54,3.28,64,64,0,0,0-6.24,7.32l0,0A73.41,73.41,0,0,1,76.78,116.87Z"/><path class="cls-1" d="M96.87,105.19l-.05,0c-.24.32-.51.62-.73,1s-.39.71-.58,1.06l-1.13,2.12c-.75,1.41-1.45,2.85-2.22,4.25a93.9,93.9,0,0,1-5.11,8.13l0,0a77,77,0,0,0,5.46-7.94,48.09,48.09,0,0,0,2.35-4.21c.33-.74.67-1.47,1-2.21.15-.37.29-.76.44-1.11S96.71,105.56,96.87,105.19Z"/><path class="cls-1" d="M90.54,141.36a34.17,34.17,0,0,1-3.16,2.45c-1.11.75-2.26,1.41-3.41,2.09a32,32,0,0,1-3.54,1.83v.06a13.65,13.65,0,0,0,3.82-1.38,24.4,24.4,0,0,0,3.39-2.22,26.79,26.79,0,0,0,5.75-5.65l-.05,0A21.7,21.7,0,0,1,90.54,141.36Z"/><path class="cls-1" d="M88.76,111.88a22.12,22.12,0,0,0,1.51-1.72,15.68,15.68,0,0,0,1.27-1.93l-.05,0a14.79,14.79,0,0,0-1.67,1.59c-.52.56-.95,1.19-1.42,1.8-.93,1.2-1.86,2.42-2.77,3.65l0,0Q87.25,113.59,88.76,111.88Z"/><path class="cls-1" d="M95.69,118.71c-.25.92-.44,1.83-.66,2.74s-.38,1.82-.61,2.72a31.07,31.07,0,0,1-2,5.26l0,0a26.63,26.63,0,0,0,2.35-5.15,17.44,17.44,0,0,0,.74-2.75,12.86,12.86,0,0,0,.14-2.84Z"/><path class="cls-1" d="M65.58,94.52a35.55,35.55,0,0,0,4.77,2,43.08,43.08,0,0,0,5,1.31A63.1,63.1,0,0,0,85.55,99.2v0a73.5,73.5,0,0,1-10.11-1.78c-1.66-.43-3.29-.94-4.93-1.42s-3.26-1-4.92-1.48Z"/><path class="cls-1" d="M65.53,99a37.37,37.37,0,0,0,6.47.93v-.06a45.59,45.59,0,0,1-6.35-1.32c-1-.3-2.05-.68-3.08-1s-2.06-.65-3.12-.94l0,.05a16.34,16.34,0,0,0,2.94,1.44A22.19,22.19,0,0,0,65.53,99Z"/><path class="cls-1" d="M67.24,85.36c1.43.54,2.87,1.06,4.31,1.57l0-.05c-1.37-.67-2.76-1.32-4.15-1.95-.69-.32-1.37-.68-2.09-.93a15.13,15.13,0,0,0-2.21-.64l0,.06a15.4,15.4,0,0,0,2,1.12C65.8,84.87,66.53,85.1,67.24,85.36Z"/><path class="cls-1" d="M76.73,89.49a1.58,1.58,0,0,0,.73.05l0-.06A1.67,1.67,0,0,0,77,89a2.14,2.14,0,0,0-.64-.23c-.44-.14-.88-.27-1.32-.38l0,.05c.38.27.76.52,1.15.76A2.29,2.29,0,0,0,76.73,89.49Z"/><path class="cls-1" d="M80.94,85.59,85.07,88l0-.05a34,34,0,0,0-3.85-2.9A41.15,41.15,0,0,0,77,82.74a63.76,63.76,0,0,0-8.89-3.68l0,.06a70.66,70.66,0,0,1,8.69,4C78.22,83.93,79.57,84.78,80.94,85.59Z"/><path class="cls-1" d="M89.36,98.14c.8.09,1.6.19,2.4.25.4,0,.81,0,1.19.08s.78.14,1.18.19l0-.06c-.38-.13-.74-.29-1.15-.4s-.79-.15-1.19-.22l-2.36-.42c-1.58-.28-3.16-.5-4.73-.8a90.58,90.58,0,0,1-9.31-2.35l0,.06a77.67,77.67,0,0,0,9.23,2.75A47.77,47.77,0,0,0,89.36,98.14Z"/><path class="cls-1" d="M54.2,101.94a27.05,27.05,0,0,0,7.15,3.72l0-.06a21.42,21.42,0,0,1-3.59-1.78,34.32,34.32,0,0,1-3.3-2.26c-1.06-.82-2-1.71-3-2.59a31.48,31.48,0,0,1-2.85-2.81l-.05,0A13.66,13.66,0,0,0,51,99.4,24.24,24.24,0,0,0,54.2,101.94Z"/><path class="cls-1" d="M87.37,93.92a15.27,15.27,0,0,0,2.23.6l0,0a13.76,13.76,0,0,0-2-1.1,22,22,0,0,0-2.15-.79c-1.43-.52-2.88-1-4.33-1.51l0,.05q2.09,1,4.18,1.89C86,93.32,86.65,93.67,87.37,93.92Z"/><path class="cls-1" d="M78.11,101.93c-.93.07-1.85.2-2.79.26a30.89,30.89,0,0,1-5.6-.23V102a26.53,26.53,0,0,0,5.62.64,17,17,0,0,0,2.85-.15,12.72,12.72,0,0,0,2.75-.74l0-.06C80,101.76,79,101.86,78.11,101.93Z"/><path class="cls-1" d="M96.33,86h.06A71.19,71.19,0,0,1,95,75.87c-.11-1.71-.13-3.42-.18-5.13s-.06-3.41-.11-5.13h-.06a37,37,0,0,0-.42,5.15,44.64,44.64,0,0,0,.3,5.16A64.23,64.23,0,0,0,96.33,86Z"/><path class="cls-1" d="M91.5,73.36h.06a45.42,45.42,0,0,1-.71-6.46c0-1.08,0-2.16,0-3.23s0-2.16-.07-3.26h-.06a17.68,17.68,0,0,0-.45,3.24,22.44,22.44,0,0,0,.12,3.28A37.73,37.73,0,0,0,91.5,73.36Z"/><path class="cls-1" d="M104.3,64.39a21.75,21.75,0,0,0,.24-2.28,13.65,13.65,0,0,0-.08-2.3h-.06a14.55,14.55,0,0,0-.44,2.26,21.62,21.62,0,0,0-.12,2.28c-.07,1.53-.13,3.05-.16,4.58h.06C103.94,67.42,104.13,65.91,104.3,64.39Z"/><path class="cls-1" d="M103,75.35h0a1.56,1.56,0,0,0,.35-.64,2.57,2.57,0,0,0,0-.68c0-.46,0-.91,0-1.37h-.06c-.13.44-.26.88-.36,1.32a2.58,2.58,0,0,0-.14.67A1.45,1.45,0,0,0,103,75.35Z"/><path class="cls-1" d="M106.85,82.15a33.21,33.21,0,0,0,1.58-4.56,44.42,44.42,0,0,0,.93-4.73,64.33,64.33,0,0,0,.75-9.59h-.06a70.76,70.76,0,0,1-1.16,9.51c-.3,1.57-.69,3.11-1,4.67l-1.06,4.68Z"/><path class="cls-1" d="M98.51,89.33c.17.79.32,1.58.52,2.36.09.39.21.79.29,1.16s.1.79.18,1.19h.06c0-.4,0-.8,0-1.22s-.11-.8-.16-1.2l-.34-2.37c-.22-1.59-.49-3.16-.69-4.75a92.64,92.64,0,0,1-.65-9.58h-.06a77.38,77.38,0,0,0,.24,9.63C98.07,86.14,98.22,87.75,98.51,89.33Z"/><path class="cls-1" d="M86,53.52A31.32,31.32,0,0,1,87.8,50l0,0a13.68,13.68,0,0,0-2.28,3.35A24.82,24.82,0,0,0,84,57.06a27,27,0,0,0-1.33,8h.06a23.05,23.05,0,0,1,.59-4,34.44,34.44,0,0,1,1.13-3.84C84.94,56,85.49,54.74,86,53.52Z"/><path class="cls-1" d="M102.1,88.45a14.82,14.82,0,0,0,.41-2.27c.09-.76.07-1.53.09-2.29.05-1.53.08-3,.1-4.58h-.06c-.19,1.52-.35,3-.51,4.56-.08.76-.19,1.52-.21,2.28a14.78,14.78,0,0,0,.12,2.3Z"/><path class="cls-1" d="M90.91,80.05a12,12,0,0,0,1.55,2.38l.05,0c-.34-.89-.72-1.74-1.07-2.6s-.77-1.69-1.11-2.57a31.09,31.09,0,0,1-1.51-5.4h-.06a25.8,25.8,0,0,0,1.13,5.55A16.2,16.2,0,0,0,90.91,80.05Z"/><path class="cls-1" d="M19.91,151.38a5.32,5.32,0,0,1-2.55.7,4.46,4.46,0,0,1-2.52-.67,5.56,5.56,0,0,1-1.86-2,6,6,0,0,1-.7-1.92,4.55,4.55,0,0,1,.09-1.94,4.78,4.78,0,0,1,.92-1.79,5.62,5.62,0,0,1,1.54-1.31,5.34,5.34,0,0,1,2.44-.7,4.59,4.59,0,0,1,2.51.61,5.13,5.13,0,0,1,2,2.05,5.38,5.38,0,0,1,.71,1.95,4.66,4.66,0,0,1-.1,1.93,4.88,4.88,0,0,1-.92,1.76A5.44,5.44,0,0,1,19.91,151.38Zm-.31-.54a4.79,4.79,0,0,0,1.71-1.6,4.16,4.16,0,0,0,.63-2.18,4.58,4.58,0,0,0-.66-2.37A4.81,4.81,0,0,0,19.7,143a4.13,4.13,0,0,0-2.18-.65,4.57,4.57,0,0,0-2.38.65,4.86,4.86,0,0,0-1.69,1.59,4.07,4.07,0,0,0-.65,2.2,4.75,4.75,0,0,0,.66,2.37,4.62,4.62,0,0,0,1.72,1.76,4.12,4.12,0,0,0,2.22.55A4.7,4.7,0,0,0,19.6,150.84Z"/><path class="cls-1" d="M15.81,132.56l-9.12,3.18-.21-.59,8.62-3-2.09-6,.51-.17Z"/><path class="cls-1" d="M11.49,117.48,2,119.32l-.12-.61,9.48-1.84Z"/><path class="cls-1" d="M9.87,104.17.4,108.87l0-.7,8.7-4.32L0,100.3l0-.7,9.84,3.86Z"/><path class="cls-1" d="M10.1,91.36.52,90.08l1-7.56.54.07-.93,7L5,90.05l.89-6.67.54.07-.89,6.67,4.15.55.94-7,.54.07Z"/><path class="cls-1" d="M15.29,68.49a1.68,1.68,0,0,1-.94-.09c-.5-.12-1-.25-1.46-.39a2.43,2.43,0,0,0-1.23-.09,1.35,1.35,0,0,0-.83.57,4.5,4.5,0,0,0-.55,1.2L8.93,73.87l4.19,1.35-.19.59-9.2-3,1.52-4.7A3.92,3.92,0,0,1,6.61,66a2.33,2.33,0,0,1,2.07-.16,2.31,2.31,0,0,1,1.3,1,2.59,2.59,0,0,1,.38,1.64h0a2,2,0,0,1,1-1.06,2.07,2.07,0,0,1,1.44-.06l.78.23c.47.13.87.23,1.19.29a1.74,1.74,0,0,0,.68.05ZM4.44,72.41l4,1.29,1.31-4.06a3.13,3.13,0,0,0,.08-2.1A2,2,0,0,0,8.45,66.4a1.74,1.74,0,0,0-1.6.16,3,3,0,0,0-1,1.63Z"/><path class="cls-1" d="M22.5,53.43l-3.42-.23-2.53,4.69,2.07,2.73-.34.62-6.39-8.5.33-.62,10.61.69Zm-9.83-.66,3.52,4.65,2.3-4.26Z"/><path class="cls-1" d="M40.81,31.69l-8.28-4.31,0,0L36.24,36l-.58.54-8.91-4.9.51-.48,8.1,4.48,0,0L31.65,27l.57-.53,8.27,4.32,0,0-3.9-8.39.51-.48,4.26,9.23Z"/><path class="cls-1" d="M49.65,24.88l-5.07-8.22,6.49-4,.29.46-6,3.68,2,3.27,5.72-3.53.29.46-5.73,3.53,2.21,3.57,6-3.72.29.46Z"/><path class="cls-1" d="M63.37,17.26l-3.48-9L64.1,6.62a4.1,4.1,0,0,1,3.45,0,5.2,5.2,0,0,1,2.34,3,5.11,5.11,0,0,1,.19,3.74,4.17,4.17,0,0,1-2.53,2.35Zm4.09-2.16a3.3,3.3,0,0,0,2.09-2,4.76,4.76,0,0,0-.24-3.28,4.61,4.61,0,0,0-2.09-2.63,3.55,3.55,0,0,0-3,0L60.66,8.53l3.1,8Z"/><path class="cls-1" d="M79.56,11.86,77.84,2.35l4.44-.8a4.13,4.13,0,0,1,3.39.63,5.21,5.21,0,0,1,1.74,3.35,5.08,5.08,0,0,1-.51,3.7A4.12,4.12,0,0,1,84,11.06ZM84,10.51a3.31,3.31,0,0,0,2.44-1.6,4.82,4.82,0,0,0,.38-3.27,4.66,4.66,0,0,0-1.55-3,3.59,3.59,0,0,0-2.94-.58l-3.77.69,1.54,8.44Z"/><path class="cls-1" d="M97.37,9.68,97.12,0l.62,0L98,9.66Z"/><path class="cls-1" d="M115.1,10.83l-6-9.64h0l-1.12,8.73-.62-.08L108.54.25l.77.1,6,9.64h0l1.13-8.72.61.08-1.23,9.58Z"/><path class="cls-1" d="M132.65,15.62l.76-2.27h0a4,4,0,0,1-2.18,1.31,5,5,0,0,1-2.65-.18A5.57,5.57,0,0,1,126.2,13,4.45,4.45,0,0,1,125,10.78a5.28,5.28,0,0,1,.22-2.7,5.27,5.27,0,0,1,1.38-2.18,4.61,4.61,0,0,1,2.29-1.2,5.24,5.24,0,0,1,2.81.2,5.1,5.1,0,0,1,2.59,1.77,3.87,3.87,0,0,1,.74,2.76l-.59-.2a3.17,3.17,0,0,0-.67-2.3,4.47,4.47,0,0,0-2.24-1.52,4.6,4.6,0,0,0-2.48-.15,4.17,4.17,0,0,0-2,1.08,4.74,4.74,0,0,0-1.2,1.92,4.89,4.89,0,0,0-.21,2.43,3.8,3.8,0,0,0,1,2,4.88,4.88,0,0,0,2,1.28,4.18,4.18,0,0,0,3.1-.06,4.25,4.25,0,0,0,2.11-2.38l-3.69-1.22.17-.52,4.28,1.43-1.52,4.57Z"/><path class="cls-1" d="M150.29,16.64q1-2.21-1.66-3.69a4.42,4.42,0,0,0-2.28-.7,1.66,1.66,0,0,0-1.42.91,1.53,1.53,0,0,0-.16,1.34A4.38,4.38,0,0,0,146,15.93l1.55,1.32a5.15,5.15,0,0,1,1.57,1.92,2.07,2.07,0,0,1-.21,1.76,2.31,2.31,0,0,1-1.85,1.26,4.82,4.82,0,0,1-2.87-.78,5.37,5.37,0,0,1-2.46-2.33,3,3,0,0,1,.3-2.79l.54.31q-1.37,2.52,1.83,4.31a4.19,4.19,0,0,0,2.4.69,1.84,1.84,0,0,0,1.48-1,1.66,1.66,0,0,0,.25-.92,1.69,1.69,0,0,0-.36-.87A8.86,8.86,0,0,0,147,17.64l-1.38-1.21a7.16,7.16,0,0,1-1.3-1.36A2.17,2.17,0,0,1,144,14a2.22,2.22,0,0,1,.34-1.21,2.14,2.14,0,0,1,1.74-1.11,4.54,4.54,0,0,1,2.67.7A5,5,0,0,1,151,14.51a2.68,2.68,0,0,1-.15,2.44Z"/><path class="cls-1" d="M180.09,48.36a5.21,5.21,0,0,1,2.55-.7,4.53,4.53,0,0,1,2.52.66,5.56,5.56,0,0,1,1.85,2,5.78,5.78,0,0,1,.71,1.91,4.59,4.59,0,0,1-.09,2,4.93,4.93,0,0,1-.92,1.79,5.62,5.62,0,0,1-1.54,1.31,5.34,5.34,0,0,1-2.44.7,4.74,4.74,0,0,1-2.51-.61,5.22,5.22,0,0,1-2-2,5.85,5.85,0,0,1-.71-2,4.84,4.84,0,0,1,.11-1.93,4.7,4.7,0,0,1,.92-1.77A5.41,5.41,0,0,1,180.09,48.36Zm.31.54a4.71,4.71,0,0,0-1.71,1.6,4.14,4.14,0,0,0-.63,2.18,4.6,4.6,0,0,0,.65,2.36,4.78,4.78,0,0,0,1.59,1.69,4.12,4.12,0,0,0,2.18.64,4.56,4.56,0,0,0,2.38-.64,4.8,4.8,0,0,0,1.69-1.6,4,4,0,0,0,.64-2.2,4.6,4.6,0,0,0-.65-2.36,4.55,4.55,0,0,0-1.72-1.76,4.13,4.13,0,0,0-2.22-.56A4.72,4.72,0,0,0,180.4,48.9Z"/><path class="cls-1" d="M184.19,67.18,193.31,64l.21.59-8.62,3,2.09,6-.51.18Z"/><path class="cls-1" d="M188.51,82.26,198,80.42l.12.61-9.48,1.84Z"/><path class="cls-1" d="M190.13,95.57l9.47-4.7,0,.7-8.7,4.32,9,3.55,0,.7-9.84-3.87Z"/><path class="cls-1" d="M189.9,108.37l9.58,1.29-1,7.56-.54-.07.93-7-3.81-.51-.89,6.67-.54-.07.89-6.67-4.15-.56-1,7-.53-.07Z"/><path class="cls-1" d="M184.71,131.24a1.9,1.9,0,0,1,.94.09c.5.13,1,.26,1.46.4a2.68,2.68,0,0,0,1.23.09,1.35,1.35,0,0,0,.83-.57,4.73,4.73,0,0,0,.55-1.21l1.35-4.17-4.19-1.35.19-.59,9.2,3-1.52,4.7a4,4,0,0,1-1.36,2.16,2.61,2.61,0,0,1-3.37-.82,2.6,2.6,0,0,1-.38-1.64h0a1.94,1.94,0,0,1-2.45,1.12l-.78-.23c-.47-.13-.87-.23-1.19-.3a1.68,1.68,0,0,0-.68,0Zm10.85-3.92-4-1.28-1.31,4.06a3.1,3.1,0,0,0-.08,2.09,2.06,2.06,0,0,0,1.35,1.15,1.79,1.79,0,0,0,1.61-.16,3,3,0,0,0,1-1.63Z"/><path class="cls-1" d="M177.5,146.31l3.41.23,2.54-4.69-2.07-2.73.34-.62,6.39,8.49-.33.62-10.61-.68Zm9.83.66-3.52-4.65-2.3,4.26Z"/><path class="cls-1" d="M159.19,168.05l8.28,4.31,0,0-3.73-8.56.58-.53,8.91,4.9-.51.48-8.1-4.48,0,0,3.73,8.55-.57.53-8.27-4.32,0,0,3.9,8.39-.51.48-4.26-9.24Z"/><path class="cls-1" d="M150.35,174.86l5.07,8.22-6.49,4-.29-.46,6-3.68-2-3.27-5.72,3.53-.29-.46,5.73-3.54-2.21-3.57-6,3.73-.29-.46Z"/><path class="cls-1" d="M136.63,182.48l3.48,9-4.21,1.63a4.14,4.14,0,0,1-3.45,0,5.22,5.22,0,0,1-2.34-3,5.09,5.09,0,0,1-.19-3.73,4.11,4.11,0,0,1,2.53-2.35Zm-4.09,2.16a3.3,3.3,0,0,0-2.09,2,4.77,4.77,0,0,0,.24,3.28,4.64,4.64,0,0,0,2.09,2.63,3.55,3.55,0,0,0,3,0l3.58-1.38-3.1-8Z"/><path class="cls-1" d="M120.44,187.87l1.72,9.51-4.44.81a4.13,4.13,0,0,1-3.39-.63,5.21,5.21,0,0,1-1.74-3.35,5.11,5.11,0,0,1,.51-3.71,4.19,4.19,0,0,1,2.93-1.83ZM116,189.22a3.34,3.34,0,0,0-2.44,1.61,4.81,4.81,0,0,0-.38,3.27,4.66,4.66,0,0,0,1.55,3,3.59,3.59,0,0,0,2.94.57l3.76-.68-1.53-8.44Z"/><path class="cls-1" d="M102.63,190.06l.25,9.66-.62,0-.25-9.66Z"/><path class="cls-1" d="M84.9,188.9l6,9.65h0l1.12-8.72.62.08-1.24,9.58-.78-.1-6-9.64h0l-1.13,8.73-.61-.08,1.23-9.59Z"/><path class="cls-1" d="M67.35,184.12l-.76,2.26h0a4,4,0,0,1,2.18-1.31,4.85,4.85,0,0,1,2.65.18,5.55,5.55,0,0,1,2.35,1.45A4.44,4.44,0,0,1,75,189a5.28,5.28,0,0,1-.22,2.7,5.34,5.34,0,0,1-1.38,2.18,4.61,4.61,0,0,1-2.29,1.2,5.34,5.34,0,0,1-2.81-.2,5.06,5.06,0,0,1-2.59-1.77,3.87,3.87,0,0,1-.74-2.76l.59.19a3.18,3.18,0,0,0,.67,2.31,4.45,4.45,0,0,0,2.24,1.51,4.5,4.5,0,0,0,2.48.16,4.17,4.17,0,0,0,2-1.08,4.81,4.81,0,0,0,1.2-1.92,4.89,4.89,0,0,0,.21-2.43,3.87,3.87,0,0,0-1-2,5,5,0,0,0-2-1.27,4.13,4.13,0,0,0-3.1.06,4.22,4.22,0,0,0-2.11,2.38l3.69,1.22-.17.52-4.28-1.43L66.83,184Z"/><path class="cls-1" d="M49.71,183.09q-1,2.22,1.66,3.69a4.24,4.24,0,0,0,2.28.7,1.65,1.65,0,0,0,1.42-.9,1.53,1.53,0,0,0,.16-1.34A4.38,4.38,0,0,0,54,183.81l-1.55-1.32a5.09,5.09,0,0,1-1.57-1.93,2,2,0,0,1,.21-1.75,2.34,2.34,0,0,1,1.85-1.27,4.89,4.89,0,0,1,2.87.78,5.38,5.38,0,0,1,2.46,2.34,3,3,0,0,1-.3,2.78l-.54-.3q1.37-2.52-1.83-4.32a4.25,4.25,0,0,0-2.4-.68,1.84,1.84,0,0,0-1.48,1,1.64,1.64,0,0,0-.25.92,1.76,1.76,0,0,0,.36.87A8.86,8.86,0,0,0,53,182.1l1.38,1.21a6.87,6.87,0,0,1,1.3,1.36,2.12,2.12,0,0,1,.35,1.06,2.07,2.07,0,0,1-.33,1.2A2.09,2.09,0,0,1,53.93,188a4.51,4.51,0,0,1-2.68-.7A5,5,0,0,1,49,185.22a2.64,2.64,0,0,1,.15-2.43Z"/></svg>