<svg id="Capa_1" data-name="Capa 1" xmlns="http://www.w3.org/2000/svg" viewBox="0 0 200 206.84"><defs><style>.cls-1{fill:#fff;}</style></defs><path class="cls-1" d="M41.05,95.68a25,25,0,0,0,3.23,7.48,23.86,23.86,0,0,0,5.52,6.07,31.9,31.9,0,0,0,7,4.07,31.45,31.45,0,0,0,4.58,1.61,33.81,33.81,0,0,0-2.65,4.38,35,35,0,0,0-1.57,3.62,36.52,36.52,0,0,0-1.21,3.75,27.14,27.14,0,0,0-.51,11.92,36.78,36.78,0,0,0,.85,3.88,21.66,21.66,0,0,0,3.61,7.33,19.15,19.15,0,0,0,6.37,5.29h0a20.86,20.86,0,0,0,8,2.13c.34,0,.71,0,1.07.05a25.06,25.06,0,0,0,7-.81,23.79,23.79,0,0,0,7.48-3.38,31.8,31.8,0,0,0,6-5.38,32.69,32.69,0,0,0,2.95-3.85,33.84,33.84,0,0,0,3.35,3.87,34.88,34.88,0,0,0,3,2.61,38.42,38.42,0,0,0,3.19,2.31,28.41,28.41,0,0,0,7.26,3.33,29.9,29.9,0,0,0,3.92.84,37,37,0,0,0,4,.38h.25a21.14,21.14,0,0,0,7.83-1.18,18.77,18.77,0,0,0,7-4.42h0a20.89,20.89,0,0,0,4.49-6.93,24.92,24.92,0,0,0,1.78-8,23.68,23.68,0,0,0-.9-8.16,31.55,31.55,0,0,0-3.25-7.39,32.6,32.6,0,0,0-2.76-4,33.07,33.07,0,0,0,4.72-2,34.63,34.63,0,0,0,3.4-2,38.86,38.86,0,0,0,3.18-2.32,27.24,27.24,0,0,0,7.42-9.35,36.3,36.3,0,0,0,1.59-3.64,21.56,21.56,0,0,0,1.39-8,19.21,19.21,0,0,0-2-8v0h0a21,21,0,0,0-5.2-6.41,24.89,24.89,0,0,0-7-4.15,23.64,23.64,0,0,0-8-1.67h-.25a32.7,32.7,0,0,0-7.79.82,33.5,33.5,0,0,0-4.65,1.39,32.79,32.79,0,0,0-.43-5.1,36.89,36.89,0,0,0-.85-3.85A38.22,38.22,0,0,0,122.1,59a28.18,28.18,0,0,0-3.91-7,29.83,29.83,0,0,0-2.68-3,36.8,36.8,0,0,0-3-2.63,21.45,21.45,0,0,0-7.24-3.81,17.65,17.65,0,0,0-4.72-.75,21,21,0,0,0-3.53.21h0a20.93,20.93,0,0,0-7.71,3,24.86,24.86,0,0,0-6.11,5.39,23.57,23.57,0,0,0-4.07,7.13,31.82,31.82,0,0,0-1.71,7.89,32.68,32.68,0,0,0-.12,4.85,34.64,34.64,0,0,0-5-1.17,38.52,38.52,0,0,0-3.92-.37l-.9,0c-1.09,0-2.09,0-3,0a28.22,28.22,0,0,0-7.83,1.57A27.72,27.72,0,0,0,53,72a36,36,0,0,0-3.43,2,21.7,21.7,0,0,0-5.86,5.7,19.05,19.05,0,0,0-3.06,7.69h0v0A20.78,20.78,0,0,0,41.05,95.68ZM43,87.79A16.53,16.53,0,0,1,45.55,81a19.34,19.34,0,0,1,5.18-5.22,35.25,35.25,0,0,1,3.18-2,25.58,25.58,0,0,1,10.65-3.23,39.39,39.39,0,0,1,7.52.16,32.71,32.71,0,0,1,6.6,1.58c0,.36.08.72.13,1.08.19,1.19.44,2.37.74,3.53-.21-.13-.44-.25-.65-.37-.73-.43-1.46-.85-2.2-1.25l0,0c.64.55,1.29,1.08,2,1.6a8.23,8.23,0,0,0,1,.76l.17.08c.29,1,.62,2.08,1,3.09l.33.82-.18-.15a12.91,12.91,0,0,0-2.07-1.27,20.92,20.92,0,0,0-4.47-1.77l0,.06a26,26,0,0,1,4.25,2.13c.67.43,1.29.91,2,1.34l.9.58c.65,1.57,1.39,3.09,2.18,4.57-.59-.46-1.21-.89-1.84-1.31a14.58,14.58,0,0,0-2-1.22,11,11,0,0,0-2.26-.79l0,.06c.65.47,1.33.87,2,1.27s1.39.72,2.08,1.1,1.61,1,2.4,1.47a66.65,66.65,0,0,0,4.18,6.55l.45.61a24.47,24.47,0,0,1-4.36-1.74c-1.76-.86-3.43-1.88-5.1-2.91a45.09,45.09,0,0,0-5.2-2.83,39.29,39.29,0,0,0-5.56-2l0,0c1.78.84,3.57,1.63,5.32,2.52s3.51,1.73,5.21,2.69,3.42,2,5.22,2.78a24.93,24.93,0,0,0,4.59,1.59c.57.78,1.16,1.54,1.75,2.3.81,1,1.66,1.94,2.44,2.91l0,0q-5.84-1.92-11.66-3.81c-2.11-.69-4.21-1.41-6.34-2s-4.26-1.21-6.43-1.7l0,0c2.07.83,4.17,1.52,6.27,2.23S79,96.33,81.09,97c4,1.18,7.93,2.33,11.91,3.48.34.43.65.87,1,1.34a7.43,7.43,0,0,0,1.17,1.14,22,22,0,0,0-2.31.13,24.51,24.51,0,0,0-2.93.59,51.35,51.35,0,0,0-5.71,1.71l0,.06c1.91-.52,3.85-1,5.79-1.29,1-.17,2-.28,2.92-.47.82-.16,1.63-.33,2.45-.53l0,0a5.39,5.39,0,0,0,1.78.84l.17,0c-2.09.42-4.12,1.09-6.17,1.55-1.44.38-2.78.88-4.16,1.34s-2.75.9-4.14,1.29a55.49,55.49,0,0,1-17.16,2.08v.06a50.57,50.57,0,0,0,8.7-.13,56.85,56.85,0,0,0,8.59-1.54c1.41-.35,2.81-.76,4.2-1.19s2.76-.94,4.11-1.33c2.29-.6,4.48-1.44,6.74-2a5.25,5.25,0,0,0,1,0v-.18H99c.24-.06.49-.12.74-.16v-.06a13.62,13.62,0,0,0-1.43.18,4.89,4.89,0,0,1-2.52-1.14,6.71,6.71,0,0,1-1.2-1.35c-.33-.49-.67-1.07-1-1.59-.74-1-1.54-2-2.26-3s-1.42-2.07-2.09-3.13a61.87,61.87,0,0,1-6.69-13.33,34.72,34.72,0,0,1-2.07-14.49,29.66,29.66,0,0,1,1.38-7.22,21,21,0,0,1,3.47-6.4,20.66,20.66,0,0,1,12.15-7.68,16.65,16.65,0,0,1,7.26.34,19.46,19.46,0,0,1,6.56,3.32,35.91,35.91,0,0,1,2.86,2.42,27.24,27.24,0,0,1,2.55,2.71,26.17,26.17,0,0,1,3.81,6.42,33.83,33.83,0,0,1,1.26,3.54,35.57,35.57,0,0,1,.91,3.66,32.53,32.53,0,0,1,.54,6.76c-.33.15-.67.3-1,.46q-1.61.83-3.12,1.8c0-.25.09-.5.15-.74.18-.82.35-1.65.5-2.48h0c-.33.78-.63,1.56-.92,2.35a7,7,0,0,0-.41,1.19l0,.18c-.9.6-1.79,1.23-2.64,1.89l-.68.56a1.45,1.45,0,0,0,.09-.22,12.78,12.78,0,0,0,.57-2.35,21,21,0,0,0,.3-4.8h-.06a25.65,25.65,0,0,1-.71,4.7c-.2.76-.47,1.51-.67,2.27-.1.34-.19.69-.28,1A48.46,48.46,0,0,0,110.55,83c.25-.71.48-1.43.67-2.15a15.73,15.73,0,0,0,.54-2.33,10.68,10.68,0,0,0,0-2.4h-.06c-.24.77-.41,1.53-.58,2.3s-.26,1.54-.41,2.32-.41,1.82-.65,2.73a62.69,62.69,0,0,0-4.94,6l-.45.62a25.39,25.39,0,0,1,.31-4.69c.28-1.94.73-3.84,1.2-5.75a46.19,46.19,0,0,0,1.08-5.82,38.89,38.89,0,0,0,.2-5.91h-.06c-.24,2-.44,3.9-.75,5.83s-.55,3.87-1,5.79-.8,3.86-1,5.82a25.49,25.49,0,0,0-.1,4.86c-.56.79-1.11,1.58-1.64,2.38-.71,1.08-1.34,2.17-2,3.22l0,0q0-6.14,0-12.27c0-2.22,0-4.44,0-6.65s-.16-4.44-.36-6.65h-.06c-.15,2.22-.16,4.44-.18,6.65s.09,4.44.15,6.65q.17,6.21.37,12.4c-.3.47-.63.89-1,1.39a7.88,7.88,0,0,0-.73,1.45,20.57,20.57,0,0,0-.83-2.14,23.68,23.68,0,0,0-1.46-2.6,52,52,0,0,0-3.39-4.9l0,0c1.08,1.66,2.08,3.37,3,5.11.46.87.87,1.77,1.35,2.63s.82,1.46,1.26,2.17v0a5.37,5.37,0,0,0-.25,2,1.11,1.11,0,0,0,0,.17c-1-1.86-2.32-3.58-3.38-5.39-.81-1.25-1.71-2.37-2.56-3.54S91.16,90,90.36,88.78a55.27,55.27,0,0,1-7.28-15.67H83a51,51,0,0,0,2.81,8.24A58,58,0,0,0,90,89.05c.77,1.23,1.59,2.44,2.43,3.62s1.75,2.34,2.54,3.51c1.27,2,2.75,3.81,4,5.77a5.66,5.66,0,0,0,.36,1l.17-.07c0-.06,0-.11,0-.16.13.22.26.44.38.66l.06,0c-.19-.44-.4-.88-.62-1.3a5,5,0,0,1,.31-2.75,6.43,6.43,0,0,1,.91-1.56c.36-.47.82-1,1.19-1.48.77-1,1.46-2.09,2.2-3.08s1.52-2,2.32-3a62.3,62.3,0,0,1,10.62-10.48,34.63,34.63,0,0,1,13.14-6.44,29.14,29.14,0,0,1,7.29-.92,21.06,21.06,0,0,1,7.16,1.32,20.71,20.71,0,0,1,11.06,9.18,16.81,16.81,0,0,1,1.92,7,19.49,19.49,0,0,1-1.13,7.27,35.44,35.44,0,0,1-1.42,3.46,25.6,25.6,0,0,1-6.71,8.88,35.28,35.28,0,0,1-3,2.29,34,34,0,0,1-3.19,2,33.07,33.07,0,0,1-6.27,2.61c-.25-.27-.49-.54-.74-.8-.85-.85-1.75-1.65-2.67-2.42l.75-.08c.83-.08,1.67-.17,2.5-.28v-.06q-1.26-.1-2.52-.15a7.58,7.58,0,0,0-1.26,0l-.18,0q-1.28-1-2.61-1.92l-.74-.47.23,0a12.28,12.28,0,0,0,2.42-.19,20.87,20.87,0,0,0,4.66-1.2l0,0a26,26,0,0,1-4.7.77c-.78,0-1.57,0-2.36.06l-1.07.06a49.09,49.09,0,0,0-4.45-2.41q1.13,0,2.25,0a14.52,14.52,0,0,0,2.38-.21,11.09,11.09,0,0,0,2.3-.7l0-.06c-.8,0-1.58.09-2.37.16s-1.55.23-2.33.33-1.86.17-2.8.22a65.75,65.75,0,0,0-7.23-2.85l-.73-.22a24.9,24.9,0,0,1,4.55-1.16c1.93-.33,3.89-.49,5.85-.64a46.3,46.3,0,0,0,5.86-.77,38.52,38.52,0,0,0,5.69-1.63l0-.06c-1.93.37-3.84.78-5.78,1.09s-3.85.67-5.8.89-3.92.43-5.85.82a25,25,0,0,0-4.65,1.41c-.92-.29-1.85-.57-2.77-.83-1.25-.34-2.48-.59-3.68-.92h0q5.85-1.87,11.68-3.77c2.11-.68,4.23-1.33,6.31-2.08s4.17-1.53,6.21-2.4l0-.06c-2.15.55-4.26,1.22-6.38,1.88s-4.19,1.46-6.28,2.2q-5.83,2.07-11.67,4.18c-.54-.14-1-.31-1.62-.47a7.21,7.21,0,0,0-1.61-.25,18,18,0,0,0,1.78-1.46,22,22,0,0,0,2-2.19,50.29,50.29,0,0,0,3.62-4.74l0,0q-1.87,2.31-3.92,4.44c-.69.71-1.42,1.37-2.1,2.09s-1.12,1.23-1.66,1.88h0a5.33,5.33,0,0,0-1.94.35l-.15.08c1.44-1.57,2.68-3.31,4.07-4.88.94-1.16,1.74-2.36,2.58-3.53s1.69-2.35,2.59-3.48a55.34,55.34,0,0,1,12.66-11.77l0,0a51.26,51.26,0,0,0-7,5.22,57.91,57.91,0,0,0-6,6.29c-.94,1.12-1.83,2.27-2.7,3.43s-1.68,2.39-2.54,3.5c-1.5,1.83-2.78,3.79-4.26,5.6a5.29,5.29,0,0,0-.83.65l.12.14.13-.1c-.17.2-.33.39-.5.57l0,0q.54-.48,1-1a5,5,0,0,1,2.7-.56,7.17,7.17,0,0,1,1.77.38c.56.21,1.17.48,1.77.68,1.22.42,2.44.74,3.62,1.14s2.37.83,3.53,1.29a62.31,62.31,0,0,1,13.25,6.86,34.73,34.73,0,0,1,10.19,10.51,29,29,0,0,1,3.12,6.65,21,21,0,0,1,1,7.21,20.75,20.75,0,0,1-5.32,13.36,16.75,16.75,0,0,1-6.08,4,19.53,19.53,0,0,1-7.25,1.17,36.58,36.58,0,0,1-3.74-.27,26.85,26.85,0,0,1-3.66-.7,26.48,26.48,0,0,1-6.85-2.95,34.71,34.71,0,0,1-3.1-2.13,35.25,35.25,0,0,1-2.89-2.42,33.4,33.4,0,0,1-4.41-5.16c.18-.32.36-.63.53-.95a35.84,35.84,0,0,0,1.47-3.29c.1.23.22.46.31.69.34.77.68,1.54,1,2.3l0,0c-.19-.82-.41-1.64-.64-2.44a7,7,0,0,0-.36-1.21l-.09-.17c.38-1,.72-2,1-3.07.08-.29.15-.57.22-.86l.06.23a11.89,11.89,0,0,0,.93,2.24A21.49,21.49,0,0,0,106,139l0,0a25.25,25.25,0,0,1-2.18-4.23c-.29-.73-.51-1.49-.79-2.22l-.39-1a49.89,49.89,0,0,0,.92-5q.31,1.08.72,2.13a15.82,15.82,0,0,0,.94,2.2,10.68,10.68,0,0,0,1.37,2l0,0c-.25-.77-.57-1.49-.88-2.21s-.7-1.4-1-2.11-.75-1.72-1.08-2.6a65,65,0,0,0,.47-7.76v-.76a26,26,0,0,1,2.51,4c.91,1.73,1.66,3.54,2.41,5.36a45.77,45.77,0,0,0,2.54,5.34,39.81,39.81,0,0,0,3.31,4.91l0,0c-1-1.72-1.93-3.42-2.83-5.16s-1.82-3.46-2.63-5.24-1.62-3.6-2.59-5.31a24.55,24.55,0,0,0-2.78-4c0-1,0-1.93-.07-2.89-.06-1.29-.2-2.54-.26-3.79v0q3.59,5,7.19,9.94c1.3,1.79,2.58,3.61,3.94,5.36s2.73,3.49,4.2,5.16l0,0c-1.18-1.88-2.48-3.69-3.76-5.49s-2.68-3.54-4-5.29q-3.78-4.92-7.58-9.81c0-.56,0-1.09,0-1.69a7.22,7.22,0,0,0-.26-1.6,21.8,21.8,0,0,0,1.93,1.24,24.52,24.52,0,0,0,2.71,1.24,50,50,0,0,0,5.62,2l0,0q-2.77-1.06-5.44-2.36c-.88-.44-1.74-.93-2.63-1.34s-1.52-.7-2.3-1v0a5.47,5.47,0,0,0-.93-1.73l-.12-.12c1.93.88,4,1.53,5.9,2.37,1.39.53,2.77.92,4.15,1.36s2.76.88,4.11,1.39a55.45,55.45,0,0,1,15.11,8.4l0,0a51.74,51.74,0,0,0-7.11-5,58.65,58.65,0,0,0-7.86-3.8c-1.34-.55-2.72-1-4.09-1.51s-2.79-.86-4.12-1.34c-2.2-.86-4.46-1.47-6.64-2.31a4.6,4.6,0,0,0-.87-.59l-.1.15.13.1-.69-.31,0,.06q.62.38,1.26.69a5,5,0,0,1,1.37,2.4,6.84,6.84,0,0,1,.18,1.8c0,.59-.09,1.26-.1,1.9,0,1.28.06,2.54,0,3.79s-.06,2.51-.14,3.76a62.13,62.13,0,0,1-2.42,14.71,34.64,34.64,0,0,1-6.85,12.94,29.31,29.31,0,0,1-5.36,5,21,21,0,0,1-6.56,3.14,20.62,20.62,0,0,1-14.35-.93,16.66,16.66,0,0,1-5.67-4.54,19.54,19.54,0,0,1-3.36-6.54,36.27,36.27,0,0,1-.89-3.63,27.32,27.32,0,0,1-.47-3.7,26.65,26.65,0,0,1,.68-7.44c.29-1.21.66-2.41,1.07-3.6A35.4,35.4,0,0,1,60.12,120a32.64,32.64,0,0,1,3.54-5.79l1.06.21c1.19.18,2.39.31,3.59.38l-.56.51c-.63.55-1.25,1.12-1.86,1.7l0,0c.72-.44,1.43-.9,2.13-1.36a9.06,9.06,0,0,0,1-.72l.13-.14c1.08,0,2.17.06,3.25,0l.87,0-.2.12a13.13,13.13,0,0,0-1.84,1.58,21.26,21.26,0,0,0-3.07,3.7l0,0a25.48,25.48,0,0,1,3.35-3.38c.6-.51,1.26-1,1.87-1.44l.83-.68a49.6,49.6,0,0,0,5-.67c-.62.43-1.22.88-1.81,1.35a14.89,14.89,0,0,0-1.8,1.57,10.75,10.75,0,0,0-1.44,1.91l0,0c.65-.48,1.24-1,1.83-1.52s1.11-1.1,1.69-1.63,1.4-1.24,2.13-1.83a64,64,0,0,0,7.53-2c.24-.07.48-.16.72-.24a25.32,25.32,0,0,1-3,3.61c-1.37,1.41-2.85,2.68-4.35,4a46,46,0,0,0-4.3,4.08,38.13,38.13,0,0,0-3.64,4.66l0,0c1.34-1.44,2.65-2.89,4-4.28s2.73-2.8,4.18-4.12,2.92-2.65,4.25-4.11a26.3,26.3,0,0,0,2.94-3.87c.91-.31,1.82-.63,2.72-1,1.21-.46,2.36-1,3.52-1.42h0q-3.63,4.93-7.23,9.91c-1.3,1.79-2.64,3.56-3.88,5.39s-2.48,3.68-3.61,5.59l0,0c1.42-1.71,2.73-3.5,4-5.28s2.54-3.63,3.79-5.46q3.51-5.11,7-10.25c.52-.2,1-.36,1.6-.57a7.26,7.26,0,0,0,1.44-.74,17.26,17.26,0,0,0-.58,2.22,24.79,24.79,0,0,0-.35,3,49.26,49.26,0,0,0-.14,6h.06q.15-3,.56-5.9c.14-1,.34-1.94.46-2.92s.2-1.66.25-2.5h0a5.57,5.57,0,0,0,1.35-1.43,1.09,1.09,0,0,0,.08-.15c-.24,2.11-.22,4.26-.43,6.34-.08,1.49,0,2.93,0,4.38s0,2.89,0,4.33a55.28,55.28,0,0,1-3.32,17l.06,0a51.29,51.29,0,0,0,2.56-8.32,57.18,57.18,0,0,0,1.19-8.64c.1-1.46.15-2.91.17-4.37s0-2.91,0-4.32c.14-2.36,0-4.7.15-7a5.16,5.16,0,0,0,.29-1l-.17,0-.06.15c0-.25.05-.5.08-.75l-.06,0c-.11.47-.2,1-.27,1.42a4.89,4.89,0,0,1-1.86,2,6.65,6.65,0,0,1-1.66.73c-.56.17-1.22.3-1.83.5-1.22.37-2.41.83-3.59,1.2s-2.41.72-3.62,1A61.9,61.9,0,0,1,72.4,113,34.51,34.51,0,0,1,58,110.53,29.4,29.4,0,0,1,51.54,107a21.14,21.14,0,0,1-5-5.28A20.58,20.58,0,0,1,43,87.79Z"/><path class="cls-1" d="M132.12,87.31a36.93,36.93,0,0,0-5.19,1.23,46.08,46.08,0,0,0-5,1.94,67.1,67.1,0,0,0-9.38,5l0,.06a73.57,73.57,0,0,1,9.53-4.65c1.65-.66,3.32-1.22,5-1.81s3.34-1.15,5-1.75Z"/><path class="cls-1" d="M132.83,83c1-.36,2.11-.7,3.17-1.1v-.06a18,18,0,0,0-3.34.58,24.25,24.25,0,0,0-3.18,1.17,38.57,38.57,0,0,0-6,3.16l0,0A44.6,44.6,0,0,1,129.65,84C130.7,83.65,131.77,83.35,132.83,83Z"/><path class="cls-1" d="M138.58,95.36c-.78.15-1.53.4-2.29.61-1.52.42-3,.86-4.55,1.31l0,.06c1.55-.28,3.1-.58,4.64-.89.78-.16,1.56-.27,2.32-.5a14.86,14.86,0,0,0,2.23-.81v-.06A15.37,15.37,0,0,0,138.58,95.36Z"/><path class="cls-1" d="M126.55,98.21a2.28,2.28,0,0,0-.69.07,1.74,1.74,0,0,0-.64.41v.06a1.72,1.72,0,0,0,.75.13,2.34,2.34,0,0,0,.67-.2c.45-.14.89-.3,1.33-.48v-.06C127.5,98.15,127,98.17,126.55,98.21Z"/><path class="cls-1" d="M129.63,103.63c-1.64.21-3.29.32-4.92.47l-4.94.46v.06a36,36,0,0,0,5,.09,43.42,43.42,0,0,0,4.95-.6,64.08,64.08,0,0,0,9.66-2.32l0-.06A75,75,0,0,1,129.63,103.63Z"/><path class="cls-1" d="M114.57,96.62a47.46,47.46,0,0,0-4.52,2.1c-.72.41-1.45.81-2.16,1.26-.35.21-.7.45-1,.66s-.74.34-1.11.55l0,.06c.4-.12.81-.21,1.21-.37s.75-.36,1.13-.53l2.23-1.09c1.48-.72,2.94-1.5,4.44-2.2a93.88,93.88,0,0,1,9.2-3.69v-.06A78.66,78.66,0,0,0,114.57,96.62Z"/><path class="cls-1" d="M133,74.8a35.55,35.55,0,0,1,4.13-.12c1.38,0,2.75.19,4.11.32a31.4,31.4,0,0,1,4.08.62l0-.06a14.05,14.05,0,0,0-4-1.16,24.46,24.46,0,0,0-4.19-.2,27.58,27.58,0,0,0-8.23,1.23v.06A22.7,22.7,0,0,1,133,74.8Z"/><path class="cls-1" d="M116.58,100.53c-.77.16-1.55.29-2.31.52a14.28,14.28,0,0,0-2.22.85v0a15.23,15.23,0,0,0,2.36-.31c.78-.16,1.52-.42,2.28-.64,1.52-.44,3-.9,4.54-1.37l0-.06C119.67,99.87,118.12,100.19,116.58,100.53Z"/><path class="cls-1" d="M116.74,88.28a13.16,13.16,0,0,0-1.85,2.29l0,0c.76-.62,1.48-1.26,2.21-1.89s1.43-1.29,2.17-1.9a32.21,32.21,0,0,1,4.83-3.22l0,0A27.19,27.19,0,0,0,119,86.43,17,17,0,0,0,116.74,88.28Z"/><path class="cls-1" d="M119.26,120.42a65.93,65.93,0,0,0-7.69-7.35l0,.05a73.65,73.65,0,0,1,7.37,7.62c1.13,1.36,2.17,2.78,3.25,4.18s2.13,2.82,3.22,4.22l0,0a39.37,39.37,0,0,0-2.78-4.56A45.78,45.78,0,0,0,119.26,120.42Z"/><path class="cls-1" d="M128.15,125.44a38.45,38.45,0,0,0-4.85-4.7l0,.05a45.14,45.14,0,0,1,4.52,5c.68.88,1.3,1.81,2,2.7s1.33,1.79,2,2.68l.06,0a18.61,18.61,0,0,0-1.59-3A24.55,24.55,0,0,0,128.15,125.44Z"/><path class="cls-1" d="M118.47,135.76q-1.31-2-2.65-3.93l0,0c.74,1.39,1.51,2.78,2.28,4.15.39.69.74,1.4,1.18,2.05a15.5,15.5,0,0,0,1.47,1.87l0,0a15.13,15.13,0,0,0-1-2.16C119.37,137.05,118.91,136.41,118.47,135.76Z"/><path class="cls-1" d="M113,126.55a1.54,1.54,0,0,0-.58-.48l0,0a1.75,1.75,0,0,0,.1.74,2.31,2.31,0,0,0,.4.58c.28.38.57.76.87,1.12l0,0c-.15-.45-.31-.89-.5-1.32A2.07,2.07,0,0,0,113,126.55Z"/><path class="cls-1" d="M107.15,127.25l-2-4.55h-.06a35.93,35.93,0,0,0,1.45,4.77,43,43,0,0,0,2.1,4.52,64.88,64.88,0,0,0,5.19,8.47l.05,0a75.42,75.42,0,0,1-4.81-8.66C108.42,130.29,107.81,128.76,107.15,127.25Z"/><path class="cls-1" d="M107.75,111.65c-.62-.56-1.23-1.13-1.87-1.66-.31-.27-.65-.53-.95-.8s-.56-.59-.87-.88l0,0c.23.34.44.7.71,1s.58.6.87.9l1.72,1.79c1.14,1.19,2.33,2.33,3.46,3.54a93,93,0,0,1,6.36,7.62l0,0a79.8,79.8,0,0,0-6-7.9A48.81,48.81,0,0,0,107.75,111.65Z"/><path class="cls-1" d="M139,130c.39,1.33.67,2.68,1,4a30.72,30.72,0,0,1,.67,4.08h.06a14,14,0,0,0-.13-4.19,25.67,25.67,0,0,0-1.1-4,27.86,27.86,0,0,0-3.72-7.46l-.05,0a22.44,22.44,0,0,1,1.91,3.67A34,34,0,0,1,139,130Z"/><path class="cls-1" d="M106.83,116.38a15.28,15.28,0,0,0-1.49-1.85l0,0a15.75,15.75,0,0,0,1,2.15c.39.69.87,1.32,1.31,2q1.34,1.95,2.71,3.89l0,0q-1.15-2.07-2.35-4.11A23.28,23.28,0,0,0,106.83,116.38Z"/><path class="cls-1" d="M121.93,116.79a31.92,31.92,0,0,1,4.55,3.59l0,0a27,27,0,0,0-4.31-4,17.38,17.38,0,0,0-2.47-1.6,12.9,12.9,0,0,0-2.75-1.05l0,.05c.82.54,1.66,1,2.48,1.53S121.12,116.27,121.93,116.79Z"/><path class="cls-1" d="M87.07,131.61A48.16,48.16,0,0,0,90,127.12a66.18,66.18,0,0,0,4.62-9.6l-.06,0a73.69,73.69,0,0,1-5,9.37c-.94,1.49-2,2.93-3,4.38s-2,2.9-3,4.37l0,0A37.23,37.23,0,0,0,87.07,131.61Z"/><path class="cls-1" d="M85.56,139.57c-.64.91-1.3,1.82-1.92,2.76l0,0A18,18,0,0,0,86,139.94a23.12,23.12,0,0,0,1.89-2.82,38.21,38.21,0,0,0,3-6.06l-.06,0a45.2,45.2,0,0,1-3.32,5.83C86.89,137.78,86.2,138.66,85.56,139.57Z"/><path class="cls-1" d="M74.75,130.78c-.53.58-1.1,1.13-1.58,1.76a16.58,16.58,0,0,0-1.33,2l0,0a14.84,14.84,0,0,0,1.74-1.62c.54-.57,1-1.21,1.49-1.83q1.48-1.86,2.92-3.73l-.05,0Q76.36,129,74.75,130.78Z"/><path class="cls-1" d="M81.69,123.57a2.63,2.63,0,0,0,.52-.48,1.58,1.58,0,0,0,.27-.7l0,0a1.66,1.66,0,0,0-.68.33,2.38,2.38,0,0,0-.43.56c-.28.38-.54.77-.79,1.17l0,0C81,124.17,81.33,123.87,81.69,123.57Z"/><path class="cls-1" d="M76,121c1.21-1.12,2.47-2.18,3.71-3.27l3.72-3.27,0,0a33.94,33.94,0,0,0-4.08,2.86,43.34,43.34,0,0,0-3.66,3.38,66.21,66.21,0,0,0-6.45,7.56l0,0A74.64,74.64,0,0,1,76,121Z"/><path class="cls-1" d="M96.77,108.92l0,0c-.25.33-.53.63-.76,1s-.4.73-.6,1.1l-1.16,2.19c-.78,1.45-1.51,2.94-2.3,4.38A94,94,0,0,1,86.62,126l0,0a78.31,78.31,0,0,0,5.65-8.19,48.8,48.8,0,0,0,2.42-4.36c.34-.76.69-1.51,1-2.28.16-.39.31-.79.46-1.15S96.6,109.3,96.77,108.92Z"/><path class="cls-1" d="M90.23,146.29A34.29,34.29,0,0,1,87,148.81c-1.14.78-2.34,1.46-3.52,2.16a32.5,32.5,0,0,1-3.66,1.9v.06a14.27,14.27,0,0,0,3.95-1.43,24.49,24.49,0,0,0,3.5-2.29,27.65,27.65,0,0,0,5.94-5.84l-.05,0A23.18,23.18,0,0,1,90.23,146.29Z"/><path class="cls-1" d="M88.39,115.83c.53-.59,1.09-1.15,1.56-1.78a16,16,0,0,0,1.31-2l-.05,0a14.86,14.86,0,0,0-1.72,1.64c-.54.58-1,1.23-1.47,1.86-1,1.24-1.92,2.5-2.87,3.77l0,0Q86.82,117.59,88.39,115.83Z"/><path class="cls-1" d="M95.55,122.89c-.26,1-.46,1.89-.68,2.82s-.39,1.89-.64,2.82a31.77,31.77,0,0,1-2,5.44l0,0a26.93,26.93,0,0,0,2.43-5.32,17.5,17.5,0,0,0,.76-2.84,13.13,13.13,0,0,0,.15-2.94Z"/><path class="cls-1" d="M64.44,97.9a37.94,37.94,0,0,0,4.93,2,45.52,45.52,0,0,0,5.16,1.36,65.73,65.73,0,0,0,10.55,1.42v-.06a73.58,73.58,0,0,1-10.44-1.84c-1.72-.43-3.4-1-5.09-1.46s-3.38-1-5.09-1.53Z"/><path class="cls-1" d="M64.39,102.47a37.88,37.88,0,0,0,6.68,1v-.06A47,47,0,0,1,64.51,102c-1.07-.31-2.12-.69-3.18-1s-2.13-.67-3.22-1l0,0a17.22,17.22,0,0,0,3.05,1.49A22.86,22.86,0,0,0,64.39,102.47Z"/><path class="cls-1" d="M66.16,88.43q2.22.84,4.45,1.62l0,0q-2.13-1-4.28-2c-.72-.34-1.42-.7-2.17-1a15.7,15.7,0,0,0-2.28-.65l0,0A15.23,15.23,0,0,0,64,87.58C64.66,87.92,65.42,88.16,66.16,88.43Z"/><path class="cls-1" d="M76,92.7a1.56,1.56,0,0,0,.75,0l0,0a1.61,1.61,0,0,0-.53-.54,2.18,2.18,0,0,0-.66-.24c-.44-.15-.9-.28-1.36-.39l0,0c.38.28.78.54,1.18.78A2.47,2.47,0,0,0,76,92.7Z"/><path class="cls-1" d="M80.31,88.67l4.26,2.53,0,0a35.13,35.13,0,0,0-4-3,43,43,0,0,0-4.35-2.42,65.55,65.55,0,0,0-9.18-3.81l0,.06a73.8,73.8,0,0,1,9,4.18C77.5,87,78.89,87.83,80.31,88.67Z"/><path class="cls-1" d="M89,101.64c.83.09,1.66.19,2.49.25.41,0,.83,0,1.23.08s.8.15,1.22.2v-.06c-.39-.14-.76-.3-1.18-.41s-.82-.15-1.23-.23L89.1,101c-1.63-.29-3.26-.52-4.89-.83a94.69,94.69,0,0,1-9.62-2.43l0,.06a79.16,79.16,0,0,0,9.54,2.84A48,48,0,0,0,89,101.64Z"/><path class="cls-1" d="M52.68,105.56a27.66,27.66,0,0,0,7.39,3.84l0-.06a22.88,22.88,0,0,1-3.71-1.84A36,36,0,0,1,53,105.17c-1.09-.85-2.11-1.77-3.14-2.68a30.94,30.94,0,0,1-2.94-2.9l0,0a14.07,14.07,0,0,0,2.57,3.31A24.94,24.94,0,0,0,52.68,105.56Z"/><path class="cls-1" d="M87,97.27a14.41,14.41,0,0,0,2.3.62l0,0a14.68,14.68,0,0,0-2.1-1.13c-.72-.33-1.47-.56-2.22-.83q-2.22-.8-4.47-1.55l0,0q2.15,1,4.31,2C85.5,96.66,86.21,97,87,97.27Z"/><path class="cls-1" d="M77.38,105.55c-1,.07-1.91.21-2.87.26a31.29,31.29,0,0,1-5.8-.23v.06a27,27,0,0,0,5.82.66,16.88,16.88,0,0,0,2.93-.15,12.7,12.7,0,0,0,2.84-.77v-.06C79.3,105.38,78.34,105.47,77.38,105.55Z"/><path class="cls-1" d="M96.21,89.14l.06,0a74.33,74.33,0,0,1-1.48-10.5c-.11-1.76-.13-3.53-.18-5.29s-.06-3.53-.12-5.31h-.06A37.89,37.89,0,0,0,94,73.33a47.35,47.35,0,0,0,.31,5.33A66.37,66.37,0,0,0,96.21,89.14Z"/><path class="cls-1" d="M91.22,76h.06a46.92,46.92,0,0,1-.73-6.67c0-1.11,0-2.23,0-3.34s0-2.23-.07-3.36h-.06A18.14,18.14,0,0,0,89.93,66a23.83,23.83,0,0,0,.13,3.38A39.21,39.21,0,0,0,91.22,76Z"/><path class="cls-1" d="M104.45,66.77c.09-.79.22-1.57.25-2.36a15.84,15.84,0,0,0-.09-2.38h-.06a15.73,15.73,0,0,0-.46,2.33c-.1.79-.1,1.58-.13,2.37-.07,1.57-.12,3.15-.16,4.73h.06C104.07,69.9,104.27,68.33,104.45,66.77Z"/><path class="cls-1" d="M103.13,78.09h.06a1.7,1.7,0,0,0,.35-.66,2.41,2.41,0,0,0,0-.71c0-.47,0-.94,0-1.41h-.06c-.14.45-.26.91-.37,1.37a2.35,2.35,0,0,0-.14.69A1.55,1.55,0,0,0,103.13,78.09Z"/><path class="cls-1" d="M107.08,85.11a35.42,35.42,0,0,0,1.63-4.71,44.76,44.76,0,0,0,1-4.88,66,66,0,0,0,.78-9.91h-.06a77,77,0,0,1-1.2,9.82c-.31,1.62-.72,3.22-1.07,4.83L107,85.09Z"/><path class="cls-1" d="M98.47,92.53c.16.82.32,1.63.52,2.44.11.4.22.81.31,1.2s.1.81.18,1.22h.07c0-.42,0-.83,0-1.26s-.11-.83-.16-1.24l-.35-2.45c-.22-1.64-.51-3.27-.71-4.91a93.32,93.32,0,0,1-.67-9.89h-.06a76.75,76.75,0,0,0,.25,9.94A48.11,48.11,0,0,0,98.47,92.53Z"/><path class="cls-1" d="M85.55,55.54a32.6,32.6,0,0,1,1.85-3.69l-.05,0A14.15,14.15,0,0,0,85,55.28a24.71,24.71,0,0,0-1.49,3.92,27.65,27.65,0,0,0-1.37,8.21h.06a23.48,23.48,0,0,1,.61-4.09,34.1,34.1,0,0,1,1.17-4C84.44,58.05,85,56.8,85.55,55.54Z"/><path class="cls-1" d="M102.16,91.62a14.78,14.78,0,0,0,.43-2.34,23.48,23.48,0,0,0,.1-2.37c0-1.58.08-3.15.1-4.73h-.06c-.19,1.57-.37,3.14-.53,4.71-.08.78-.2,1.57-.21,2.36a15.87,15.87,0,0,0,.11,2.38Z"/><path class="cls-1" d="M90.61,82.94a12.89,12.89,0,0,0,1.6,2.47l.05,0c-.35-.92-.74-1.8-1.1-2.69S90.36,80.94,90,80a32.52,32.52,0,0,1-1.56-5.58h-.06a27,27,0,0,0,1.17,5.74A16.83,16.83,0,0,0,90.61,82.94Z"/><path class="cls-1" d="M4,81.84a5.4,5.4,0,0,1-2.36-1.37A4.72,4.72,0,0,1,.31,78.14a5.63,5.63,0,0,1,.12-2.81,5.86,5.86,0,0,1,.9-1.9,4.75,4.75,0,0,1,1.5-1.35,4.94,4.94,0,0,1,2-.62,6,6,0,0,1,2.08.18,5.41,5.41,0,0,1,2.28,1.29,4.77,4.77,0,0,1,1.37,2.28,5.41,5.41,0,0,1-.07,3,5.91,5.91,0,0,1-.92,1.94,4.72,4.72,0,0,1-1.5,1.31,4.84,4.84,0,0,1-2,.61A5.57,5.57,0,0,1,4,81.84Zm.18-.61a4.94,4.94,0,0,0,2.41.09A4.21,4.21,0,0,0,8.67,80.2,4.85,4.85,0,0,0,9.93,78,4.81,4.81,0,0,0,10,75.62a4.15,4.15,0,0,0-1.11-2.08,4.69,4.69,0,0,0-2.2-1.28,5,5,0,0,0-2.39-.08,4.14,4.14,0,0,0-2.09,1.11A4.9,4.9,0,0,0,1,75.5,4.67,4.67,0,0,0,.92,78a4.27,4.27,0,0,0,1.2,2A4.93,4.93,0,0,0,4.19,81.23Z"/><path class="cls-1" d="M14.9,65.18l-9-4.41.28-.58,8.46,4.16,2.89-5.87.5.25Z"/><path class="cls-1" d="M22.86,51.06l-8.24-5.64.37-.53,8.23,5.64Z"/><path class="cls-1" d="M31.48,40.22,21.15,36.66l.49-.53,9.49,3.27-3.94-9.23.49-.53,4.29,10Z"/><path class="cls-1" d="M41.06,31.1l-6-8,6.3-4.74.34.45-5.79,4.35,2.39,3.17,5.55-4.18.34.45L38.63,26.8l2.61,3.46,5.85-4.4.34.45Z"/><path class="cls-1" d="M61.65,18.33c-.13,0-.34-.29-.61-.75s-.53-.91-.77-1.36a2.53,2.53,0,0,0-.82-1,1.37,1.37,0,0,0-1-.2,4.71,4.71,0,0,0-1.28.47l-4,2,2,4.06-.57.29L50.07,13l4.56-2.29a4,4,0,0,1,2.59-.56,2.37,2.37,0,0,1,1.61,1.4,2.39,2.39,0,0,1,.22,1.67,2.67,2.67,0,0,1-.93,1.46v0a2.1,2.1,0,0,1,1.52,0,2.13,2.13,0,0,1,1.08,1l.4.74c.24.44.46.8.64,1.09a1.86,1.86,0,0,0,.46.53ZM50.9,13.19l1.94,3.86,3.94-2a3.2,3.2,0,0,0,1.6-1.45,2.1,2.1,0,0,0-.14-1.83A1.83,1.83,0,0,0,57,10.72a3.1,3.1,0,0,0-2,.41Z"/><path class="cls-1" d="M78,12.71,75.66,10l-5.29,1.54-.51,3.5-.7.21L70.78,4.41l.7-.21,7.19,8.31ZM71.33,5l-.87,6,4.8-1.4Z"/><path class="cls-1" d="M107.24,10.42,104.41,1.2h0l-3.6,9-.81,0L97.12,0l.72,0,2.58,9.21h0l3.58-9,.81,0,2.82,9.21h0L111,.59l.73,0-3.71,9.84Z"/><path class="cls-1" d="M118.67,12,121,2.29l7.66,1.88-.13.54-7-1.72-.94,3.86,6.75,1.65L127.2,9l-6.75-1.65-1,4.21,7.12,1.74-.13.54Z"/><path class="cls-1" d="M134.22,16.56l4.11-9.1,4.26,1.92a4.28,4.28,0,0,1,2.51,2.52,5.35,5.35,0,0,1-.49,3.87,5.22,5.22,0,0,1-2.6,2.85,4.24,4.24,0,0,1-3.57-.16ZM138.77,18a3.42,3.42,0,0,0,3,.06A4.93,4.93,0,0,0,144,15.51a4.83,4.83,0,0,0,.42-3.44,3.72,3.72,0,0,0-2.16-2.21l-3.6-1.63L135,16.31Z"/><path class="cls-1" d="M149.94,24.56l5.74-8.17,3.82,2.69a4.26,4.26,0,0,1,2,3,5.39,5.39,0,0,1-1.2,3.71,5.3,5.3,0,0,1-3.1,2.31,4.25,4.25,0,0,1-3.47-.83Zm4.19,2.27a3.39,3.39,0,0,0,3,.63,4.93,4.93,0,0,0,2.68-2.09,4.73,4.73,0,0,0,1.06-3.3,3.7,3.7,0,0,0-1.7-2.57l-3.23-2.28-5.11,7.25Z"/><path class="cls-1" d="M164.46,36.08l6.93-7.19.46.44-6.93,7.19Z"/><path class="cls-1" d="M176.47,50l2.72-11.43,0,0L171.94,44l-.39-.51,7.95-6,.49.65-2.72,11.43v0l7.24-5.51.39.52-7.95,6Z"/><path class="cls-1" d="M185.68,66.35l2.21-1.09,0,0a4.14,4.14,0,0,1-2.55-.66,5.1,5.1,0,0,1-1.78-2.07,5.86,5.86,0,0,1-.64-2.79,4.73,4.73,0,0,1,.81-2.49,5.55,5.55,0,0,1,2.15-1.79,5.45,5.45,0,0,1,2.6-.56,4.75,4.75,0,0,1,2.55.81,5.49,5.49,0,0,1,1.89,2.21,5.29,5.29,0,0,1,.58,3.2,4,4,0,0,1-1.5,2.54l-.28-.58a3.24,3.24,0,0,0,1.21-2.16,4.76,4.76,0,0,0-.51-2.75,4.7,4.7,0,0,0-1.68-1.94,4.42,4.42,0,0,0-2.27-.71,5.19,5.19,0,0,0-4.23,2.12,4.06,4.06,0,0,0-.74,2.2,5.08,5.08,0,0,0,.56,2.44,4.25,4.25,0,0,0,2.29,2.23,4.34,4.34,0,0,0,3.28-.17l-1.77-3.6.5-.25,2,4.18-4.47,2.2Z"/><path class="cls-1" d="M197.71,80.07c1.56-.58,2.07-1.88,1.51-3.9A4.49,4.49,0,0,0,198.08,74a1.68,1.68,0,0,0-1.69-.39,1.57,1.57,0,0,0-1.1.85,4.38,4.38,0,0,0-.16,2l.15,2.09A5.27,5.27,0,0,1,195,81a2.12,2.12,0,0,1-1.44,1.12,2.42,2.42,0,0,1-2.28-.44A5.07,5.07,0,0,1,189.77,79a5.65,5.65,0,0,1-.06-3.5,3.11,3.11,0,0,1,2.27-1.8l.17.62q-2.85.83-1.85,4.48a4.26,4.26,0,0,0,1.23,2.25,1.87,1.87,0,0,0,1.8.38,1.66,1.66,0,0,0,.86-.48,1.92,1.92,0,0,0,.38-.89,8.73,8.73,0,0,0,0-1.71l-.11-1.89a7.9,7.9,0,0,1,.06-2,2.09,2.09,0,0,1,1.65-1.65,2.2,2.2,0,0,1,2.08.47,4.7,4.7,0,0,1,1.43,2.48,5.24,5.24,0,0,1,.06,3.18,2.76,2.76,0,0,1-1.9,1.66Z"/><path class="cls-1" d="M196,125a5.52,5.52,0,0,1,2.36,1.38,4.63,4.63,0,0,1,1.33,2.33,5.52,5.52,0,0,1-.11,2.81,5.86,5.86,0,0,1-.9,1.9,4.86,4.86,0,0,1-1.5,1.35,4.78,4.78,0,0,1-2,.61,5.78,5.78,0,0,1-2.08-.17,5.63,5.63,0,0,1-2.28-1.29,4.77,4.77,0,0,1-1.37-2.28,5.41,5.41,0,0,1,.07-2.95,5.91,5.91,0,0,1,.92-1.94,4.72,4.72,0,0,1,1.5-1.31,4.84,4.84,0,0,1,2-.61A5.78,5.78,0,0,1,196,125Zm-.18.62a4.94,4.94,0,0,0-2.41-.09,4.21,4.21,0,0,0-2.07,1.12,4.76,4.76,0,0,0-1.26,2.19,4.86,4.86,0,0,0-.09,2.39,4.26,4.26,0,0,0,1.1,2.08,4.78,4.78,0,0,0,2.21,1.28,5,5,0,0,0,2.39.08,4.08,4.08,0,0,0,2.09-1.12,4.87,4.87,0,0,0,1.27-2.2,4.67,4.67,0,0,0,0-2.54,4.27,4.27,0,0,0-1.2-2A4.93,4.93,0,0,0,195.81,125.61Z"/><path class="cls-1" d="M185.1,141.66l9,4.41-.28.58-8.46-4.16-2.89,5.87-.5-.25Z"/><path class="cls-1" d="M177.14,155.78l8.24,5.64L185,162l-8.23-5.64Z"/><path class="cls-1" d="M168.52,166.62l10.33,3.56-.49.53-9.49-3.27,3.94,9.23-.49.53-4.29-10Z"/><path class="cls-1" d="M158.94,175.74l6,8-6.3,4.74-.34-.45,5.79-4.35-2.39-3.18-5.55,4.18-.34-.44,5.56-4.18-2.61-3.47L152.91,181l-.34-.45Z"/><path class="cls-1" d="M138.35,188.51c.13,0,.34.29.61.75s.53.91.77,1.36a2.53,2.53,0,0,0,.82,1,1.37,1.37,0,0,0,1,.2,4.71,4.71,0,0,0,1.28-.47l4-2-2-4.06.57-.29,4.49,8.92-4.56,2.29a4.07,4.07,0,0,1-2.58.56,2.71,2.71,0,0,1-1.84-3.07,2.67,2.67,0,0,1,.93-1.46v0a2.1,2.1,0,0,1-1.52,0,2.21,2.21,0,0,1-1.08-1l-.4-.74c-.24-.44-.46-.8-.64-1.09a1.72,1.72,0,0,0-.46-.53Zm10.75,5.14-1.94-3.86-3.94,2a3.2,3.2,0,0,0-1.6,1.45,2.1,2.1,0,0,0,.14,1.83,1.83,1.83,0,0,0,1.28,1.07,3.17,3.17,0,0,0,2-.41Z"/><path class="cls-1" d="M122,194.13l2.31,2.67,5.29-1.53.51-3.5.7-.21-1.62,10.87-.69.21-7.2-8.31Zm6.64,7.71.87-6-4.8,1.4Z"/><path class="cls-1" d="M92.76,196.42l2.83,9.21h0l3.6-8.95.81,0,2.86,10.12-.72,0-2.58-9.21h0l-3.58,9-.81,0-2.82-9.21h0l-3.34,9-.73,0L92,196.38Z"/><path class="cls-1" d="M81.33,194.85,79,204.55l-7.66-1.88.13-.54,7,1.72.94-3.86-6.75-1.65.14-.54,6.75,1.65,1-4.21-7.12-1.74.13-.54Z"/><path class="cls-1" d="M65.78,190.28l-4.11,9.1-4.26-1.92a4.28,4.28,0,0,1-2.51-2.52,5.35,5.35,0,0,1,.49-3.87,5.22,5.22,0,0,1,2.6-2.85,4.24,4.24,0,0,1,3.57.16Zm-4.55-1.44a3.45,3.45,0,0,0-3-.07A5,5,0,0,0,56,191.33a4.83,4.83,0,0,0-.42,3.44A3.75,3.75,0,0,0,57.71,197l3.6,1.62L65,190.52Z"/><path class="cls-1" d="M50.07,182.28l-5.75,8.17-3.82-2.69a4.26,4.26,0,0,1-2-2.95,5.36,5.36,0,0,1,1.21-3.71,5.25,5.25,0,0,1,3.09-2.31,4.25,4.25,0,0,1,3.47.83ZM45.87,180a3.39,3.39,0,0,0-2.95-.63,4.91,4.91,0,0,0-2.68,2.09,4.72,4.72,0,0,0-1.06,3.29,3.69,3.69,0,0,0,1.7,2.58l3.23,2.28,5.11-7.25Z"/><path class="cls-1" d="M35.54,170.76,28.61,178l-.46-.45,6.93-7.18Z"/><path class="cls-1" d="M23.53,156.87l-2.72,11.44,0,0,7.23-5.5.39.51-7.95,6-.49-.65,2.72-11.43v0l-7.24,5.51-.39-.52,8-6Z"/><path class="cls-1" d="M14.32,140.49l-2.21,1.09,0,0a4.14,4.14,0,0,1,2.55.66,5.1,5.1,0,0,1,1.78,2.07,5.86,5.86,0,0,1,.64,2.79,4.73,4.73,0,0,1-.81,2.49,5.59,5.59,0,0,1-2.16,1.79,5.39,5.39,0,0,1-2.59.56A4.75,4.75,0,0,1,9,151.15a5.45,5.45,0,0,1-1.89-2.22,5.25,5.25,0,0,1-.58-3.19A4,4,0,0,1,8,143.2l.28.58a3.28,3.28,0,0,0-1.21,2.16,5.12,5.12,0,0,0,2.19,4.69,4.42,4.42,0,0,0,2.27.71,5.19,5.19,0,0,0,4.23-2.12,4.06,4.06,0,0,0,.74-2.2,5.08,5.08,0,0,0-.56-2.44,4.32,4.32,0,0,0-2.28-2.24,4.37,4.37,0,0,0-3.29.18l1.77,3.6-.5.24-2.05-4.18L14.08,140Z"/><path class="cls-1" d="M2.29,126.77Q0,127.64.77,130.66a4.57,4.57,0,0,0,1.15,2.19,1.73,1.73,0,0,0,1.69.39,1.54,1.54,0,0,0,1.1-.86,4.32,4.32,0,0,0,.16-1.94l-.15-2.09A5.31,5.31,0,0,1,5,125.79a2.13,2.13,0,0,1,1.44-1.11,2.42,2.42,0,0,1,2.28.44,5.07,5.07,0,0,1,1.51,2.68,5.65,5.65,0,0,1,.06,3.5A3.15,3.15,0,0,1,8,133.1l-.17-.62q2.85-.82,1.85-4.48a4.26,4.26,0,0,0-1.23-2.25,1.87,1.87,0,0,0-1.8-.38,1.66,1.66,0,0,0-.86.48,1.88,1.88,0,0,0-.38.89,8.66,8.66,0,0,0,0,1.7l.11,1.9a7.93,7.93,0,0,1-.06,1.95,2.13,2.13,0,0,1-1.65,1.65,2.2,2.2,0,0,1-2.08-.47A4.7,4.7,0,0,1,.28,131a5.23,5.23,0,0,1-.06-3.18,2.76,2.76,0,0,1,1.9-1.66Z"/></svg>